<svg width="268" height="200" viewBox="0 0 268 200" fill="none" xmlns="http://www.w3.org/2000/svg">
<path d="M267.262 175.861H0V175.995H267.262V175.861Z" fill="#EBEBEB"/>
<path d="M238.002 181.981H210.795V182.115H238.002V181.981Z" fill="#EBEBEB"/>
<path d="M53.2759 180.399H28.041V180.533H53.2759V180.399Z" fill="#EBEBEB"/>
<path d="M212.74 179.501H202.483V179.635H212.74V179.501Z" fill="#EBEBEB"/>
<path d="M177.045 183.045H169.519V183.179H177.045V183.045Z" fill="#EBEBEB"/>
<path d="M164.756 183.045H145.812V183.179H164.756V183.045Z" fill="#EBEBEB"/>
<path d="M134.812 180.789H104.35V180.923H134.812V180.789Z" fill="#EBEBEB"/>
<path d="M126.682 152.021H23.4711C22.6626 152.02 21.8876 151.698 21.3164 151.125C20.7451 150.553 20.4243 149.778 20.4243 148.969V3.88328C20.4314 3.07937 20.7553 2.3107 21.3258 1.74424C21.8962 1.17777 22.6672 0.859257 23.4711 0.85788H126.682C127.492 0.85788 128.268 1.17944 128.84 1.75183C129.413 2.32421 129.734 3.10053 129.734 3.91001V148.969C129.734 149.779 129.413 150.555 128.84 151.127C128.268 151.7 127.492 152.021 126.682 152.021ZM23.4711 0.964785C22.698 0.966201 21.957 1.27431 21.4109 1.82148C20.8647 2.36865 20.5579 3.11017 20.5579 3.88328V148.969C20.5579 149.742 20.8647 150.484 21.4109 151.031C21.957 151.578 22.698 151.886 23.4711 151.888H126.682C127.456 151.886 128.197 151.578 128.744 151.031C129.291 150.484 129.599 149.743 129.601 148.969V3.88328C129.599 3.10968 129.291 2.36817 128.744 1.82115C128.197 1.27413 127.456 0.966198 126.682 0.964785H23.4711Z" fill="#EBEBEB"/>
<path d="M242.305 152.021H139.088C138.279 152.02 137.504 151.698 136.932 151.126C136.36 150.554 136.038 149.778 136.036 148.969V3.88328C136.045 3.07889 136.37 2.31022 136.941 1.7439C137.512 1.17758 138.284 0.859242 139.088 0.85788H242.305C243.108 0.860662 243.877 1.1798 244.447 1.74611C245.016 2.31243 245.339 3.0803 245.346 3.88328V148.969C245.346 149.777 245.026 150.551 244.456 151.123C243.886 151.696 243.112 152.018 242.305 152.021ZM139.088 0.964785C138.315 0.966198 137.573 1.27413 137.026 1.82115C136.479 2.36817 136.171 3.10968 136.17 3.88328V148.969C136.171 149.743 136.479 150.484 137.026 151.031C137.573 151.578 138.315 151.886 139.088 151.888H242.305C243.078 151.886 243.82 151.578 244.367 151.031C244.914 150.484 245.222 149.743 245.223 148.969V3.88328C245.222 3.10968 244.914 2.36817 244.367 1.82115C243.82 1.27413 243.078 0.966198 242.305 0.964785H139.088Z" fill="#EBEBEB"/>
<path d="M119.995 18.5078H31.2749V131.41H119.995V18.5078Z" fill="#E6E6E6"/>
<path d="M118.889 18.5078H30.1685V131.41H118.889V18.5078Z" fill="#FAFAFA"/>
<path d="M116.409 128.93V20.9934L32.6542 20.9934V128.93H116.409Z" fill="white"/>
<path d="M74.5287 118.956C80.7813 118.956 85.8499 113.887 85.8499 107.634C85.8499 101.382 80.7813 96.3131 74.5287 96.3131C68.2762 96.3131 63.2075 101.382 63.2075 107.634C63.2075 113.887 68.2762 118.956 74.5287 118.956Z" fill="#FAFAFA"/>
<path d="M86.5285 74.9589C86.5285 77.0221 84.7111 78.615 83.749 80.3041C82.7868 81.9932 82.2523 84.3825 80.5418 85.3767C78.8314 86.371 76.6024 85.6226 74.5391 85.6226C72.4759 85.6226 70.2042 86.3389 68.5364 85.3767C66.8687 84.4146 66.3182 82.0199 65.3293 80.3041C64.3404 78.5883 62.5444 77.0435 62.5444 74.9589C62.5444 72.8742 64.3618 71.3027 65.3293 69.6404C66.2968 67.978 66.826 65.562 68.5364 64.5677C70.2469 63.5735 72.4705 64.3165 74.5338 64.3165C76.5971 64.3165 78.8741 63.6056 80.5365 64.5677C82.1989 65.5299 82.7601 67.9192 83.7436 69.6404C84.7272 71.3615 86.5285 72.901 86.5285 74.9589Z" fill="#EBEBEB"/>
<path d="M87.5658 42.2835L83.6691 45.2554L85.0749 49.9485L80.1787 50.0608L78.5591 54.6898L74.5288 51.8942L70.5038 54.6898L68.8842 50.0608L63.9826 49.9485L65.3884 45.2554L61.4971 42.2835L65.3884 39.3168L63.9826 34.6237L68.8842 34.5115L70.5038 29.8878L74.5288 32.6781L78.5591 29.8878L80.1787 34.5115L85.0749 34.6237L83.6691 39.3168L87.5658 42.2835Z" fill="#E0E0E0"/>
<path d="M222.848 173.883H233.405V130.886H222.848V173.883Z" fill="#F0F0F0"/>
<path d="M143.546 175.861H230.62V173.883H143.546V175.861Z" fill="#F0F0F0"/>
<path d="M222.848 130.886H140.761V173.883H222.848V130.886Z" fill="#F5F5F5"/>
<path d="M217.14 146.425H146.465V156.655H217.14V146.425Z" fill="#F0F0F0"/>
<path d="M217.14 159.815H146.465V170.045H217.14V159.815Z" fill="#F0F0F0"/>
<path d="M161.025 147.125H202.59C202.962 147.125 203.263 146.823 203.263 146.451V146.398C203.263 146.026 202.962 145.724 202.59 145.724H161.025C160.653 145.724 160.352 146.026 160.352 146.398V146.451C160.352 146.823 160.653 147.125 161.025 147.125Z" fill="#F5F5F5"/>
<path d="M161.025 160.515H202.59C202.962 160.515 203.263 160.213 203.263 159.841V159.788C203.263 159.416 202.962 159.114 202.59 159.114H161.025C160.653 159.114 160.352 159.416 160.352 159.788V159.841C160.352 160.213 160.653 160.515 161.025 160.515Z" fill="#F5F5F5"/>
<path d="M217.14 133.035H146.465V143.266H217.14V133.035Z" fill="#F0F0F0"/>
<path d="M161.025 133.74H202.59C202.962 133.74 203.263 133.439 203.263 133.067V133.014C203.263 132.642 202.962 132.34 202.59 132.34H161.025C160.653 132.34 160.352 132.642 160.352 133.014V133.067C160.352 133.439 160.653 133.74 161.025 133.74Z" fill="#F5F5F5"/>
<path d="M222.38 20.0813C226.077 16.3844 226.077 10.3906 222.38 6.69377C218.683 2.99691 212.689 2.9969 208.992 6.69377C205.295 10.3906 205.295 16.3844 208.992 20.0813C212.689 23.7782 218.683 23.7782 222.38 20.0813Z" fill="#F5F5F5"/>
<path d="M219.06 18.3225C221.784 15.5984 221.784 11.1817 219.06 8.45763C216.336 5.73351 211.919 5.73352 209.195 8.45763C206.471 11.1817 206.471 15.5984 209.195 18.3225C211.919 21.0466 216.336 21.0466 219.06 18.3225Z" fill="#EBEBEB"/>
<path d="M213.964 13.3871C213.964 13.6377 213.89 13.8826 213.751 14.0909C213.612 14.2993 213.414 14.4616 213.182 14.5575C212.951 14.6534 212.696 14.6785 212.45 14.6296C212.205 14.5807 211.979 14.4601 211.802 14.2829C211.625 14.1057 211.504 13.88 211.455 13.6343C211.406 13.3885 211.431 13.1338 211.527 12.9023C211.623 12.6709 211.785 12.473 211.994 12.3338C212.202 12.1946 212.447 12.1203 212.697 12.1203C213.033 12.1203 213.356 12.2538 213.593 12.4913C213.831 12.7289 213.964 13.0511 213.964 13.3871Z" fill="white"/>
<path d="M218.465 25.0932C217.473 25.0961 216.484 24.9922 215.514 24.7832C215.337 24.7315 215.187 24.6133 215.094 24.4532C215.002 24.2932 214.975 24.1037 215.019 23.9243C215.063 23.7449 215.175 23.5895 215.331 23.4906C215.487 23.3917 215.675 23.3569 215.856 23.3934C215.905 23.3934 220.806 24.5533 224.142 21.9288C226.28 20.2557 227.349 17.38 227.349 13.3764C227.349 13.1865 227.424 13.0043 227.559 12.8699C227.693 12.7356 227.875 12.6602 228.065 12.6602C228.255 12.6602 228.437 12.7356 228.571 12.8699C228.706 13.0043 228.781 13.1865 228.781 13.3764C228.781 17.8343 227.514 21.0896 225.013 23.046C223.12 24.4394 220.815 25.16 218.465 25.0932Z" fill="#EBEBEB"/>
<path d="M227.456 14.531C227.104 14.531 226.767 14.3913 226.519 14.1427C226.27 13.8941 226.13 13.557 226.13 13.2054V10.6985C226.13 10.3441 226.271 10.0042 226.522 9.75355C226.772 9.50294 227.112 9.36215 227.467 9.36215C227.821 9.36215 228.161 9.50294 228.412 9.75355C228.662 10.0042 228.803 10.3441 228.803 10.6985V13.2054C228.802 13.3811 228.767 13.5549 228.699 13.7168C228.63 13.8787 228.531 14.0255 228.406 14.1488C228.28 14.272 228.132 14.3692 227.969 14.4348C227.806 14.5004 227.632 14.5331 227.456 14.531Z" fill="#EBEBEB"/>
<path d="M133.631 200C190.869 200 237.27 197.291 237.27 193.949C237.27 190.607 190.869 187.898 133.631 187.898C76.3929 187.898 29.9922 190.607 29.9922 193.949C29.9922 197.291 76.3929 200 133.631 200Z" fill="#F5F5F5"/>
<path d="M238.606 31.5502H135.561V106.613H238.606V31.5502Z" fill="#263238"/>
<path d="M162.944 66.1553C162.417 66.1215 161.902 65.9796 161.431 65.7384C161.114 65.5913 160.783 65.4767 160.442 65.3963C160.089 65.3402 159.731 65.3187 159.373 65.3321C158.856 65.3731 158.336 65.3095 157.845 65.145C157.375 64.9091 156.957 64.582 156.615 64.1829C156.375 63.9249 156.112 63.6888 155.829 63.4773C155.523 63.2947 155.201 63.1391 154.867 63.0123C154.371 62.8521 153.912 62.592 153.52 62.2479C153.178 61.8564 152.918 61.4002 152.756 60.9063C152.636 60.5699 152.48 60.2473 152.291 59.9441C152.084 59.6565 151.848 59.3913 151.585 59.153C151.185 58.8136 150.859 58.395 150.629 57.9236C150.465 57.4334 150.399 56.9157 150.436 56.4002C150.451 56.0428 150.431 55.6848 150.377 55.3312C150.296 54.9922 150.179 54.6626 150.03 54.3477C149.757 53.8893 149.613 53.3658 149.613 52.8323C149.613 52.2988 149.757 51.7752 150.03 51.3169C150.179 50.9998 150.295 50.6685 150.377 50.328C150.432 49.9745 150.452 49.6164 150.436 49.259C150.4 48.7417 150.465 48.2223 150.629 47.7302C150.861 47.2613 151.186 46.8448 151.585 46.5062C151.848 46.2679 152.084 46.0027 152.291 45.7151C152.479 45.4113 152.635 45.0889 152.756 44.7529C152.92 44.258 153.179 43.8002 153.52 43.406C153.916 43.0668 154.373 42.8073 154.867 42.6416C155.203 42.5203 155.526 42.3644 155.829 42.1765C156.114 41.9715 156.377 41.7387 156.615 41.4817C156.96 41.0869 157.377 40.7621 157.845 40.5249C158.336 40.3604 158.856 40.2968 159.373 40.3378C159.731 40.3512 160.089 40.3297 160.442 40.2736C160.783 40.1933 161.114 40.0786 161.431 39.9315C161.902 39.6903 162.417 39.5484 162.944 39.5146C163.473 39.549 163.99 39.6909 164.462 39.9315C164.777 40.0794 165.107 40.1941 165.446 40.2736C165.799 40.3297 166.157 40.3512 166.515 40.3378C167.032 40.2968 167.552 40.3604 168.043 40.5249C168.512 40.7607 168.929 41.0857 169.273 41.4817C169.733 42.0292 170.339 42.4351 171.021 42.6523C171.539 42.7789 172.012 43.0452 172.389 43.4222C172.766 43.7992 173.032 44.2724 173.159 44.7904C173.28 45.1263 173.436 45.4487 173.624 45.7525C173.831 46.0402 174.067 46.3053 174.329 46.5436C174.728 46.8822 175.054 47.2988 175.286 47.7677C175.45 48.2598 175.515 48.7791 175.479 49.2964C175.463 49.6538 175.483 50.0119 175.537 50.3654C175.62 50.7059 175.736 51.0372 175.885 51.3543C176.158 51.8127 176.302 52.3362 176.302 52.8697C176.302 53.4032 176.158 53.9267 175.885 54.3851C175.735 54.7 175.619 55.0296 175.537 55.3686C175.483 55.7222 175.464 56.0802 175.479 56.4376C175.515 56.9532 175.45 57.4709 175.286 57.961C175.055 58.4324 174.73 58.851 174.329 59.1904C174.067 59.4287 173.831 59.6939 173.624 59.9815C173.435 60.2847 173.279 60.6073 173.159 60.9437C173.029 61.4567 172.761 61.9244 172.384 62.2958C172.007 62.6671 171.536 62.9279 171.021 63.0497C170.687 63.1765 170.365 63.3321 170.059 63.5147C169.776 63.7262 169.513 63.9623 169.273 64.2203C168.931 64.6194 168.513 64.9465 168.043 65.1824C167.552 65.3469 167.032 65.4105 166.515 65.3695C166.157 65.3561 165.799 65.3776 165.446 65.4337C165.107 65.5133 164.777 65.6279 164.462 65.7758C163.987 66.0035 163.47 66.1326 162.944 66.1553ZM159.582 65.0862C159.888 65.0781 160.194 65.0996 160.496 65.1504C160.853 65.2354 161.201 65.3572 161.533 65.5139C161.958 65.7725 162.446 65.9093 162.944 65.9093C163.442 65.9093 163.93 65.7725 164.355 65.5139C164.687 65.3572 165.035 65.2354 165.392 65.1504C165.767 65.0916 166.146 65.0701 166.525 65.0862C167.006 65.1249 167.489 65.0668 167.947 64.9152C168.383 64.6951 168.77 64.3897 169.086 64.0172C169.336 63.7436 169.614 63.4964 169.914 63.2795C170.233 63.0817 170.572 62.9169 170.924 62.7878C171.385 62.6362 171.812 62.3965 172.181 62.0822C172.498 61.7154 172.738 61.2881 172.886 60.8261C173.017 60.4744 173.182 60.1361 173.378 59.8158C173.596 59.5132 173.845 59.2338 174.121 58.982C174.492 58.6646 174.797 58.2779 175.019 57.8434C175.169 57.3853 175.225 56.9019 175.185 56.4216C175.17 56.0443 175.193 55.6664 175.254 55.2938C175.338 54.9265 175.458 54.5684 175.612 54.2247C175.871 53.8005 176.008 53.3132 176.008 52.8162C176.008 52.3193 175.871 51.832 175.612 51.4078C175.459 51.0637 175.339 50.7057 175.254 50.3387C175.194 49.966 175.17 49.5882 175.185 49.2109C175.225 48.7306 175.169 48.2472 175.019 47.789C174.797 47.3546 174.492 46.9678 174.121 46.6505C173.845 46.3987 173.596 46.1193 173.378 45.8167C173.182 45.4964 173.017 45.1581 172.886 44.8064C172.773 44.3299 172.529 43.8942 172.183 43.5478C171.837 43.2015 171.401 42.9581 170.924 42.8447C170.572 42.7156 170.233 42.5508 169.914 42.3529C169.615 42.1347 169.337 41.8876 169.086 41.6153C168.772 41.2411 168.384 40.9355 167.947 40.7173C167.489 40.5657 167.006 40.5075 166.525 40.5462C165.776 40.6109 165.024 40.4627 164.355 40.1186C163.93 39.86 163.442 39.7232 162.944 39.7232C162.446 39.7232 161.958 39.86 161.533 40.1186C160.864 40.4627 160.112 40.6109 159.363 40.5462C158.883 40.5095 158.4 40.5657 157.941 40.7119C157.505 40.934 157.118 41.2411 156.802 41.6153C156.552 41.8889 156.274 42.136 155.974 42.3529C155.655 42.5508 155.316 42.7156 154.964 42.8447C154.502 42.9936 154.075 43.2335 153.707 43.5503C153.39 43.917 153.15 44.3443 153.002 44.8064C152.872 45.1585 152.707 45.4969 152.51 45.8167C152.292 46.1193 152.043 46.3987 151.767 46.6505C151.395 46.9664 151.09 47.3535 150.869 47.789C150.719 48.2472 150.663 48.7306 150.703 49.2109C150.718 49.5882 150.694 49.966 150.634 50.3387C150.549 50.7057 150.429 51.0637 150.276 51.4078C150.017 51.832 149.88 52.3193 149.88 52.8162C149.88 53.3132 150.017 53.8005 150.276 54.2247C150.43 54.5684 150.55 54.9265 150.634 55.2938C150.695 55.6664 150.718 56.0443 150.703 56.4216C150.663 56.9019 150.719 57.3853 150.869 57.8434C151.091 58.2779 151.396 58.6646 151.767 58.982C152.043 59.2338 152.292 59.5132 152.51 59.8158C152.706 60.1361 152.871 60.4744 153.002 60.8261C153.151 61.2876 153.391 61.7147 153.707 62.0822C154.076 62.3965 154.503 62.6362 154.964 62.7878C155.316 62.9169 155.655 63.0817 155.974 63.2795C156.274 63.4964 156.552 63.7436 156.802 64.0172C157.118 64.3897 157.505 64.6951 157.941 64.9152C158.399 65.0641 158.882 65.1222 159.363 65.0862H159.582Z" fill="white"/>
<path d="M162.944 60.3183C167.086 60.3183 170.444 56.9607 170.444 52.8189C170.444 48.6771 167.086 45.3195 162.944 45.3195C158.802 45.3195 155.445 48.6771 155.445 52.8189C155.445 56.9607 158.802 60.3183 162.944 60.3183Z" fill="white"/>
<path d="M168.3 45.4532C168.282 45.4539 168.265 45.451 168.248 45.4446C168.232 45.4381 168.217 45.4283 168.204 45.4158C168.191 45.4033 168.181 45.3883 168.174 45.3718C168.167 45.3553 168.163 45.3375 168.163 45.3195C168.163 45.3016 168.167 45.2838 168.174 45.2673C168.181 45.2507 168.191 45.2358 168.204 45.2233L174.084 39.3436C174.096 39.331 174.111 39.3212 174.128 39.3148C174.144 39.3083 174.162 39.3054 174.18 39.3061H185.779C185.815 39.3061 185.849 39.3202 185.874 39.3453C185.899 39.3703 185.913 39.4043 185.913 39.4398C185.913 39.4752 185.899 39.5092 185.874 39.5343C185.849 39.5593 185.815 39.5734 185.779 39.5734H174.233L168.375 45.4158C168.356 45.437 168.329 45.4503 168.3 45.4532Z" fill="white"/>
<path d="M153.708 73.954H142.109C142.073 73.954 142.039 73.9399 142.014 73.9149C141.989 73.8898 141.975 73.8558 141.975 73.8204C141.975 73.7849 141.989 73.7509 142.014 73.7259C142.039 73.7008 142.073 73.6867 142.109 73.6867H153.654L159.475 67.8658C159.501 67.8465 159.533 67.8371 159.565 67.8394C159.597 67.8417 159.627 67.8554 159.65 67.8782C159.673 67.9009 159.687 67.9311 159.689 67.9632C159.691 67.9953 159.682 68.0271 159.663 68.0529L153.783 73.9326C153.76 73.946 153.734 73.9534 153.708 73.954Z" fill="white"/>
<path d="M192.546 39.8033C192.528 39.8035 192.511 39.7993 192.495 39.7909C192.479 39.7825 192.465 39.7702 192.455 39.7552C192.435 39.7334 192.424 39.7047 192.424 39.675C192.424 39.6452 192.435 39.6166 192.455 39.5948C192.915 39.2667 193.397 38.972 193.899 38.7128C194.128 38.5764 194.386 38.4975 194.652 38.483C194.91 38.4969 195.16 38.5701 195.385 38.6968C195.472 38.7387 195.561 38.7762 195.652 38.8091C196.411 39.0977 197.255 38.8785 198.137 38.6434C198.907 38.3758 199.727 38.2845 200.537 38.3761C200.718 38.4208 200.896 38.4743 201.072 38.5365L201.403 38.638C202.53 38.8558 203.69 38.8358 204.808 38.5792L205.525 38.4777C206.747 38.2369 208.012 38.3292 209.186 38.7449C209.336 38.8091 209.485 38.8839 209.63 38.9587C209.969 39.1592 210.345 39.29 210.736 39.3436C211.184 39.3491 211.628 39.2618 212.04 39.087L212.468 38.948C213.762 38.5685 215.189 38.7075 216.568 38.8358H216.819C220.576 39.1832 224.357 39.21 228.119 38.916C228.134 38.9145 228.148 38.916 228.163 38.9203C228.177 38.9246 228.19 38.9317 228.201 38.9411C228.213 38.9506 228.222 38.9622 228.229 38.9753C228.236 38.9884 228.24 39.0028 228.242 39.0175C228.245 39.0479 228.236 39.0783 228.217 39.1022C228.198 39.1262 228.17 39.1418 228.14 39.1458C224.364 39.4399 220.569 39.413 216.798 39.0656H216.546C215.189 38.9373 213.783 38.8037 212.532 39.1725C212.393 39.21 212.254 39.2581 212.115 39.3062C211.671 39.4895 211.195 39.5804 210.715 39.5734C210.296 39.5158 209.893 39.3759 209.528 39.1618C209.384 39.087 209.245 39.0175 209.095 38.9534C207.957 38.5563 206.734 38.4696 205.551 38.7022L204.846 38.8091C203.693 39.0689 202.499 39.0871 201.339 38.8625L201.002 38.7556C200.828 38.6934 200.649 38.6434 200.468 38.6059C199.692 38.5192 198.906 38.6087 198.169 38.8679C197.287 39.0977 196.373 39.3382 195.54 39.0282L195.262 38.9053C195.062 38.8003 194.844 38.7349 194.62 38.7128C194.392 38.728 194.17 38.7977 193.973 38.916C193.482 39.1693 193.011 39.4587 192.562 39.7819C192.558 39.7894 192.552 39.7966 192.546 39.8033Z" fill="white"/>
<path d="M212.799 42.8661C212.325 42.8358 211.859 42.7274 211.42 42.5454C210.97 42.3553 210.491 42.245 210.004 42.2193C209.666 42.2386 209.333 42.2978 209.009 42.3957C208.795 42.4593 208.577 42.511 208.357 42.5507C207.773 42.6229 207.183 42.6229 206.599 42.5507H206.524C203.915 42.2995 201.243 42.2033 198.656 42.1071C197.763 42.075 196.763 42.2193 196.641 42.7164C196.636 42.7392 196.624 42.7599 196.607 42.7753C196.589 42.7907 196.567 42.8001 196.544 42.8019C196.521 42.805 196.497 42.801 196.477 42.7905C196.456 42.78 196.438 42.7635 196.427 42.7431C196.159 42.2567 195.331 42.0483 194.652 42.0964C193.936 42.1787 193.239 42.3792 192.589 42.6897C192.575 42.6957 192.56 42.6988 192.545 42.6988C192.529 42.6988 192.514 42.6958 192.5 42.6898C192.486 42.6838 192.474 42.675 192.463 42.6639C192.453 42.6529 192.444 42.6398 192.439 42.6255C192.428 42.5971 192.429 42.5657 192.441 42.5378C192.453 42.5099 192.475 42.4877 192.503 42.4759C193.178 42.1566 193.9 41.9508 194.641 41.8665C194.977 41.828 195.317 41.8604 195.639 41.9617C195.962 42.063 196.259 42.2309 196.512 42.4545C196.886 41.8826 198.116 41.8558 198.65 41.8772C201.243 41.9734 203.921 42.0696 206.54 42.3209H206.609C207.174 42.3929 207.745 42.3929 208.309 42.3209C208.522 42.2841 208.732 42.2359 208.94 42.1765C209.287 42.069 209.646 42.0062 210.009 41.9895C210.521 42.0195 211.025 42.1333 211.5 42.3262C212.032 42.5822 212.627 42.6734 213.211 42.5881C213.397 42.5351 213.576 42.4616 213.745 42.369L214.023 42.2353C214.939 41.9406 215.91 41.8602 216.862 42.0001C217.421 42.0508 217.984 42.0615 218.545 42.0322C218.56 42.0307 218.575 42.0322 218.589 42.0365C218.603 42.0408 218.617 42.0479 218.628 42.0574C218.639 42.0668 218.649 42.0784 218.656 42.0915C218.663 42.1047 218.667 42.119 218.668 42.1338C218.671 42.1642 218.662 42.1945 218.643 42.2185C218.624 42.2424 218.597 42.2581 218.567 42.2621C217.993 42.2915 217.418 42.2807 216.846 42.23C215.93 42.0926 214.996 42.1676 214.114 42.4491C214.023 42.4866 213.938 42.5347 213.852 42.5774C213.672 42.6732 213.482 42.7502 213.286 42.8073C213.127 42.8498 212.963 42.8696 212.799 42.8661Z" fill="white"/>
<path d="M192.546 46.394C192.52 46.3926 192.495 46.3825 192.475 46.3652C192.455 46.3479 192.442 46.3244 192.437 46.2985C192.432 46.2726 192.436 46.2458 192.448 46.2224C192.46 46.199 192.48 46.1804 192.504 46.1695C193.394 45.8063 194.308 45.5062 195.24 45.2715C195.737 45.1279 196.253 45.0647 196.769 45.0844C197.081 45.1201 197.388 45.1845 197.688 45.2768C197.978 45.3634 198.275 45.4243 198.576 45.4585C198.933 45.4715 199.291 45.45 199.645 45.3944C200.176 45.2851 200.725 45.3016 201.248 45.4425C201.399 45.499 201.543 45.5687 201.681 45.651C201.813 45.7325 201.953 45.8006 202.098 45.8541C202.793 46.0946 203.488 45.7793 204.236 45.4425C204.872 45.0828 205.591 44.8984 206.321 44.908C206.805 44.9914 207.267 45.1733 207.679 45.4425C208.113 45.734 208.62 45.897 209.143 45.9129C209.387 45.8887 209.627 45.8367 209.859 45.7579H209.929C211.872 45.181 213.907 44.9761 215.926 45.1539H216.033C216.314 45.1832 216.597 45.1832 216.878 45.1539C217.049 45.1285 217.219 45.0928 217.386 45.047L217.76 44.9561C218.538 44.8617 219.328 44.918 220.085 45.1218L220.523 45.2073C222.517 45.5638 224.564 45.4983 226.531 45.0149C226.559 45.0138 226.585 45.0222 226.607 45.0387C226.629 45.0551 226.644 45.0786 226.65 45.1051C226.657 45.1317 226.654 45.1595 226.642 45.184C226.63 45.2085 226.61 45.2281 226.585 45.2394C224.587 45.7282 222.51 45.7937 220.486 45.4318L220.037 45.3463C219.309 45.1501 218.551 45.0957 217.803 45.1859C217.68 45.1859 217.562 45.2394 217.444 45.2661C217.269 45.3164 217.09 45.3556 216.91 45.3837C216.613 45.4131 216.314 45.4131 216.017 45.3837H215.91C213.92 45.2106 211.915 45.4119 209.998 45.977H209.929C209.682 46.0632 209.425 46.1189 209.165 46.1427C208.594 46.1313 208.038 45.959 207.561 45.6456C207.173 45.4011 206.741 45.2358 206.289 45.1592C205.599 45.1611 204.922 45.3456 204.327 45.6937C203.584 46.0358 202.82 46.3833 202.034 46.116C201.876 46.057 201.724 45.9836 201.58 45.8968C201.452 45.8203 201.318 45.7542 201.179 45.6991C200.692 45.5753 200.184 45.5643 199.693 45.667C199.325 45.7231 198.953 45.7446 198.581 45.7311C198.266 45.696 197.954 45.6315 197.651 45.5387C197.365 45.4526 197.071 45.3918 196.774 45.357C196.281 45.3391 195.789 45.4005 195.315 45.5387C194.394 45.7707 193.49 46.0672 192.61 46.426L192.546 46.394Z" fill="white"/>
<path d="M192.546 49.2911C192.52 49.2906 192.495 49.2814 192.475 49.2649C192.454 49.2484 192.44 49.2257 192.434 49.2002C192.43 49.1854 192.429 49.17 192.431 49.1549C192.434 49.1398 192.439 49.1253 192.447 49.1123C192.455 49.0993 192.465 49.088 192.478 49.0793C192.49 49.0705 192.505 49.0643 192.52 49.0612C193.571 48.7976 194.645 48.633 195.727 48.5695C196.043 48.5317 196.364 48.5535 196.673 48.6336C196.742 48.6557 196.81 48.6825 196.876 48.7138C196.962 48.7528 197.051 48.7833 197.143 48.8046C197.348 48.8389 197.558 48.8389 197.763 48.8046C198.718 48.6529 199.683 48.5831 200.65 48.5962C200.679 48.5988 200.707 48.6121 200.728 48.6338C200.749 48.6554 200.761 48.6839 200.762 48.7138C200.762 48.729 200.759 48.744 200.753 48.758C200.747 48.772 200.738 48.7846 200.727 48.7951C200.716 48.8056 200.703 48.8138 200.689 48.8191C200.675 48.8244 200.659 48.8268 200.644 48.826C199.699 48.8104 198.755 48.8784 197.822 49.0291C197.583 49.0804 197.337 49.0894 197.095 49.0559C196.989 49.0299 196.885 48.9942 196.785 48.949L196.603 48.8795C196.321 48.8077 196.027 48.7896 195.737 48.826C194.656 48.8882 193.582 49.051 192.53 49.3124L192.546 49.2911Z" fill="white"/>
<path d="M205.14 48.8955C205.122 48.8992 205.105 48.8991 205.088 48.895C205.07 48.891 205.055 48.8832 205.041 48.8721C205.027 48.8611 205.016 48.8472 205.009 48.8313C205.001 48.8155 204.997 48.7982 204.997 48.7806C204.997 48.763 205.001 48.7457 205.009 48.7299C205.016 48.714 205.027 48.7001 205.041 48.689C205.055 48.678 205.07 48.6702 205.088 48.6662C205.105 48.6621 205.122 48.6619 205.14 48.6657C205.781 48.6657 206.433 48.6657 207.059 48.6657H207.107C211.698 48.6657 216.349 48.6657 220.935 48.6015C220.965 48.6029 220.994 48.6159 221.014 48.6378C221.035 48.6597 221.047 48.6888 221.047 48.7191C221.047 48.7489 221.035 48.7774 221.014 48.7985C220.993 48.8195 220.965 48.8314 220.935 48.8314C216.349 48.8848 211.693 48.9062 207.101 48.8955H207.053C206.428 48.8955 205.776 48.8955 205.14 48.8955Z" fill="white"/>
<g opacity="0.1">
<path d="M220.25 77.6315C220.25 78.9144 219.363 80.0957 219.123 81.309C218.882 82.5224 219.24 83.9817 218.764 85.1309C218.289 86.2801 217.006 87.0498 216.311 88.0921C215.616 89.1345 215.402 90.5991 214.51 91.4864C213.617 92.3737 212.163 92.5554 211.115 93.2824C210.068 94.0093 209.33 95.2494 208.16 95.7358C206.989 96.2222 205.583 95.8481 204.332 96.094C203.082 96.3398 201.943 97.2218 200.66 97.2218C199.377 97.2218 198.201 96.3345 196.988 96.094C195.775 95.8534 194.315 96.2116 193.161 95.7358C192.006 95.2601 191.242 93.9772 190.205 93.2824C189.168 92.5875 187.698 92.3737 186.811 91.4864C185.923 90.5991 185.71 89.1398 185.009 88.0921C184.309 87.0445 183.042 86.3015 182.561 85.1309C182.08 83.9603 182.444 82.5545 182.198 81.309C181.952 80.0636 181.075 78.9144 181.075 77.6315C181.075 76.3487 181.957 75.1727 182.198 73.9593C182.438 72.746 182.085 71.2867 182.561 70.1375C183.037 68.9883 184.314 68.2186 185.009 67.1762C185.704 66.1339 185.923 64.6693 186.811 63.782C187.698 62.8947 189.157 62.6862 190.205 61.9807C191.253 61.2751 191.996 60.019 193.161 59.5325C194.326 59.0461 195.737 59.4203 196.988 59.1744C198.239 58.9285 199.377 58.0519 200.66 58.0519C201.943 58.0519 203.124 58.9392 204.332 59.1798C205.54 59.4203 207.005 59.0622 208.16 59.5379C209.314 60.0136 210.078 61.2911 211.121 61.9913C212.163 62.6916 213.622 62.9 214.515 63.7873C215.408 64.6747 215.611 66.1339 216.311 67.1816C217.011 68.2292 218.278 68.9722 218.764 70.1428C219.251 71.3134 218.877 72.7192 219.123 73.9647C219.368 75.2101 220.25 76.354 220.25 77.6315Z" fill="white"/>
</g>
<path d="M152.767 100.867H142.814C142.244 100.867 141.782 101.329 141.782 101.899V103.722C141.782 104.291 142.244 104.753 142.814 104.753H152.767C153.336 104.753 153.798 104.291 153.798 103.722V101.899C153.798 101.329 153.336 100.867 152.767 100.867Z" fill="#A23EB3"/>
<path d="M153.194 99.253H142.386C142.053 99.253 141.782 99.5234 141.782 99.857V100.263C141.782 100.597 142.053 100.867 142.386 100.867H153.194C153.528 100.867 153.798 100.597 153.798 100.263V99.857C153.798 99.5234 153.528 99.253 153.194 99.253Z" fill="white"/>
<path d="M187.891 106.164H186.276V191.025H187.891V106.164Z" fill="#263238"/>
<path d="M189.312 164.615H184.854C184.353 164.615 183.946 165.021 183.946 165.523V166.688C183.946 167.19 184.353 167.597 184.854 167.597H189.312C189.814 167.597 190.221 167.19 190.221 166.688V165.523C190.221 165.021 189.814 164.615 189.312 164.615Z" fill="#263238"/>
<path d="M171.112 191.031H169.498L186.276 166.106H187.891L171.112 191.031Z" fill="#263238"/>
<path d="M203.055 191.031H204.669L187.891 166.106H186.276L203.055 191.031Z" fill="#263238"/>
<path d="M238.932 32.3146H135.235C135.032 32.3146 134.837 32.2341 134.694 32.0907C134.551 31.9474 134.47 31.7529 134.47 31.5502C134.472 31.3484 134.553 31.1554 134.696 31.0132C134.839 30.871 135.033 30.7912 135.235 30.7912H238.932C239.133 30.7912 239.327 30.8712 239.469 31.0135C239.611 31.1559 239.691 31.3489 239.691 31.5502C239.692 31.6503 239.673 31.7496 239.635 31.8423C239.597 31.935 239.541 32.0193 239.471 32.0904C239.4 32.1614 239.316 32.2178 239.224 32.2563C239.131 32.2948 239.032 32.3146 238.932 32.3146Z" fill="#E0E0E0"/>
<path d="M243.048 104.753H131.119L133.727 107.581H240.439L243.048 104.753Z" fill="#E0E0E0"/>
<path d="M106.813 129.261H55.5044V130.517H106.813V129.261Z" fill="#A23EB3"/>
<path d="M106.814 129.261H93.21V130.517H106.814V129.261Z" fill="#263238"/>
<path d="M85.8656 192.928H85.0905L81.8513 159.761C81.5841 157.008 79.7881 154.95 77.6874 154.95H71.3052C69.1671 154.95 67.4085 157.024 67.1412 159.761L63.902 192.928H63.127L66.3769 159.611C66.6922 156.356 68.8089 153.897 71.3052 153.897H77.6874C80.1783 153.897 82.3003 156.356 82.6157 159.611L85.8656 192.928Z" fill="#263238"/>
<path d="M61.7211 192.928H60.9353L57.7282 159.761C57.4609 157.008 55.6703 154.95 53.5642 154.95H47.1606C45.0546 154.95 43.264 157.024 42.9967 159.761L39.7575 192.928H38.9824L42.227 159.611C42.5423 156.356 44.6644 153.897 47.1553 153.897H53.5375C56.0337 153.897 58.1504 156.356 58.4658 159.611L61.7211 192.928Z" fill="#263238"/>
<path d="M58.2629 86.1304C58.3805 86.4618 58.6531 86.665 58.8776 86.6115C59.1021 86.558 59.1823 86.216 59.0647 85.8792C58.9471 85.5425 58.6745 85.3447 58.4553 85.3981C58.2362 85.4516 58.1293 85.7937 58.2629 86.1304Z" fill="#263238"/>
<path d="M58.5674 86.3817C59.2571 87.1097 60.0409 87.7424 60.8979 88.2632C60.7583 88.4724 60.5743 88.6484 60.3591 88.7786C60.1439 88.9089 59.9026 88.9902 59.6525 89.0169L58.5674 86.3817Z" fill="#ED893E"/>
<path d="M56.8357 85.0507C56.8005 85.0589 56.764 85.0589 56.7288 85.0507C56.7019 85.0462 56.6762 85.0364 56.6532 85.0217C56.6302 85.0071 56.6104 84.988 56.5949 84.9656C56.5795 84.9431 56.5687 84.9178 56.5632 84.8911C56.5577 84.8644 56.5577 84.8369 56.5631 84.8102C56.6127 84.4869 56.741 84.1809 56.9368 83.9189C57.1325 83.657 57.3897 83.4473 57.6856 83.3081C57.7353 83.2936 57.7885 83.2981 57.8351 83.3207C57.8816 83.3433 57.9181 83.3824 57.9374 83.4304C57.9568 83.4783 57.9575 83.5318 57.9397 83.5803C57.9218 83.6289 57.8865 83.669 57.8406 83.693C57.6105 83.8073 57.4112 83.9753 57.2596 84.1828C57.108 84.3902 57.0084 84.631 56.9693 84.885C56.9635 84.9219 56.9481 84.9566 56.9246 84.9856C56.9012 85.0147 56.8705 85.0371 56.8357 85.0507Z" fill="#263238"/>
<path d="M47.9092 91.3367L51.3408 94.5866L55.8896 97.1416C55.7293 97.2913 55.7881 98.3069 55.8522 98.8147C55.8704 99.3694 56.0608 99.9047 56.397 100.346C56.7332 100.788 57.1985 101.114 57.7284 101.279C58.2629 101.509 58.7974 101.813 58.899 102.316C59.0059 102.936 58.5515 103.706 56.0072 104.074C53.567 104.402 51.0837 104.052 48.8286 103.064C47.7595 102.626 47.9413 102.145 48.2085 101.129C48.8927 98.5367 48.7377 93.9612 47.9092 91.3367Z" fill="#FFB573"/>
<path d="M46.5405 102.316C47.076 100.958 47.5102 99.5629 47.8394 98.1412C47.8394 98.1412 54.7882 97.6334 57.1027 98.5421C59.4172 99.4508 60.8444 103.39 60.8444 103.39L46.5405 102.316Z" fill="#263238"/>
<path d="M47.1501 89.5033C48.7911 93.4213 49.5502 95.7946 52.2762 97.1096C56.376 99.0873 60.6522 95.4472 60.2086 91.1015C59.8077 87.1888 57.1938 81.448 52.7252 81.2877C51.7353 81.2573 50.7538 81.4774 49.8717 81.9276C48.9897 82.3779 48.2356 83.0436 47.6795 83.8631C47.1234 84.6825 46.7833 85.6292 46.6908 86.6152C46.5982 87.6012 46.7562 88.5946 47.1501 89.5033Z" fill="#FFB573"/>
<path d="M55.4031 89.3002C56.9479 87.5362 55.8735 84.4895 54.5051 83.2975C55.8308 83.2494 59.2624 82.95 58.2468 79.9941C57.2312 77.0382 53.698 76.6908 52.6717 78.15C49.7532 76.5464 46.2574 77.9362 47.0967 80.1652C43.665 79.6306 42.6815 83.0356 44.098 84.4093C42.2966 85.9113 41.6499 88.8672 44.0071 89.9844C46.3644 91.1015 46.4125 93.8864 48.8178 95.3296C51.2232 96.7728 56.7341 94.314 55.4031 89.3002Z" fill="#263238"/>
<path d="M53.4198 89.8935C53.9293 90.694 54.7148 91.2798 55.6274 91.5398C56.8087 91.8552 57.3806 90.5456 56.9423 89.4017C56.5468 88.3968 55.3388 87.2636 54.2163 87.4293C53.0938 87.595 52.7891 88.8939 53.4198 89.8935Z" fill="#FFB573"/>
<path d="M49.8012 107.549L46.3268 114.498C45.7442 115.658 45.1776 116.812 44.627 117.972C44.0765 119.132 43.5259 120.27 43.0502 121.404C42.7936 121.976 42.5798 122.521 42.35 123.082L42.056 123.878L42.0186 123.98V124.028V124.055V124.001C42.0726 123.778 42.096 123.547 42.088 123.317C42.0938 123.148 42.0609 122.98 41.9918 122.825C41.9491 122.751 41.9918 122.895 42.0239 123.066C42.0955 123.281 42.183 123.49 42.2858 123.691C42.5157 124.156 42.8203 124.659 43.109 125.177C44.3651 127.251 45.8992 129.454 47.289 131.634L47.3264 131.688C47.5809 132.088 47.6908 132.564 47.6377 133.035C47.5847 133.507 47.372 133.946 47.0349 134.28C46.6978 134.614 46.2566 134.823 45.7846 134.871C45.3125 134.92 44.8381 134.806 44.4399 134.548C43.267 133.797 42.1407 132.976 41.0671 132.089C39.9643 131.2 38.9181 130.243 37.9348 129.224C37.3981 128.675 36.8964 128.093 36.4328 127.481C36.1657 127.137 35.916 126.781 35.6844 126.412C35.3747 125.909 35.127 125.371 34.9468 124.809C34.7948 124.333 34.7102 123.838 34.6956 123.339C34.6863 122.941 34.7294 122.544 34.8239 122.157L34.9094 121.815L35.1927 120.709C35.4065 120.019 35.6043 119.303 35.8395 118.645C36.2938 117.293 36.7909 116.01 37.2934 114.727C37.7958 113.445 38.3624 112.199 38.8969 110.986C40.0301 108.506 41.2007 106.106 42.537 103.7C43.0453 102.734 43.9165 102.009 44.959 101.686C46.0015 101.362 47.13 101.465 48.0961 101.974C49.0622 102.482 49.7869 103.353 50.1107 104.396C50.4344 105.438 50.3308 106.567 49.8226 107.533L49.8012 107.549Z" fill="#FFB573"/>
<path d="M47.1018 100.584C51.5811 100.744 53.6176 104.096 49.9027 110.061C46.6955 115.187 46.2733 115.294 46.2733 115.294L38.1646 111.274C40.8906 106.084 42.5209 100.413 47.1018 100.584Z" fill="#A23EB3"/>
<g opacity="0.3">
<path d="M47.1018 100.584C51.5811 100.744 53.6176 104.096 49.9027 110.061C46.6955 115.187 46.2733 115.294 46.2733 115.294L38.1646 111.274C40.8906 106.084 42.5209 100.413 47.1018 100.584Z" fill="black"/>
</g>
<path d="M49.4323 132.565L48.978 132.057C47.5775 130.758 46.9788 130.918 45.3753 130.918L43.4136 132.388C44.6002 135.649 47.0002 135.504 47.0002 135.504L47.6951 136.151C47.8478 136.292 48.0331 136.393 48.2344 136.445C48.4358 136.497 48.6468 136.498 48.8487 136.448C49.0505 136.399 49.2369 136.299 49.391 136.16C49.5451 136.02 49.6621 135.845 49.7316 135.649L49.9348 135.071C50.0819 134.647 50.113 134.19 50.0246 133.75C49.9363 133.309 49.7318 132.9 49.4323 132.565Z" fill="#FFB573"/>
<path d="M96.4544 181.11L100.287 178.956L96.2085 169.618L92.376 171.766L96.4544 181.11Z" fill="#FFB573"/>
<path opacity="0.2" d="M94.3537 176.294L98.245 174.284L96.2085 169.618L92.376 171.766L94.3537 176.294Z" fill="black"/>
<path d="M99.7902 176.994L94.8726 177.342C94.7894 177.346 94.7111 177.382 94.6543 177.443C94.5974 177.504 94.5664 177.584 94.5679 177.668L94.6053 181.57C94.6204 181.774 94.715 181.965 94.8688 182.101C95.0227 182.237 95.2235 182.307 95.4285 182.297C97.1336 182.147 97.8285 181.719 99.972 181.415C101.292 181.222 104.462 181.04 106.242 180.549C108.022 180.057 107.728 178.411 106.274 178.485C104.387 178.571 101.864 178.095 100.56 177.213C100.335 177.057 100.064 176.98 99.7902 176.994Z" fill="#263238"/>
<path d="M66.2808 136.354C66.2808 136.354 88.6666 135.018 90.5588 143.699C94.4074 161.338 98.1223 171.136 98.1223 171.136L92.1998 174.193C92.1998 174.193 83.4764 161.974 80.9053 149.455C71.7864 148.087 55.8469 152.914 52.0411 146.067C48.6736 140.026 51.6295 135.686 51.6295 135.686L66.2808 136.354Z" fill="#263238"/>
<path d="M92.3118 175.786L99.2071 172.445L98.4321 169.618L90.8525 173.178L92.3118 175.786Z" fill="#A23EB3"/>
<path d="M101.394 177.652C101 177.667 100.606 177.642 100.218 177.577C100.198 177.574 100.179 177.566 100.163 177.552C100.148 177.539 100.137 177.521 100.132 177.502C100.127 177.482 100.128 177.462 100.135 177.443C100.141 177.424 100.153 177.407 100.17 177.395C100.303 177.288 101.479 176.353 102.03 176.524C102.092 176.544 102.148 176.58 102.193 176.627C102.238 176.675 102.27 176.733 102.286 176.796C102.323 176.89 102.334 176.992 102.319 177.091C102.304 177.19 102.263 177.284 102.201 177.363C101.975 177.553 101.689 177.655 101.394 177.652ZM100.485 177.406C101.281 177.507 101.853 177.443 102.046 177.224C102.086 177.172 102.111 177.111 102.12 177.046C102.128 176.981 102.119 176.915 102.094 176.855C102.085 176.825 102.07 176.797 102.048 176.774C102.027 176.751 102 176.733 101.971 176.722C101.672 176.631 100.971 177.048 100.49 177.406H100.485Z" fill="#A23EB3"/>
<path d="M100.239 177.577C100.223 177.582 100.206 177.582 100.191 177.577C100.175 177.57 100.162 177.56 100.151 177.547C100.141 177.534 100.134 177.518 100.132 177.502C100.132 177.448 99.9342 176.198 100.346 175.738C100.399 175.68 100.465 175.635 100.538 175.605C100.611 175.576 100.689 175.563 100.768 175.567C100.856 175.564 100.942 175.591 101.014 175.642C101.085 175.693 101.138 175.766 101.164 175.85C101.297 176.321 100.709 177.277 100.292 177.571C100.275 177.579 100.257 177.58 100.239 177.577ZM100.715 175.759C100.674 175.762 100.634 175.773 100.597 175.791C100.56 175.809 100.527 175.835 100.501 175.866C100.255 176.139 100.271 176.86 100.308 177.277C100.695 176.916 100.93 176.421 100.966 175.893C100.966 175.834 100.912 175.77 100.763 175.759H100.715Z" fill="#A23EB3"/>
<path d="M71.1929 189.117L75.5439 188.909L76.2548 178.635L71.9038 178.844L71.1929 189.117Z" fill="#FFB573"/>
<path d="M75.9823 187.53L71.0593 187.375C70.9768 187.37 70.8958 187.398 70.833 187.451C70.7703 187.505 70.7307 187.581 70.7226 187.663L70.3645 191.549C70.3602 191.651 70.376 191.753 70.411 191.848C70.446 191.944 70.4996 192.032 70.5686 192.107C70.6376 192.182 70.7207 192.242 70.8132 192.285C70.9056 192.328 71.0056 192.352 71.1074 192.356C72.8233 192.356 73.5449 192.164 75.7097 192.233C77.0407 192.276 79.4514 192.49 81.6964 192.49C83.9414 192.49 83.038 190.673 81.8407 190.502C79.9699 190.234 77.9387 188.834 76.7306 187.829C76.5224 187.647 76.2585 187.542 75.9823 187.53Z" fill="#263238"/>
<path d="M77.5058 188.342C77.112 188.317 76.7216 188.252 76.3405 188.15C76.321 188.144 76.3034 188.134 76.29 188.118C76.2767 188.103 76.2682 188.084 76.2657 188.064C76.2628 188.044 76.2659 188.024 76.2744 188.006C76.283 187.988 76.2967 187.973 76.3138 187.963C76.4528 187.872 77.725 187.059 78.2488 187.289C78.3089 187.315 78.3615 187.355 78.4017 187.406C78.4419 187.458 78.4684 187.519 78.4786 187.583C78.5057 187.677 78.5065 187.776 78.4811 187.87C78.4556 187.965 78.4049 188.05 78.3343 188.118C78.0968 188.295 77.8005 188.375 77.5058 188.342ZM76.6238 188.011C77.4042 188.187 77.9815 188.182 78.1953 187.984C78.2392 187.937 78.2702 187.879 78.2852 187.816C78.3002 187.753 78.2987 187.688 78.2809 187.626C78.2769 187.593 78.2645 187.562 78.2448 187.536C78.2251 187.51 78.1988 187.489 78.1686 187.476C77.896 187.353 77.1584 187.701 76.6345 188.011H76.6238Z" fill="#A23EB3"/>
<path d="M76.3722 188.15H76.3295C76.3135 188.142 76.3001 188.13 76.2906 188.114C76.2812 188.099 76.2761 188.082 76.276 188.064C76.276 188.011 76.2119 186.749 76.6716 186.332C76.7306 186.28 76.8005 186.241 76.8763 186.219C76.9521 186.197 77.0319 186.192 77.1099 186.204C77.1965 186.211 77.2785 186.246 77.3432 186.304C77.408 186.362 77.4518 186.439 77.468 186.525C77.5535 187.006 76.8693 187.904 76.3989 188.128C76.3916 188.137 76.3825 188.144 76.3722 188.15ZM77.0297 186.391C76.9466 186.389 76.8661 186.42 76.8052 186.477C76.5489 186.89 76.4327 187.376 76.4738 187.861C76.864 187.551 77.3237 186.867 77.2649 186.551C77.2649 186.493 77.2275 186.418 77.0778 186.396L77.0297 186.391Z" fill="#A23EB3"/>
<path opacity="0.2" d="M71.9039 178.849L76.2549 178.64L75.8433 184.515L71.5083 184.51L71.9039 178.849Z" fill="black"/>
<path d="M56.0391 135.889C56.0391 135.889 83.2143 140.951 82.6851 148.584C81.739 162.327 77.1314 181.965 77.1314 181.965L70.6048 182.056C70.6048 182.056 69.7122 161.632 70.5193 151.69C62.3678 151.69 46.3268 151.406 43.1891 147.21C39.7201 142.581 43.2853 135.307 43.2853 135.307L56.0391 135.889Z" fill="#263238"/>
<path d="M70.0545 183.237L78.2915 183.12L78.6817 180.442L69.7124 180.704L70.0545 183.237Z" fill="#A23EB3"/>
<path d="M61.876 100.889C59.2034 100.354 47.1659 100.52 47.1659 100.52C45.962 100.49 44.7904 100.912 43.8829 101.704C42.9754 102.496 42.3978 103.599 42.2644 104.796C41.8421 108.506 43.0875 116.721 43.1731 120.955C43.2746 126.15 43.3869 128.342 43.2853 135.333L71.3104 136.803C72.3794 124.06 68.2262 117.913 65.7513 105.234C65.3825 103.294 64.5433 101.407 61.876 100.889Z" fill="#A23EB3"/>
<path opacity="0.3" d="M61.876 100.889C59.2034 100.354 47.1659 100.52 47.1659 100.52C45.962 100.49 44.7904 100.912 43.8829 101.704C42.9754 102.496 42.3978 103.599 42.2644 104.796C41.8421 108.506 43.0875 116.721 43.1731 120.955C43.2746 126.15 43.3869 128.342 43.2853 135.333L71.3104 136.803C72.3794 124.06 68.2262 117.913 65.7513 105.234C65.3825 103.294 64.5433 101.407 61.876 100.889Z" fill="black"/>
<path d="M65.2864 104.988C66.5479 107.233 67.8468 109.591 69.1564 111.841C69.8031 112.98 70.4713 114.097 71.1448 115.187C71.8183 116.278 72.5132 117.325 73.2081 118.341L73.7426 119.062C73.919 119.308 74.09 119.501 74.2771 119.72L74.4054 119.886L74.4695 119.966L74.4268 119.923L74.3306 119.854C74.3306 119.854 74.3038 119.854 74.3306 119.886C74.4899 120.018 74.6577 120.139 74.833 120.249C75.7471 120.842 76.9337 121.446 78.0829 122.056C80.4134 123.269 82.8509 124.472 85.2135 125.797H85.2455C85.6855 126.026 86.0288 126.406 86.2132 126.866C86.3976 127.327 86.4108 127.838 86.2504 128.307C86.0901 128.777 85.7668 129.173 85.3392 129.425C84.9116 129.676 84.4081 129.766 83.9199 129.678C81.1418 129.348 78.3921 128.812 75.6936 128.074C74.2597 127.696 72.8525 127.223 71.4815 126.658C71.0458 126.47 70.6226 126.254 70.2147 126.011C70.1078 125.952 69.9528 125.846 69.8138 125.749L69.5947 125.589L69.3114 125.348L69.1724 125.225L69.0762 125.129L68.9693 125.022L68.7555 124.809C68.4829 124.525 68.1729 124.231 67.927 123.948L67.1626 123.093C65.3294 120.878 63.6455 118.544 62.122 116.107C60.6254 113.717 59.2463 111.355 57.9741 108.8C57.4987 107.84 57.4161 106.733 57.7438 105.713C58.0715 104.694 58.7836 103.842 59.7291 103.339C60.6746 102.836 61.7789 102.721 62.8075 103.019C63.8362 103.317 64.7081 104.004 65.2383 104.935L65.2864 104.988Z" fill="#FFB573"/>
<path d="M57.7709 103.529C60.1816 99.7555 64.105 99.702 67.3603 105.929C70.1558 111.274 70.0329 111.707 70.0329 111.707L62.4587 116.662C59.3585 111.681 55.3014 107.394 57.7709 103.529Z" fill="#A23EB3"/>
<g opacity="0.3">
<path d="M57.7709 103.529C60.1816 99.7555 64.105 99.702 67.3603 105.929C70.1558 111.274 70.0329 111.707 70.0329 111.707L62.4587 116.662C59.3585 111.681 55.3014 107.394 57.7709 103.529Z" fill="black"/>
</g>
<path d="M87.2128 125.477L86.55 125.354C84.6417 125.177 84.2729 125.674 83.0007 126.653L82.3433 129.015C85.2778 130.87 87.0898 129.288 87.0898 129.288L88.0359 129.379C88.2428 129.397 88.451 129.364 88.6418 129.282C88.8326 129.2 89 129.072 89.1289 128.909C89.2578 128.746 89.3441 128.554 89.38 128.35C89.416 128.145 89.4005 127.935 89.3348 127.738L89.1424 127.155C89.001 126.728 88.7472 126.347 88.4077 126.051C88.0682 125.756 87.6554 125.558 87.2128 125.477Z" fill="#FFB573"/>
<path d="M28.4257 132.997C27.9184 130.154 28.048 127.233 28.8052 124.445L29.3398 124.589C28.6054 127.299 28.4813 130.138 28.9763 132.901L28.4257 132.997Z" fill="#A23EB3"/>
<path d="M29.3351 135.089L28.8081 135.179L29.3176 138.172L29.8445 138.082L29.3351 135.089Z" fill="#A23EB3"/>
<path d="M83.7061 151.594L71.7541 151.118L68.6218 132.703C67.0183 123.216 58.7973 115.529 50.2823 115.529H42.7616C34.2466 115.529 28.6555 123.216 30.2698 132.703L32.4079 145.414C33.2043 150.118 37.2774 153.935 41.4948 153.935H88.8215C88.9212 153.922 89.0144 153.878 89.088 153.81C89.1616 153.742 89.212 153.652 89.2321 153.554C89.2521 153.455 89.2408 153.353 89.1998 153.261C89.1587 153.169 89.09 153.093 89.0032 153.042C87.3624 152.183 85.5555 151.689 83.7061 151.594Z" fill="#A23EB3"/>
<path d="M86.5231 153.512H82.728V152.534H86.5231C96.0644 152.534 103.831 143.859 103.831 133.195V129.892H104.809V133.195C104.809 144.399 96.6043 153.512 86.5231 153.512Z" fill="#263238"/>
<path d="M164.441 129.261H113.132V130.517H164.441V129.261Z" fill="#A23EB3"/>
<path d="M147.373 128.636H130.194V129.266H147.373V128.636Z" fill="#E0E0E0"/>
<path d="M164.441 129.261H150.837V130.517H164.441V129.261Z" fill="#263238"/>
<path d="M143.493 192.928H142.718L139.484 159.761C139.211 157.008 137.421 154.95 135.32 154.95H128.906C126.8 154.95 125.015 157.024 124.742 159.761L121.535 192.928H120.749L124.01 159.611C124.325 156.356 126.442 153.897 128.933 153.897H135.347C137.838 153.897 139.954 156.356 140.275 159.611L143.493 192.928Z" fill="#263238"/>
<path d="M119.348 192.928H118.573L115.334 159.761C115.067 157.008 113.276 154.95 111.17 154.95H104.767C102.661 154.95 100.87 157.024 100.603 159.761L97.3634 192.928H96.5884L99.8597 159.611C100.175 156.356 102.292 153.897 104.788 153.897H111.181C113.672 153.897 115.794 156.356 116.109 159.611L119.348 192.928Z" fill="#263238"/>
<path d="M108.439 116.149L107.407 123.734C107.081 126.262 106.744 128.791 106.498 131.276L106.418 132.201L106.381 132.666C106.388 132.59 106.388 132.513 106.381 132.436C106.369 132.364 106.351 132.292 106.327 132.222C106.297 132.13 106.254 132.042 106.199 131.96C106.119 131.859 106.108 131.875 106.13 131.896C106.175 131.946 106.227 131.989 106.285 132.025C106.474 132.157 106.674 132.273 106.883 132.372C107.957 132.866 109.067 133.279 110.203 133.607C112.576 134.344 115.067 134.943 117.526 135.558L117.248 137.696C114.618 137.611 111.998 137.339 109.406 136.883C108.033 136.652 106.683 136.295 105.376 135.814C104.991 135.664 104.617 135.486 104.259 135.28C104.037 135.155 103.826 135.012 103.628 134.852C103.348 134.634 103.103 134.374 102.901 134.083C102.759 133.866 102.644 133.633 102.559 133.388C102.514 133.24 102.478 133.09 102.452 132.939C102.442 132.784 102.442 132.628 102.452 132.474V131.971V130.972C102.559 128.331 102.799 125.749 103.077 123.173C103.355 120.596 103.681 118.036 104.088 115.47L108.439 116.149Z" fill="#FFC3BD"/>
<path d="M123.208 137.835L121.545 139.353C121.357 139.526 121.12 139.639 120.867 139.676C120.613 139.713 120.354 139.673 120.124 139.561L118.29 138.679C118.29 138.679 115.575 138.567 115.185 136.905L115.89 135.617L120.097 135.146C120.531 135.1 120.969 135.198 121.342 135.424L123.074 136.493C123.185 136.562 123.278 136.655 123.347 136.766C123.416 136.876 123.459 137.001 123.472 137.131C123.485 137.261 123.468 137.392 123.422 137.514C123.376 137.636 123.303 137.746 123.208 137.835Z" fill="#FFC3BD"/>
<path d="M113.277 100.563C113.704 103.166 114.068 107.923 112.208 109.591C115.14 111.225 117.703 113.449 119.734 116.123C122.941 113.6 120.268 109.831 120.268 109.831C117.403 109.056 117.542 106.918 118.103 104.924L113.277 100.563Z" fill="#FFC3BD"/>
<path d="M107.071 110.27C103.794 111.339 103.088 115.727 103.382 119.143L109.994 123.21C109.994 123.21 111.598 118.223 111.598 115.556C111.571 112.718 109.294 109.548 107.071 110.27Z" fill="#263238"/>
<path d="M127.89 116.652C127.618 120.393 126.779 126.749 124.715 137.413L107.012 136.878C107.477 130.341 106.777 125.471 105.173 114.033C105.107 113.538 105.142 113.035 105.273 112.553C105.405 112.072 105.632 111.622 105.94 111.229C106.248 110.837 106.632 110.51 107.068 110.268C107.505 110.026 107.986 109.874 108.482 109.821C109.615 109.703 110.909 109.607 112.223 109.58C114.898 109.471 117.578 109.551 120.241 109.821C121.107 109.927 121.995 110.061 122.844 110.205C124.337 110.458 125.682 111.259 126.616 112.452C127.549 113.644 128.003 115.142 127.89 116.652Z" fill="#263238"/>
<path d="M121.455 95.3082C121.562 95.6449 121.829 95.8427 122.048 95.7893C122.267 95.7358 122.358 95.3884 122.251 95.057C122.144 94.7255 121.877 94.5224 121.658 94.5759C121.439 94.6293 121.337 94.9768 121.455 95.3082Z" fill="#263238"/>
<path d="M121.567 94.624L122.294 94.1323C122.294 94.1323 122.085 94.8966 121.567 94.624Z" fill="#263238"/>
<path d="M121.679 95.816C122.222 96.4847 122.855 97.0747 123.561 97.5692C123.429 97.7465 123.261 97.8929 123.067 97.9982C122.873 98.1034 122.658 98.165 122.438 98.1786L121.679 95.816Z" fill="#ED847E"/>
<path d="M120.909 92.2935C120.927 92.2626 120.937 92.2276 120.937 92.1919C120.937 92.1563 120.927 92.1212 120.909 92.0904C120.876 92.0469 120.828 92.0181 120.774 92.0101C120.72 92.0021 120.665 92.0155 120.621 92.0476C120.352 92.2359 120.132 92.4862 119.98 92.7775C119.829 93.0687 119.75 93.3923 119.75 93.7207C119.75 93.7476 119.756 93.7741 119.768 93.7986C119.779 93.823 119.795 93.845 119.815 93.863C119.835 93.881 119.858 93.8947 119.884 93.9034C119.909 93.912 119.936 93.9153 119.963 93.9131C119.99 93.9124 120.017 93.9063 120.042 93.8951C120.067 93.8839 120.089 93.8679 120.107 93.848C120.126 93.828 120.14 93.8046 120.149 93.7791C120.159 93.7535 120.163 93.7264 120.161 93.6993C120.163 93.4393 120.229 93.1838 120.352 92.9547C120.475 92.7257 120.651 92.5299 120.867 92.3844C120.889 92.3588 120.904 92.3273 120.909 92.2935Z" fill="#263238"/>
<path d="M109.615 97.5372C111.219 101.567 111.753 103.305 114.533 104.748C118.681 106.918 123.283 104.096 122.941 99.6753C122.636 95.6984 120.108 89.7759 115.554 89.4338C114.548 89.3472 113.537 89.5209 112.618 89.9382C111.699 90.3554 110.903 91.0022 110.307 91.8163C109.71 92.6303 109.333 93.5842 109.212 94.5862C109.091 95.5881 109.23 96.6044 109.615 97.5372Z" fill="#FFC3BD"/>
<path d="M119.295 96.6071C120.076 96.3826 121.433 94.8271 119.065 91.6948C120.332 91.465 121.364 89.1398 117.889 87.8088C114.415 86.4779 110.625 87.1247 108.327 90.3104C108.327 90.3104 100.999 92.4752 106.969 100.017C112.94 107.559 120.519 104.486 119.295 96.6071Z" fill="#263238"/>
<path d="M105.611 90.305C105.61 90.5179 105.663 90.7276 105.765 90.9145C105.867 91.1014 106.015 91.2595 106.194 91.3741C106.538 91.6636 106.966 91.8345 107.415 91.8615C107.863 91.8884 108.309 91.77 108.685 91.5238C109.497 90.9893 110.238 90.3554 110.892 89.6369C111.086 89.4273 111.236 89.181 111.333 88.9127C111.43 88.6443 111.472 88.3593 111.457 88.0743C111.442 87.7894 111.37 87.5104 111.246 87.2536C111.121 86.9969 110.947 86.7676 110.732 86.5794C110.634 86.4972 110.531 86.4221 110.422 86.3549C110.422 86.3549 106.226 86.4779 105.611 90.305Z" fill="#A23EB3"/>
<path d="M106.205 89.8026C108.605 89.4177 109.882 87.4988 110.021 86.9269C109.487 85.5157 102.538 76.5464 96.6153 83.105C90.3614 90.0538 102.602 97.0401 98.2189 105.405C105.836 102.845 112.047 97.5746 106.205 89.8026Z" fill="#263238"/>
<path d="M117.563 97.441C117.971 98.2432 118.68 98.8507 119.536 99.13C120.669 99.4882 121.278 98.4833 120.995 97.3928C120.744 96.4093 119.851 95.0356 118.697 95.1532C118.445 95.1829 118.204 95.275 117.997 95.4211C117.79 95.5672 117.622 95.7627 117.51 95.9899C117.397 96.2171 117.343 96.4688 117.353 96.7222C117.362 96.9756 117.434 97.2226 117.563 97.441Z" fill="#FFC3BD"/>
<path d="M146.209 186.134L150.389 185.739L147.572 175.444L143.392 175.84L146.209 186.134Z" fill="#FFC3BD"/>
<path d="M156.022 188.556C153.467 187.802 153.547 186.68 150.998 184.606C150.743 184.376 150.424 184.23 150.084 184.189L145.925 183.9C145.845 183.901 145.767 183.93 145.706 183.983C145.645 184.036 145.605 184.109 145.594 184.189L145.006 187.07C144.803 188.069 145.417 189.026 146.283 189.058C147.668 189.112 149.368 189.165 150.88 189.267C153.088 189.422 153.115 190.539 155.691 190.416C157.278 190.341 156.894 188.812 156.022 188.556Z" fill="#263238"/>
<path d="M161.763 172.889L164.596 170.43L159.855 163.23L156.311 166.587L161.763 172.889Z" fill="#FFC3BD"/>
<path d="M163.837 168.907L160.459 172.034C160.394 172.094 160.353 172.176 160.343 172.264C160.332 172.352 160.352 172.44 160.4 172.515L162.004 174.995C162.141 175.188 162.317 175.35 162.522 175.469C162.726 175.589 162.953 175.664 163.189 175.689C163.424 175.715 163.662 175.69 163.888 175.616C164.113 175.542 164.319 175.422 164.494 175.262C165.601 174.407 166.226 172.905 167.536 171.676C169.444 169.89 169.786 169.938 170.968 167.442C171.769 165.764 170.021 165.758 169.407 166.277C167.862 167.592 168.471 167.645 164.874 168.415C164.49 168.481 164.131 168.651 163.837 168.907Z" fill="#263238"/>
<path d="M118.542 137.108C118.542 137.108 147.203 132.864 150.169 140.214C155.333 152.994 162.805 167.394 162.805 167.394L159.438 170.484C159.438 170.484 146.609 158.986 142.162 146.141C136.854 147.863 119.958 153.39 113.768 153.39C107.162 153.39 104.462 147.756 106.851 138.423C106.955 138.017 107.192 137.657 107.525 137.401C107.857 137.145 108.266 137.008 108.685 137.012C112.844 137.012 118.542 137.108 118.542 137.108Z" fill="#A23EB3"/>
<path opacity="0.5" d="M118.542 137.108C118.542 137.108 147.203 132.864 150.169 140.214C155.333 152.994 162.805 167.394 162.805 167.394L159.438 170.484C159.438 170.484 146.609 158.986 142.162 146.141C136.854 147.863 119.958 153.39 113.768 153.39C107.162 153.39 104.462 147.756 106.851 138.423C106.955 138.017 107.192 137.657 107.525 137.401C107.857 137.145 108.266 137.008 108.685 137.012C112.844 137.012 118.542 137.108 118.542 137.108Z" fill="white"/>
<path d="M121.289 140.839C121.289 140.839 144.808 140.128 145.011 148.461C145.337 162.247 149.565 181.96 149.565 181.96L144.931 182.393C144.931 182.393 137.907 166.683 136.063 153.197C127.682 153.732 119.958 153.368 113.768 153.368C106.819 153.368 106.285 145.751 113.014 136.867C117.141 136.889 121.289 140.839 121.289 140.839Z" fill="#A23EB3"/>
<path opacity="0.5" d="M121.289 140.839C121.289 140.839 144.808 140.128 145.011 148.461C145.337 162.247 149.565 181.96 149.565 181.96L144.931 182.393C144.931 182.393 137.907 166.683 136.063 153.197C127.682 153.732 119.958 153.368 113.768 153.368C106.819 153.368 106.285 145.751 113.014 136.867C117.141 136.889 121.289 140.839 121.289 140.839Z" fill="white"/>
<path d="M106.782 135.841L106.279 137.413C106.215 137.536 106.354 137.664 106.563 137.669L124.779 138.204C124.94 138.204 125.073 138.134 125.089 138.038L125.292 136.434C125.292 136.328 125.175 136.226 124.998 136.221L107.071 135.686C107.013 135.682 106.955 135.694 106.904 135.722C106.852 135.749 106.81 135.79 106.782 135.841Z" fill="white"/>
<path d="M109.129 137.915H108.647C108.551 137.915 108.482 137.862 108.487 137.797L108.776 135.745C108.776 135.686 108.867 135.638 108.963 135.643H109.444C109.54 135.643 109.61 135.697 109.604 135.756L109.316 137.808C109.31 137.872 109.225 137.92 109.129 137.915Z" fill="#263238"/>
<path d="M123.427 138.343H122.946C122.85 138.343 122.78 138.289 122.785 138.23L123.074 136.178C123.074 136.119 123.165 136.071 123.261 136.071H123.742C123.838 136.071 123.908 136.124 123.903 136.189L123.614 138.236C123.609 138.3 123.523 138.343 123.427 138.343Z" fill="#263238"/>
<path d="M116.275 138.129H115.8C115.703 138.129 115.629 138.075 115.639 138.017L115.922 135.964C115.922 135.905 116.019 135.857 116.115 135.863H116.596C116.692 135.863 116.762 135.921 116.751 135.98L116.468 138.033C116.457 138.086 116.372 138.134 116.275 138.129Z" fill="#263238"/>
<path d="M128.564 118.683C128.633 119.062 128.735 119.554 128.826 119.993C128.917 120.431 129.029 120.901 129.147 121.35C129.376 122.248 129.633 123.141 129.922 124.023C130.212 124.878 130.546 125.719 130.921 126.54C131.284 127.321 131.711 128.071 132.199 128.78L132.284 128.914L132.252 128.871C132.23 128.845 132.205 128.822 132.177 128.801C132.133 128.758 132.085 128.718 132.033 128.684C131.902 128.589 131.75 128.526 131.589 128.502C131.445 128.502 131.525 128.502 131.643 128.502C132.008 128.464 132.367 128.381 132.712 128.256C133.579 127.957 134.428 127.609 135.256 127.214C136.983 126.407 138.741 125.498 140.468 124.595L141.724 126.369C140.203 127.736 138.583 128.986 136.876 130.111C135.983 130.704 135.049 131.231 134.08 131.688C133.508 131.959 132.908 132.166 132.29 132.303C131.821 132.405 131.337 132.42 130.862 132.345C130.457 132.276 130.073 132.119 129.735 131.886C129.632 131.815 129.536 131.736 129.446 131.65L129.312 131.511L129.211 131.405L129.077 131.234C127.683 129.514 126.586 127.574 125.833 125.493C125.456 124.5 125.133 123.489 124.865 122.462C124.731 121.927 124.614 121.436 124.502 120.917C124.389 120.399 124.304 119.902 124.224 119.314L128.564 118.683Z" fill="#FFC3BD"/>
<path d="M126.436 112.247C129.537 114.637 129.537 121.66 129.537 121.66L124.191 123.141C124.191 123.141 120.348 118.485 121.321 116.278C122.342 113.979 124.763 110.97 126.436 112.247Z" fill="#263238"/>
<path d="M145.038 124.472C144.991 124.47 144.945 124.457 144.904 124.433C144.864 124.408 144.831 124.374 144.808 124.333L140.58 116.235C140.564 116.205 140.555 116.172 140.552 116.138C140.549 116.104 140.553 116.07 140.563 116.038C140.574 116.005 140.59 115.975 140.613 115.95C140.635 115.924 140.662 115.903 140.692 115.887C140.752 115.857 140.822 115.851 140.887 115.871C140.952 115.891 141.007 115.935 141.039 115.994L145.273 124.092C145.288 124.122 145.298 124.155 145.301 124.189C145.304 124.223 145.3 124.257 145.289 124.289C145.279 124.322 145.262 124.352 145.24 124.378C145.218 124.403 145.191 124.424 145.161 124.44C145.123 124.461 145.081 124.472 145.038 124.472Z" fill="#263238"/>
<path d="M143.252 119.864L141.649 120.848C141.244 121.096 140.934 121.472 140.767 121.917L139.27 125.819L138.581 128.299C140.184 128.876 143.092 125.092 143.092 125.092L144.92 123.718C145.065 123.608 145.175 123.457 145.234 123.285C145.293 123.113 145.299 122.927 145.251 122.751L144.626 120.42C144.591 120.28 144.524 120.149 144.429 120.04C144.335 119.931 144.215 119.845 144.081 119.791C143.947 119.737 143.802 119.715 143.658 119.728C143.514 119.741 143.375 119.787 143.252 119.864Z" fill="#FFC3BD"/>
<path d="M141.334 151.594L129.355 151.102L126.223 132.687C124.619 123.2 116.403 115.513 107.888 115.513H100.389C91.8741 115.513 86.2829 123.2 87.8972 132.687L90.0353 145.398C90.8371 150.102 94.9102 153.919 99.1222 153.919H146.46C146.559 153.905 146.651 153.861 146.724 153.792C146.797 153.723 146.847 153.634 146.866 153.535C146.886 153.437 146.874 153.335 146.833 153.244C146.791 153.153 146.723 153.076 146.636 153.026C144.993 152.171 143.184 151.683 141.334 151.594Z" fill="#A23EB3"/>
<path d="M144.151 153.512H140.355V152.534H144.151C153.692 152.534 161.458 143.859 161.458 133.195V129.892H162.431V133.195C162.431 144.399 154.232 153.512 144.151 153.512Z" fill="#263238"/>
<path d="M203.29 182.04L210.137 180.586L211.425 188.764L205.706 189.988L203.29 182.04Z" fill="#B55B52"/>
<path opacity="0.2" d="M203.29 182.04L210.143 180.586L210.864 185.167L204.642 186.493L203.29 182.04Z" fill="black"/>
<path d="M207.395 150.872C209.672 140.267 214.381 129.197 209.928 119.095L190.386 119.03C190.386 119.03 191.878 142.255 192.562 152.043C193.278 162.199 203.584 185.274 203.584 185.274L211.414 183.553C211.414 183.553 209.185 162.231 207.395 150.872Z" fill="#263238"/>
<path opacity="0.2" d="M207.598 149.862C208.999 143.725 211.083 137.445 211.628 131.308C204.22 123.226 205.155 139.706 207.598 149.862Z" fill="black"/>
<path d="M212.986 191.036L211.185 191.437L210.65 190.902L209.993 191.688L206.673 193.126C205.457 193.655 204.146 193.928 202.82 193.928H200.093C200.053 193.2 200.204 192.473 200.532 191.822C200.532 191.822 203.162 191.362 204.519 189.176C204.611 189.06 204.729 188.968 204.864 188.908C204.999 188.849 205.147 188.823 205.294 188.834C206.551 188.802 209.854 188.615 211.5 187.535C211.539 187.512 211.583 187.498 211.628 187.495C211.673 187.492 211.718 187.5 211.76 187.518C211.802 187.535 211.838 187.563 211.868 187.597C211.897 187.632 211.917 187.673 211.928 187.717C212.191 188.85 212.545 189.96 212.986 191.036Z" fill="#263238"/>
<path d="M219.154 183.05L226.162 183.12L226.467 191.383L220.614 191.335L219.154 183.05Z" fill="#B55B52"/>
<path opacity="0.2" d="M219.154 183.056L226.167 183.12L226.338 187.749L219.972 187.695L219.154 183.056Z" fill="black"/>
<path d="M226.777 150.872C227.343 140.267 228.113 124.397 224.558 119.522L202.734 119.03C202.734 119.03 208.801 142.255 211.067 152.043C213.419 162.199 219.192 186.252 219.192 186.252H226.766C226.766 186.252 229.626 162.979 226.777 150.872Z" fill="#263238"/>
<path d="M199.115 87.5523L198.789 87.8409L198.543 88.0494L198.067 88.4289C197.757 88.6641 197.447 88.8832 197.132 89.097C196.517 89.5181 195.878 89.9036 195.218 90.2516C193.909 90.9534 192.534 91.5246 191.113 91.9567C190.402 92.1759 189.67 92.3523 188.938 92.4913C188.205 92.6302 187.457 92.7372 186.709 92.812C185.209 92.9529 183.698 92.9332 182.203 92.7532L181.636 92.6837C181.113 92.6208 180.612 92.4379 180.172 92.1492C178.943 91.3361 177.846 90.3412 176.916 89.1986C176.109 88.2107 175.394 87.1516 174.778 86.0342C174.201 84.9836 173.697 83.8941 173.271 82.7736C173.062 82.2391 172.881 81.6618 172.704 81.1006C172.528 80.5393 172.405 79.9888 172.261 79.3366C172.138 78.7932 172.195 78.2246 172.422 77.7161C172.65 77.2076 173.036 76.7866 173.523 76.5162C174.011 76.2459 174.572 76.1407 175.124 76.2165C175.676 76.2923 176.189 76.545 176.585 76.9366L176.852 77.2039C177.162 77.5139 177.526 77.9255 177.862 78.2729C178.199 78.6204 178.552 79.0106 178.889 79.3741C179.578 80.0957 180.252 80.7959 180.941 81.4266C181.575 82.0561 182.252 82.6402 182.967 83.1745C183.506 83.5831 184.098 83.9175 184.726 84.1687L182.7 83.5754C183.582 83.5154 184.457 83.3867 185.319 83.1906C186.182 82.9859 187.028 82.7198 187.853 82.3941C188.685 82.0538 189.495 81.6629 190.279 81.2235C190.675 81.0044 191.054 80.7638 191.423 80.534C191.61 80.4164 191.787 80.2934 191.958 80.1812L192.198 80.0155L192.295 79.946H192.332H192.3C193.311 79.043 194.64 78.5787 195.994 78.6554C197.348 78.7321 198.616 79.3434 199.519 80.3549C200.422 81.3664 200.886 82.6952 200.809 84.049C200.733 85.4027 200.121 86.6706 199.11 87.5737L199.115 87.5523Z" fill="#B65B52"/>
<path d="M173.667 80.4484L175.703 78.3104C176.906 75.456 172.966 74.542 172.966 74.542L170.513 72.7513C170.196 72.5599 169.822 72.4866 169.456 72.5443C169.09 72.602 168.756 72.787 168.514 73.0667L167.081 74.5527C166.923 74.6926 166.795 74.8622 166.703 75.0519C166.611 75.2416 166.557 75.4476 166.544 75.6581C166.532 75.8686 166.561 76.0795 166.63 76.2788C166.7 76.478 166.807 76.6616 166.948 76.819L168.995 78.6845C169.374 79.0587 169.841 79.3324 170.353 79.481L173.667 80.4484Z" fill="#B55B52"/>
<path d="M201.398 75.8676C196.662 75.5896 189.724 81.0364 189.724 81.0364C189.066 82.8485 190.686 89.5888 193.583 92.5287C193.583 92.5287 196.908 93.3198 199.815 89.8133C202.98 85.9915 206.417 76.1562 201.398 75.8676Z" fill="#A23EB3"/>
<path d="M202.339 75.6912C208.821 75.077 215.352 75.181 221.811 76.0012C222.696 76.1318 223.544 76.4417 224.304 76.9118C225.064 77.3819 225.721 78.0023 226.233 78.735C226.745 79.4677 227.102 80.2972 227.282 81.1728C227.462 82.0483 227.461 82.9514 227.279 83.8266C224.254 99.0713 226.515 116.09 224.559 119.501C224.559 119.501 202.959 119.875 190.349 119.009C186.902 102.439 193.685 92.3309 197.09 79.4061C197.694 77.2199 200.067 75.9531 202.339 75.6912Z" fill="#A23EB3"/>
<path d="M228.84 81.9879L229.321 82.5919L229.749 83.1264C230.021 83.4899 230.283 83.8641 230.54 84.2329C231.074 84.9705 231.545 85.7349 232.015 86.5046C232.968 88.075 233.807 89.7112 234.527 91.4008C235.306 93.186 235.897 95.0472 236.291 96.9545C236.758 99.0987 236.836 101.309 236.521 103.481L236.457 103.919C236.4 104.279 236.279 104.624 236.099 104.94C235.46 106.057 234.746 107.129 233.961 108.147C233.21 109.122 232.405 110.053 231.55 110.938C230.7 111.804 229.829 112.627 228.909 113.402C227.982 114.188 227.005 114.915 225.986 115.577C225.509 115.891 224.942 116.039 224.372 115.998C223.803 115.956 223.263 115.728 222.836 115.349C222.41 114.969 222.121 114.459 222.013 113.899C221.906 113.338 221.987 112.757 222.244 112.247L222.361 112.039C222.821 111.119 223.377 110.141 223.874 109.2C224.371 108.26 224.884 107.319 225.355 106.384C225.825 105.448 226.269 104.523 226.702 103.625C227.135 102.727 227.466 101.819 227.798 100.953L227.375 102.407C227.349 101.334 227.169 100.27 226.841 99.2477C226.653 98.638 226.433 98.0386 226.183 97.4517C225.937 96.8423 225.649 96.2222 225.344 95.6022C224.719 94.3674 224.019 93.1167 223.249 91.8926C222.875 91.2726 222.463 90.6685 222.067 90.0645L221.458 89.1719L220.897 88.3754L220.71 88.1082C219.92 87.0244 219.588 85.6733 219.787 84.347C219.985 83.0206 220.697 81.8256 221.769 81.0202C222.842 80.2147 224.188 79.8636 225.517 80.0427C226.846 80.2218 228.051 80.9167 228.872 81.9772L228.84 81.9879Z" fill="#B65B52"/>
<path d="M223.489 76.493C227.958 78.0966 232.17 85.6547 232.17 85.6547C231.983 88.4075 227.6 94.6401 224.5 96.0031C222.336 94.149 220.733 91.7276 219.871 89.0115C218.449 84.2436 221.191 77.1772 223.489 76.493Z" fill="#A23EB3"/>
<path d="M205.406 76.8351C205.834 76.0146 206.525 75.3615 207.368 74.9803C207.686 74.1586 207.711 73.2523 207.438 72.4146L217.016 69.3625C216.241 72.5322 215.632 75.0391 216.813 76.5785C214.926 77.7331 211.468 79.7857 207.726 79.6895C203.985 79.5932 204.792 78.1661 205.406 76.8351Z" fill="#B55B52"/>
<path opacity="0.2" d="M207.513 72.7139L214.713 72.2916C212.462 74.697 209.052 75.6003 207.491 74.6221C207.663 73.9986 207.671 73.3411 207.513 72.7139Z" fill="black"/>
<path d="M207.491 79.6788L209.052 78.3638L211.142 79.4329C211.142 79.4329 209.806 80.689 207.491 79.6788Z" fill="#A23EB3"/>
<path opacity="0.3" d="M207.491 79.6788L209.052 78.3638L211.142 79.4329C211.142 79.4329 209.806 80.689 207.491 79.6788Z" fill="black"/>
<path d="M212.799 59.447C212.682 56.5018 209.838 55.1708 207.374 56.7049C204.91 58.239 204.701 62.9802 206.513 65.4551C208.325 67.9299 212.799 59.447 212.799 59.447Z" fill="#F5F5F5"/>
<path d="M218.903 64.509C217.759 68.6355 216.883 71.415 213.906 72.746C207.978 75.3812 205.353 72.5856 205.123 68.2239C204.936 64.3005 206.839 58.2123 211.596 57.325C216.354 56.4376 220.047 60.3771 218.903 64.509Z" fill="#B55B52"/>
<path d="M215.621 62.3602C214.344 63.5736 213.836 68.9402 215.765 68.8493C217.08 68.7742 218.387 68.6063 219.678 68.3468C219.678 68.3468 222.132 67.4168 220.79 63.7393C219.448 60.0617 215.621 62.3602 215.621 62.3602Z" fill="#E0E0E0"/>
<path opacity="0.2" d="M212.206 64.0065C212.748 63.8666 213.324 63.9453 213.809 64.2257C213.265 64.2563 212.721 64.1819 212.206 64.0065Z" fill="black"/>
<path opacity="0.2" d="M212.152 64.3914C212.404 64.3777 212.655 64.4184 212.889 64.5107C213.124 64.6029 213.335 64.7445 213.51 64.9259C213.024 64.8474 212.561 64.6651 212.152 64.3914Z" fill="black"/>
<path opacity="0.2" d="M208.571 59.6555C209.925 59.6491 211.276 59.7852 212.601 60.0617C210.351 59.9014 208.571 59.6555 208.571 59.6555Z" fill="black"/>
<path opacity="0.2" d="M207.93 60.0083C207.93 60.0083 211.009 60.345 212.436 61.0078C210.914 60.7718 209.409 60.4379 207.93 60.0083Z" fill="black"/>
<path d="M219.753 69.3411C219.364 69.7596 218.896 70.0973 218.376 70.3349C217.856 70.5724 217.294 70.7052 216.722 70.7255C215.188 70.7629 214.782 69.2983 215.509 68.0529C216.167 66.925 217.754 65.546 219.144 66.1072C219.444 66.2335 219.709 66.4324 219.914 66.6859C220.119 66.9395 220.258 67.2399 220.318 67.5603C220.378 67.8807 220.358 68.211 220.26 68.5218C220.161 68.8326 219.987 69.114 219.753 69.3411Z" fill="#B55B52"/>
<path d="M210.849 63.9481C210.915 63.5791 210.773 63.2449 210.532 63.2015C210.291 63.1582 210.042 63.4223 209.975 63.7913C209.909 64.1603 210.051 64.4945 210.292 64.5379C210.533 64.5812 210.783 64.3171 210.849 63.9481Z" fill="#263238"/>
<path d="M207.031 63.349C206.967 63.7125 206.716 63.9744 206.497 63.9263C206.278 63.8782 206.117 63.5468 206.187 63.178C206.256 62.8092 206.502 62.5473 206.721 62.5954C206.94 62.6435 207.101 62.9802 207.031 63.349Z" fill="#263238"/>
<path d="M208.245 63.8729L207.71 66.9731C207.339 66.9787 206.969 66.9264 206.614 66.8181C206.544 66.7922 206.482 66.7476 206.436 66.6892C206.389 66.6307 206.359 66.5606 206.349 66.4863C206.339 66.4121 206.349 66.3365 206.379 66.2679C206.409 66.1992 206.457 66.1399 206.518 66.0965C207.232 65.4736 207.818 64.7185 208.245 63.8729Z" fill="#A02724"/>
<path d="M213.007 63.2742C213.042 63.2864 213.08 63.2864 213.114 63.2742C213.14 63.2617 213.164 63.2441 213.183 63.2224C213.202 63.2006 213.216 63.1753 213.225 63.1478C213.234 63.1203 213.238 63.0913 213.235 63.0625C213.233 63.0337 213.224 63.0057 213.211 62.9802C213.061 62.6612 212.838 62.3826 212.559 62.1677C212.28 61.9529 211.954 61.8081 211.607 61.7455C211.578 61.7417 211.549 61.7438 211.521 61.7515C211.493 61.7591 211.467 61.7723 211.444 61.7902C211.421 61.8081 211.402 61.8304 211.388 61.8558C211.373 61.8811 211.364 61.909 211.361 61.9379C211.356 61.9956 211.374 62.0529 211.409 62.0985C211.445 62.1441 211.496 62.1745 211.554 62.1838C211.825 62.2388 212.08 62.357 212.297 62.5288C212.514 62.7006 212.688 62.9212 212.804 63.1726C212.825 63.2074 212.855 63.2355 212.891 63.2535C212.927 63.2715 212.967 63.2787 213.007 63.2742Z" fill="#263238"/>
<path d="M205.754 62.0716C205.79 62.0772 205.826 62.0743 205.86 62.0631C205.895 62.052 205.926 62.0329 205.952 62.0074C206.134 61.8008 206.363 61.6406 206.619 61.5402C206.876 61.4398 207.153 61.4021 207.427 61.4301C207.484 61.4395 207.542 61.4262 207.589 61.3933C207.636 61.3603 207.668 61.3102 207.678 61.2537C207.688 61.1965 207.675 61.1377 207.642 61.0899C207.609 61.0421 207.559 61.0088 207.502 60.9972C207.156 60.9566 206.806 60.9995 206.481 61.1223C206.155 61.2451 205.864 61.4441 205.631 61.7027C205.61 61.7227 205.593 61.7468 205.582 61.7734C205.57 61.8 205.564 61.8287 205.564 61.8577C205.564 61.8867 205.57 61.9154 205.582 61.9421C205.593 61.9687 205.61 61.9928 205.631 62.0128C205.663 62.0467 205.707 62.0676 205.754 62.0716Z" fill="#263238"/>
<path d="M216.172 74.4404C216.172 74.4404 213.077 78.1821 209.052 78.3852C211.393 79.497 211.789 82.1269 211.789 82.1269C211.789 82.1269 216.819 80.5981 217.765 75.2475C217.582 74.9966 217.343 74.7925 217.066 74.6522C216.789 74.5119 216.483 74.4393 216.172 74.4404Z" fill="white"/>
<path d="M207.491 79.6788L205.727 78.0752L203.482 78.7433C203.482 78.7433 205.177 80.689 207.491 79.6788Z" fill="#A23EB3"/>
<path opacity="0.3" d="M207.491 79.6788L205.727 78.0752L203.482 78.7433C203.482 78.7433 205.177 80.689 207.491 79.6788Z" fill="black"/>
<path d="M207.395 74.9803C207.395 74.9803 205.829 76.7923 205.754 78.1019C203.872 78.6364 202.964 81.3946 202.964 81.3946C202.964 81.3946 202.622 77.4444 205.578 75.317C206.136 75.0258 206.769 74.9085 207.395 74.9803Z" fill="white"/>
<path d="M227.461 193.944H225.938L225.526 193.324L224.724 193.949H215.531C215.475 193.225 215.612 192.498 215.926 191.843C215.926 191.843 218.673 191.592 219.732 190.24C219.769 190.187 219.82 190.145 219.88 190.121C219.94 190.096 220.005 190.089 220.069 190.101C220.988 190.293 224.623 190.983 226.622 190.261C226.671 190.241 226.725 190.234 226.778 190.239C226.832 190.244 226.883 190.263 226.927 190.292C226.972 190.321 227.009 190.361 227.035 190.408C227.061 190.455 227.075 190.507 227.076 190.56C227.117 191.696 227.245 192.828 227.461 193.944Z" fill="#263238"/>
<path d="M207.577 81.0739C208.01 80.4004 208.234 79.6841 207.748 79.3634C207.4 79.1389 206.358 78.8289 206.144 79.5291C205.93 80.2293 205.957 80.828 206.251 81.1327C206.339 81.2211 206.445 81.2902 206.561 81.3355C206.678 81.3808 206.802 81.4013 206.927 81.3958C207.052 81.3903 207.174 81.3588 207.286 81.3033C207.398 81.2479 207.497 81.1698 207.577 81.0739Z" fill="#263238"/>
<path d="M207.796 79.513C208.705 78.2516 211.377 77.8026 211.377 78.8395C211.377 80.8333 211.313 82.8485 210.458 83.3188C209.603 83.7892 208.256 80.705 207.598 80.6462L207.796 79.513Z" fill="#263238"/>
<path d="M206.326 79.4329C205.791 78.1019 204.097 77.6315 203.819 78.6204C203.285 80.5179 203.21 82.0894 203.819 82.6347C204.428 83.1799 205.765 80.5714 206.305 80.5928L206.326 79.4329Z" fill="#263238"/>
<path d="M176.462 77.6529C177.136 75.2101 175.431 73.6974 174.485 72.1152C174.319 71.848 173.501 71.9923 173.458 72.5589C173.404 72.9042 173.42 73.2569 173.506 73.5958C173.591 73.9347 173.744 74.2529 173.955 74.5313C173.458 75.1513 172.721 77.3215 174.453 78.7326C175.232 78.6312 175.947 78.247 176.462 77.6529Z" fill="#B55B52"/>
<path d="M222.746 76.0974C222.51 75.9502 222.246 75.8521 221.97 75.8089C221.695 75.7657 221.413 75.7784 221.143 75.8462C219.475 77.7652 212.232 91.7323 215.21 117.619H216.904C213.911 91.7269 221.079 78.0164 222.746 76.0974Z" fill="white"/>
<path d="M217.064 119.736L216.915 117.828C216.903 117.727 216.852 117.635 216.773 117.571C216.694 117.507 216.594 117.477 216.492 117.486L215.675 117.528C215.575 117.533 215.481 117.576 215.413 117.649C215.345 117.722 215.308 117.819 215.311 117.919L215.461 119.832C215.474 119.932 215.525 120.024 215.604 120.087C215.682 120.151 215.782 120.182 215.883 120.174L216.701 120.126C216.751 120.125 216.799 120.114 216.845 120.093C216.89 120.073 216.931 120.043 216.964 120.007C216.998 119.971 217.024 119.928 217.042 119.882C217.059 119.835 217.067 119.786 217.064 119.736Z" fill="white"/>
<path d="M217.102 118.512H215.274C215.176 118.509 215.082 118.473 215.008 118.41C214.933 118.347 214.882 118.26 214.862 118.164L214.745 117.427C214.736 117.384 214.737 117.339 214.748 117.297C214.758 117.254 214.779 117.215 214.807 117.181C214.835 117.148 214.871 117.121 214.911 117.104C214.951 117.086 214.995 117.078 215.039 117.079H216.867C216.964 117.083 217.057 117.119 217.131 117.182C217.205 117.245 217.255 117.331 217.273 117.427L217.396 118.164C217.405 118.207 217.404 118.252 217.393 118.294C217.383 118.337 217.362 118.376 217.334 118.41C217.306 118.443 217.27 118.47 217.23 118.488C217.19 118.505 217.146 118.514 217.102 118.512Z" fill="#263238"/>
<path d="M202.782 75.6912C202.467 75.44 201.473 75.5843 200.976 75.8676C199.228 77.7865 191.354 91.7537 193.193 117.641H194.887C193.054 91.7269 201.034 77.5888 202.782 75.6912Z" fill="white"/>
<path d="M194.967 119.736L194.903 117.828C194.9 117.778 194.887 117.73 194.864 117.686C194.842 117.641 194.811 117.602 194.773 117.57C194.735 117.538 194.691 117.514 194.644 117.5C194.596 117.485 194.546 117.48 194.497 117.486L193.674 117.528C193.573 117.534 193.478 117.577 193.408 117.649C193.337 117.722 193.297 117.818 193.294 117.919L193.359 119.832C193.368 119.931 193.416 120.022 193.492 120.086C193.568 120.15 193.666 120.182 193.765 120.174L194.588 120.126C194.689 120.122 194.785 120.079 194.856 120.007C194.926 119.934 194.966 119.837 194.967 119.736Z" fill="white"/>
<path d="M195.058 118.512H193.23C193.134 118.509 193.042 118.473 192.97 118.41C192.897 118.346 192.85 118.259 192.835 118.164L192.749 117.427C192.743 117.383 192.746 117.338 192.759 117.296C192.772 117.253 192.794 117.214 192.823 117.181C192.853 117.148 192.889 117.122 192.93 117.104C192.971 117.087 193.015 117.078 193.059 117.079H194.887C194.983 117.082 195.076 117.118 195.148 117.182C195.22 117.245 195.268 117.332 195.283 117.427L195.368 118.164C195.375 118.208 195.371 118.253 195.358 118.296C195.345 118.338 195.323 118.377 195.294 118.41C195.264 118.443 195.228 118.47 195.187 118.487C195.147 118.505 195.103 118.513 195.058 118.512Z" fill="#263238"/>
<path d="M212.109 53.9414C210.035 52.2898 206.598 56.7049 211.137 59.1584C216.824 62.2372 216.14 67.2083 223.495 65.7544C220.346 63.5468 222.345 61.8631 221.015 58.6773C219.529 55.1013 215.472 56.614 212.109 53.9414Z" fill="#F5F5F5"/>
<path d="M208.945 56.5873C209.619 59.0568 210.437 59.6341 211.196 60.2809C210.664 59.431 210.283 58.4962 210.068 57.5174L208.945 56.5873Z" fill="#F5F5F5"/>
<path d="M205.909 68.1116C205.909 68.1116 207.512 67.9887 211.847 68.6462C211.147 69.8756 210.041 70.7843 207.817 70.4475C207.534 70.432 207.257 70.3575 207.004 70.2289C206.751 70.1003 206.527 69.9203 206.348 69.7005C206.168 69.4807 206.036 69.2259 205.961 68.9523C205.885 68.6788 205.868 68.3924 205.909 68.1116Z" fill="#263238"/>
<path d="M208.999 69.5602C208.152 69.3842 207.271 69.4796 206.481 69.8328C206.853 70.1639 207.317 70.3729 207.812 70.4315C208.657 70.6096 209.537 70.5141 210.324 70.1589C209.957 69.8236 209.493 69.614 208.999 69.5602Z" fill="#A02724"/>
<path d="M206.112 68.1063C206.132 68.2724 206.196 68.43 206.299 68.562C206.402 68.6939 206.539 68.7952 206.695 68.8547C207.983 69.0432 209.285 69.1254 210.586 69.1005C210.792 69.1115 210.996 69.0719 211.183 68.9852C211.369 68.8985 211.531 68.7674 211.655 68.6034C209.823 68.2954 207.97 68.1292 206.112 68.1063Z" fill="white"/>
<path d="M205.818 71.2921C205.861 72.452 207.026 73.4302 206.722 74.1571C208.163 74.2661 209.603 73.9422 210.859 73.227C210.952 73.1577 211.024 73.0626 211.064 72.9533C211.104 72.8441 211.112 72.7255 211.086 72.6121C211.059 72.4987 211.001 72.3953 210.917 72.3146C210.833 72.234 210.727 72.1795 210.613 72.158C209.697 72.0674 208.818 71.7475 208.058 71.2279C207.962 71.1465 207.839 71.1019 207.713 71.1019C207.587 71.1019 207.465 71.1465 207.368 71.2279C206.449 71.9495 205.818 71.2921 205.818 71.2921Z" fill="#F5F5F5"/>
<path d="M225.708 119.501L198.575 100.595L198.875 100.162L226.269 118.683L225.708 119.501Z" fill="#263238"/>
<path d="M223.367 111.729L225.997 113.06C228.092 115.348 224.682 117.528 224.682 117.528L223.468 119.239C223.235 119.527 222.907 119.723 222.543 119.792C222.179 119.86 221.802 119.797 221.48 119.613L219.63 118.694C219.435 118.614 219.256 118.497 219.106 118.349C218.956 118.201 218.836 118.024 218.754 117.829C218.672 117.635 218.629 117.426 218.628 117.214C218.627 117.003 218.668 116.794 218.748 116.598L219.55 114.957C219.781 114.477 220.129 114.062 220.561 113.749L223.367 111.729Z" fill="#B55B52"/>
</svg>
