<svg width="102" height="100" viewBox="0 0 102 100" fill="none" xmlns="http://www.w3.org/2000/svg">
<path d="M50.365 100C75.8274 100 96.4688 88.0832 96.4688 73.383C96.4688 58.6827 75.8274 46.7659 50.365 46.7659C24.9026 46.7659 4.26123 58.6827 4.26123 73.383C4.26123 88.0832 24.9026 100 50.365 100Z" fill="#F5F5F5"/>
<path d="M24.824 87.2421C30.3696 87.2421 34.8653 84.6465 34.8653 81.4446C34.8653 78.2428 30.3696 75.6472 24.824 75.6472C19.2783 75.6472 14.7827 78.2428 14.7827 81.4446C14.7827 84.6465 19.2783 87.2421 24.824 87.2421Z" fill="#EBEBEB"/>
<path d="M76.8181 87.2421C82.3638 87.2421 86.8594 84.6465 86.8594 81.4446C86.8594 78.2428 82.3638 75.6472 76.8181 75.6472C71.2725 75.6472 66.7769 78.2428 66.7769 81.4446C66.7769 84.6465 71.2725 87.2421 76.8181 87.2421Z" fill="#EBEBEB"/>
<path d="M50.7899 90.6693C57.0863 90.6693 62.1906 87.722 62.1906 84.0862C62.1906 80.4505 57.0863 77.5031 50.7899 77.5031C44.4934 77.5031 39.3892 80.4505 39.3892 84.0862C39.3892 87.722 44.4934 90.6693 50.7899 90.6693Z" fill="#EBEBEB"/>
<path d="M5.555 30.0091C6.11684 31.1107 6.34101 32.3536 6.1994 33.5821C6.06699 34.6303 5.70286 35.6455 5.83527 36.7136C6.04271 38.3997 7.2256 39.7437 8.18117 41.07C8.73645 41.7812 9.18271 42.5711 9.5053 43.4137C9.85398 44.4509 9.77012 45.5301 9.57592 46.5894C9.20958 48.602 8.69317 50.4933 9.82088 52.3626C10.4432 53.391 11.284 54.2627 11.8689 55.3153C12.4994 56.4771 12.8939 57.7522 13.0297 59.067C13.0429 59.1862 13.2724 59.2259 13.2614 59.0913C13.1837 57.9876 12.9109 56.9065 12.4559 55.898C11.9946 54.8784 11.3238 54.0221 10.6617 53.1305C9.99964 52.239 9.42364 51.2547 9.36406 50.0917C9.30889 49.0059 9.58475 47.9356 9.80543 46.8807C9.99522 45.9119 10.1365 44.9122 9.93122 43.9345C9.73534 43.1173 9.38802 42.344 8.90723 41.6548C7.94062 40.1939 6.57457 38.8587 6.17292 37.1064C5.87941 35.822 6.39361 34.6061 6.47747 33.3349C6.56684 32.1572 6.28516 30.9811 5.67196 29.9716C5.62562 29.8966 5.51086 29.9142 5.5572 30.0091H5.555Z" fill="#37474F"/>
<path d="M5.26345 31.8938C5.20828 31.5429 5.78869 30.4615 5.92551 30.4416C6.06234 30.4218 6.86785 31.2626 6.92743 31.6378C6.9315 31.7123 6.91591 31.7866 6.88221 31.8532C6.84852 31.9198 6.7979 31.9764 6.73543 32.0173C6.56771 32.1385 6.3736 32.2181 6.16911 32.2495C5.96461 32.281 5.75556 32.2634 5.55917 32.1983C5.48673 32.179 5.42082 32.1405 5.36839 32.0869C5.31596 32.0333 5.27895 31.9666 5.26124 31.8938H5.26345Z" fill="#791E1E"/>
<path opacity="0.1" d="M5.26345 31.8938C5.20828 31.5429 5.78869 30.4615 5.92551 30.4416C6.06234 30.4218 6.86785 31.2626 6.92743 31.6378C6.9315 31.7123 6.91591 31.7866 6.88221 31.8532C6.84852 31.9198 6.7979 31.9764 6.73543 32.0173C6.56771 32.1385 6.3736 32.2181 6.16911 32.2495C5.96461 32.281 5.75556 32.2634 5.55917 32.1983C5.48673 32.179 5.42082 32.1405 5.36839 32.0869C5.31596 32.0333 5.27895 31.9666 5.26124 31.8938H5.26345Z" fill="black"/>
<path d="M0.0728268 24.8604C0.478891 27.5572 3.12714 30.638 5.99607 30.8565C8.65977 29.6516 10.2575 26.0566 9.84265 23.3532C9.42776 20.6497 7.30475 18.4053 4.15995 18.8887C1.01516 19.372 -0.342065 22.1637 0.0728268 24.8604Z" fill="#791E1E"/>
<path opacity="0.05" d="M9.84412 24.8031C9.84412 24.8031 9.52633 27.5021 6.34402 28.1994C3.28971 28.8747 0.25747 25.8712 0.00809321 23.6136C-0.0134339 24.0303 0.00801216 24.4481 0.0720923 24.8604C0.478157 27.5572 3.1264 30.638 5.99534 30.8565C8.20221 29.859 9.6764 27.2196 9.88164 24.8097L9.84412 24.8031Z" fill="black"/>
<path d="M95.1778 40.6925C94.6795 41.3879 94.3425 42.1855 94.1913 43.0274C94.0456 43.8638 94.1913 44.698 94.2332 45.5366C94.2994 46.6401 94.0611 47.5647 93.3284 48.4056C92.748 49.0676 92.0462 49.6193 91.521 50.3344C90.4661 51.771 90.2277 53.3776 90.444 55.1145C90.689 57.0808 91.1458 58.9301 90.199 60.7972C89.6915 61.7991 89.0206 62.7127 88.6653 63.7897C88.3478 64.838 88.212 65.933 88.2636 67.0272C88.2636 67.1485 88.4953 67.186 88.4976 67.0514C88.4795 66.0076 88.6141 64.9667 88.897 63.9618C89.1861 63.0393 89.7069 62.2294 90.1792 61.393C90.6579 60.6061 90.9592 59.7241 91.0619 58.8088C91.1052 57.9856 91.0496 57.1602 90.8964 56.3503C90.7508 55.408 90.5742 54.4524 90.6206 53.4968C90.6782 52.5482 90.9784 51.6303 91.4923 50.8309C92.3971 49.3942 94.1538 48.5115 94.4561 46.7261C94.6018 45.861 94.4164 44.9827 94.3745 44.1176C94.3171 42.9171 94.7121 41.8225 95.2925 40.7897C95.33 40.7257 95.2219 40.6219 95.1733 40.6903L95.1778 40.6925Z" fill="#37474F"/>
<path d="M95.4669 42.6655C95.542 42.3168 95.0256 41.2023 94.8954 41.1714C94.7652 41.1405 93.9023 41.9328 93.8206 42.3036C93.8114 42.3775 93.8219 42.4525 93.851 42.5211C93.88 42.5897 93.9266 42.6494 93.9861 42.6942C94.1465 42.8247 94.3353 42.9159 94.5372 42.9603C94.7392 43.0048 94.9488 43.0013 95.1492 42.9502C95.2224 42.9347 95.2903 42.9002 95.346 42.8502C95.4018 42.8003 95.4435 42.7366 95.4669 42.6655Z" fill="#791E1E"/>
<path opacity="0.1" d="M95.4669 42.6655C95.542 42.3168 95.0256 41.2023 94.8954 41.1714C94.7652 41.1405 93.9023 41.9328 93.8206 42.3036C93.8114 42.3775 93.8219 42.4525 93.851 42.5211C93.88 42.5897 93.9266 42.6494 93.9861 42.6942C94.1465 42.8247 94.3353 42.9159 94.5372 42.9603C94.7392 43.0048 94.9488 43.0013 95.1492 42.9502C95.2224 42.9347 95.2903 42.9002 95.346 42.8502C95.4018 42.8003 95.4435 42.7366 95.4669 42.6655Z" fill="black"/>
<path d="M101.095 35.9897C100.51 38.6534 97.6783 41.5598 94.805 41.5951C92.2229 40.2203 90.8591 36.5326 91.4461 33.8711C92.0332 31.2096 94.2952 29.0954 97.4047 29.7795C100.514 30.4637 101.682 33.3128 101.095 35.9897Z" fill="#791E1E"/>
<path opacity="0.05" d="M91.3468 35.2945C91.3468 35.2945 91.5035 38.009 94.6218 38.9094C97.6276 39.7767 100.845 36.974 101.242 34.7362C101.235 35.1542 101.187 35.5704 101.097 35.9787C100.512 38.6424 97.6805 41.5488 94.8072 41.5841C92.6665 40.4454 91.3667 37.7177 91.3159 35.299L91.3468 35.2945Z" fill="black"/>
<path d="M62.3407 2.35473C61.3101 2.25322 59.9131 3.97458 60.9239 4.80215C61.4844 5.26118 62.7048 5.06257 62.6894 4.20409C62.6869 4.18028 62.6767 4.15793 62.6604 4.14042C62.644 4.1229 62.6225 4.11117 62.5989 4.10699C61.789 3.92161 60.9857 4.2703 61.1225 5.21043C61.1959 5.6157 61.4046 5.9841 61.7144 6.25547C62.0243 6.52683 62.417 6.68512 62.8284 6.70448C62.8769 6.70448 62.8593 6.62062 62.8284 6.61179C62.1222 6.46393 61.4557 6.02476 61.3167 5.27001C61.2853 5.13644 61.2826 4.99772 61.3089 4.86304C61.3351 4.72836 61.3897 4.60079 61.469 4.48878C61.5634 4.37533 61.6881 4.29113 61.8287 4.24602C61.9501 4.20851 62.3848 4.14009 62.4907 4.24602C62.6805 4.44243 62.1641 4.77567 62.0096 4.82864C61.8571 4.88338 61.6944 4.90385 61.533 4.88859C61.3717 4.87333 61.2157 4.82273 61.0761 4.74036C60.648 4.44023 60.7539 3.87527 60.9614 3.47582C61.2417 2.93514 61.7316 2.49597 62.3627 2.47391C62.4201 2.47391 62.3892 2.36577 62.3451 2.36135L62.3407 2.35473Z" fill="#791E1E"/>
<path d="M62.6833 36.2611C63.0077 35.5306 62.9724 34.7737 63.9169 34.5331C64.3318 34.4272 65.3139 34.3301 65.625 34.6986C65.6817 34.7876 65.7047 34.894 65.6897 34.9985C65.6747 35.1029 65.6228 35.1985 65.5434 35.268C65.2984 35.4887 65.1153 35.2239 65.0513 34.99C65.002 34.774 65.021 34.548 65.1055 34.3432C65.1901 34.1385 65.3362 33.965 65.5235 33.8468C65.9198 33.5858 66.3995 33.4827 66.8681 33.5578C67.3366 33.633 67.76 33.881 68.0548 34.2529C68.0901 34.297 68.1276 34.2529 68.1122 34.2043C67.3883 32.5381 63.9191 33.6967 65.0226 35.2945C65.3602 35.7778 65.9561 35.3519 65.8435 34.8399C65.7199 34.2727 64.7533 34.3014 64.3252 34.3301C63.8913 34.3303 63.473 34.4916 63.1511 34.7825C62.7738 35.1533 62.723 35.7403 62.6436 36.239C62.6436 36.2611 62.6634 36.2942 62.6789 36.2611H62.6833Z" fill="#791E1E"/>
<path d="M87.4286 0.432557C88.1061 0.233938 89.0374 0.28911 89.6046 0.745932C90.0459 1.09903 90.2931 1.86482 89.6465 2.12743C89.3927 2.22895 88.5563 2.22895 88.457 1.88468C88.3864 1.64413 88.6446 1.50068 88.852 1.46979C89.4589 1.37489 90.0283 2.01488 90.0128 2.58646C89.993 3.44494 88.9933 3.72962 88.2871 3.73624C88.2407 3.73624 88.2518 3.82452 88.2871 3.82673C89.4898 3.94369 90.8316 2.82922 89.7612 1.71254C89.4744 1.41241 89.0242 1.19834 88.6093 1.36386C88.3753 1.45875 88.19 1.67061 88.3069 1.9244C88.4945 2.33267 89.2493 2.40329 89.6156 2.29957C89.7127 2.27373 89.8035 2.22825 89.8823 2.16593C89.9612 2.10361 90.0264 2.02578 90.074 1.93725C90.1216 1.84873 90.1505 1.75138 90.1589 1.65124C90.1674 1.5511 90.1552 1.45028 90.1232 1.35503C89.8275 0.269248 88.3069 0.0309057 87.4065 0.368557C87.38 0.368557 87.3911 0.441384 87.422 0.432557H87.4286Z" fill="#791E1E"/>
<path d="M96.3066 45.989C96.9842 45.7904 97.9155 45.8456 98.4826 46.3024C98.924 46.6555 99.1712 47.4213 98.5246 47.6839C98.2708 47.7854 97.4344 47.7854 97.3351 47.4389C97.2644 47.2006 97.5226 47.0571 97.7279 47.024C98.337 46.9313 98.9041 47.5713 98.8909 48.1429C98.871 49.0014 97.8713 49.2861 97.1651 49.2927C97.1188 49.2927 97.1298 49.381 97.1651 49.3832C98.3679 49.5001 99.7096 48.3857 98.6393 47.269C98.3524 46.9689 97.9022 46.7548 97.4873 46.9203C97.2534 47.013 97.068 47.2271 97.185 47.4809C97.3726 47.8891 98.1273 47.9597 98.4937 47.8538C98.5909 47.8285 98.6818 47.7835 98.7608 47.7214C98.8398 47.6594 98.9052 47.5817 98.9528 47.4933C99.0005 47.4048 99.0294 47.3075 99.0377 47.2074C99.046 47.1073 99.0336 47.0066 99.0012 46.9115C98.7055 45.8235 97.185 45.5874 96.2846 45.925C96.2581 45.925 96.2669 45.9978 96.3 45.989H96.3066Z" fill="#791E1E"/>
<path d="M91.3412 12.9919C90.5335 13.2324 89.7832 14.6536 90.5335 15.3002C91.1713 15.8498 92.4601 15.7262 92.246 14.6779C92.244 14.666 92.2389 14.6548 92.2311 14.6455C92.2234 14.6362 92.2133 14.6291 92.2019 14.6249C91.3545 14.4219 91.0742 15.4106 91.2529 16.0638C91.5288 17.079 92.5528 17.0657 93.2921 16.5361C93.3164 16.5184 93.3053 16.4478 93.27 16.4655C92.6653 16.7678 91.8179 17.0371 91.4493 16.2646C91.2529 15.852 91.2463 15.1612 91.6259 14.85C91.7246 14.7579 91.855 14.7073 91.99 14.7088C92.2725 14.7419 92.224 15.0465 92.0651 15.2407C91.8113 15.5496 91.3015 15.5165 90.9616 15.3973C89.7986 14.9847 90.5975 13.4774 91.3567 13.0536C91.3787 13.0404 91.3743 12.983 91.3412 12.9919Z" fill="#791E1E"/>
<path d="M73.3793 9.441C72.4259 9.31962 70.3757 10.1229 70.9098 11.4272C71.1945 12.1223 72.4656 12.5681 72.8827 11.7715C72.8917 11.7498 72.8918 11.7254 72.8832 11.7036C72.8745 11.6818 72.8578 11.6642 72.8364 11.6545C70.8502 10.529 68.7581 13.7797 70.8656 14.9648C70.9318 15.0023 70.9296 14.8898 70.8921 14.8611C70.7103 14.7366 70.5551 14.5771 70.4356 14.3919C70.3162 14.2067 70.2348 13.9995 70.1964 13.7825C70.158 13.5655 70.1632 13.343 70.2118 13.1281C70.2604 12.9131 70.3514 12.71 70.4794 12.5306C70.6941 12.1878 70.9997 11.9113 71.3622 11.7317C71.6336 11.6037 72.3155 11.4228 72.5693 11.6876C72.6841 11.8112 72.6819 11.6567 72.6223 11.8001C72.5657 11.8853 72.479 11.946 72.3795 11.9701C72.1629 12.0389 71.9291 12.0311 71.7175 11.948C71.2761 11.7935 70.9296 11.3875 71.0554 10.8997C71.2871 9.92209 72.5318 9.57562 73.4035 9.56017C73.4631 9.56017 73.4256 9.44762 73.3793 9.441Z" fill="#791E1E"/>
<path d="M77.7182 0.642212C77.7182 0.642212 77.6608 1.71034 78.4531 2.30399L79.2829 2.0502C79.2829 2.0502 78.7289 1.78537 78.4531 0.642212H77.7182Z" fill="#455A64"/>
<path d="M63.7398 26.5001C63.7398 26.5001 63.6802 27.5682 64.4725 28.1619L65.3045 27.9081C65.3045 27.9081 64.7483 27.6433 64.4725 26.5001H63.7398Z" fill="#455A64"/>
<path d="M70.5245 38.5364C70.5245 38.5364 70.4649 39.6023 71.2593 40.196L72.0891 39.9444C72.0891 39.9444 71.5352 39.6774 71.2593 38.5364H70.5245Z" fill="#37474F"/>
<path d="M96.5339 5.99387C96.5339 5.99387 96.0484 6.94724 95.0663 7.06421L94.4727 6.42863C94.4727 6.42863 95.0862 6.47718 95.8983 5.62753L96.5339 5.99387Z" fill="#455A64"/>
<path d="M90.843 40.0812C90.843 40.0812 90.3597 41.0346 89.3754 41.1493L88.7817 40.5159C88.7817 40.5159 89.3975 40.5623 90.2074 39.7126L90.843 40.0812Z" fill="#455A64"/>
<path d="M77.259 20.0583C77.259 20.0583 76.7757 21.0116 75.7914 21.1264L75.1978 20.493C75.1978 20.493 75.8135 20.5394 76.6234 19.6897L77.259 20.0583Z" fill="#791E1E"/>
<path d="M68.4291 8.29344C68.4291 8.29344 67.9458 9.2468 66.9638 9.36377L66.3701 8.72819C66.3701 8.72819 66.9836 8.77674 67.7958 7.92709L68.4291 8.29344Z" fill="#455A64"/>
<path d="M86.7662 9.72791C86.7662 9.72791 85.7047 9.86032 85.0581 9.10778L85.2545 8.26254C85.2545 8.26254 85.5569 8.79881 86.7155 8.99522L86.7662 9.72791Z" fill="#791E1E"/>
<path d="M71.3753 4.51748C71.3753 4.51748 70.316 4.64989 69.6694 3.89955L69.8636 3.05432C69.8636 3.05432 70.1682 3.58839 71.3268 3.787L71.3753 4.51748Z" fill="#791E1E"/>
<path d="M53.5292 2.20022C53.5292 2.20022 52.4699 2.33263 51.8232 1.58229L52.0174 0.737061C52.0174 0.737061 52.322 1.27112 53.4784 1.46974L53.5292 2.20022Z" fill="#791E1E"/>
<path d="M66.2269 16.439C66.2269 16.439 65.1676 16.5692 64.521 15.8189L64.7152 14.9736C64.7152 14.9736 65.0197 15.5099 66.1784 15.7063L66.2269 16.439Z" fill="#791E1E"/>
<path d="M97.9818 24.3418C97.9818 24.3418 96.9203 24.472 96.2759 23.7217L96.4701 22.8764C96.4701 22.8764 96.7746 23.4127 97.931 23.6091L97.9818 24.3418Z" fill="#791E1E"/>
<path d="M79.4992 13.6451C79.4992 13.6451 79.0159 14.5985 78.0316 14.7154L77.438 14.0798C77.438 14.0798 78.164 14.1924 78.9828 13.3427L79.4992 13.6451Z" fill="#455A64"/>
<path d="M80.5672 15.0531C80.5672 15.0531 80.3774 16.1058 79.4637 16.4986L78.7134 16.0572C79.2443 15.8177 79.6855 15.4159 79.9735 14.9096L80.5672 15.0531Z" fill="#37474F"/>
<path d="M43.2673 1.52936C44.3001 1.42784 45.6949 3.147 44.6841 3.97458C44.1258 4.43581 42.9032 4.23499 42.9186 3.37651C42.9216 3.3531 42.9319 3.33125 42.9482 3.31417C42.9645 3.29709 42.9858 3.28568 43.0091 3.28162C43.8212 3.09624 44.6223 3.44272 44.4855 4.38505C44.4125 4.78992 44.2041 5.15799 43.8946 5.42901C43.5851 5.70003 43.1928 5.85794 42.7818 5.8769C42.731 5.8769 42.7487 5.79304 42.7818 5.78642C43.488 5.63635 44.1545 5.19718 44.2913 4.44243C44.3232 4.30925 44.3261 4.17077 44.2999 4.03636C44.2736 3.90195 44.2187 3.77476 44.139 3.66341C44.0436 3.54605 43.9152 3.45996 43.7705 3.41624C43.6513 3.37872 43.2143 3.31031 43.1194 3.41624C42.9274 3.61486 43.4461 3.94589 43.6005 3.99885C43.7526 4.05433 43.9151 4.07519 44.0762 4.05992C44.2373 4.04465 44.3929 3.99363 44.5318 3.91058C44.96 3.61265 44.854 3.04769 44.6466 2.64604C44.3685 2.10756 43.8764 1.66619 43.2452 1.64633C43.1901 1.64633 43.2187 1.53819 43.2629 1.53377L43.2673 1.52936Z" fill="#791E1E"/>
<path d="M41.6112 37.7044C41.2868 36.9739 41.3199 36.217 40.3776 35.9742C39.9627 35.8683 38.9806 35.7712 38.6673 36.1419C38.6112 36.2307 38.5886 36.3366 38.6035 36.4406C38.6185 36.5445 38.6701 36.6397 38.7489 36.7091C38.9961 36.9298 39.1903 36.665 39.2433 36.4333C39.2927 36.2169 39.2738 35.9906 39.1892 35.7855C39.1046 35.5803 38.9585 35.4065 38.771 35.2879C38.3735 35.0239 37.8911 34.9193 37.42 34.995C36.9489 35.0706 36.5235 35.321 36.2287 35.6962C36.1956 35.7381 36.1581 35.6962 36.1735 35.6476C36.8974 33.9814 40.3666 35.14 39.2631 36.7378C38.9255 37.2211 38.3274 36.793 38.44 36.2832C38.5658 35.716 39.5434 35.7447 39.9583 35.7712C40.3927 35.7721 40.8115 35.9332 41.1346 36.2236C41.5119 36.5966 41.5627 37.1836 41.6421 37.6801C41.6421 37.7044 41.6223 37.7353 41.6068 37.7044H41.6112Z" fill="#791E1E"/>
<path d="M14.4913 0.432557C13.8138 0.233938 12.8825 0.28911 12.3131 0.745932C11.8717 1.09903 11.6267 1.86482 12.2734 2.12743C12.5271 2.22895 13.3635 2.22895 13.4629 1.88468C13.5335 1.64413 13.2753 1.50068 13.0678 1.46979C12.4609 1.37489 11.8916 2.01488 11.9048 2.58646C11.9269 3.44494 12.9266 3.72962 13.6328 3.73624C13.6791 3.73624 13.6681 3.82452 13.6328 3.82673C12.43 3.94369 11.0883 2.82922 12.1564 1.71254C12.4455 1.41241 12.8957 1.19834 13.3106 1.36386C13.5445 1.45875 13.7299 1.67061 13.6129 1.9244C13.4253 2.33267 12.6706 2.40329 12.3043 2.29957C12.2071 2.27373 12.1163 2.22825 12.0375 2.16593C11.9586 2.10361 11.8934 2.02578 11.8459 1.93725C11.7983 1.84873 11.7694 1.75138 11.7609 1.65124C11.7524 1.5511 11.7646 1.45028 11.7967 1.35503C12.0924 0.269248 13.6107 0.0309057 14.5133 0.368557C14.5398 0.368557 14.5288 0.441384 14.4979 0.432557H14.4913Z" fill="#791E1E"/>
<path d="M6.6105 45.1725C5.93299 44.9738 5.00169 45.029 4.43232 45.4858C3.99094 45.8389 3.74378 46.6047 4.3926 46.8673C4.64639 46.9689 5.48058 46.9689 5.5821 46.6246C5.65051 46.384 5.39231 46.2406 5.18707 46.2097C4.57797 46.1148 4.01081 46.7548 4.02405 47.3264C4.04391 48.1848 5.04362 48.4695 5.74982 48.4761C5.79837 48.4761 5.78513 48.5644 5.74982 48.5688C4.54708 48.6836 3.2053 47.5691 4.27342 46.4524C4.56252 46.1523 5.01052 45.9382 5.42541 46.1038C5.66155 46.1987 5.84692 46.4105 5.72996 46.6643C5.54238 47.0726 4.78542 47.1432 4.41908 47.0395C4.32198 47.0137 4.23122 46.9682 4.15245 46.9058C4.07367 46.8435 4.00857 46.7656 3.96117 46.677C3.91377 46.5884 3.8851 46.491 3.87694 46.3909C3.86877 46.2908 3.88129 46.19 3.9137 46.0949C4.20722 45.0092 5.72775 44.7818 6.63036 45.1085C6.65685 45.1085 6.64581 45.1813 6.61492 45.1725H6.6105Z" fill="#791E1E"/>
<path d="M8.34718 13.4001C9.1549 13.6407 9.90523 15.0619 9.1549 15.7085C8.51711 16.2602 7.2283 16.1344 7.44236 15.0862C7.44477 15.0744 7.45007 15.0634 7.45777 15.0541C7.46547 15.0449 7.47534 15.0377 7.4865 15.0332C8.33394 14.8324 8.61421 15.8211 8.43546 16.4743C8.1596 17.4872 7.13561 17.4762 6.39631 16.9444C6.37203 16.9267 6.38307 16.8583 6.41838 16.8759C7.02306 17.1783 7.8705 17.4453 8.23905 16.6729C8.43546 16.2602 8.44208 15.5695 8.0625 15.2605C7.96401 15.1678 7.83364 15.1164 7.69836 15.1171C7.41588 15.1502 7.46443 15.4569 7.62333 15.6489C7.87712 15.9579 8.38691 15.9248 8.72676 15.8056C9.88979 15.3951 9.0909 13.8856 8.33173 13.4619C8.30967 13.4487 8.31408 13.3913 8.34718 13.4001Z" fill="#791E1E"/>
<path d="M10.914 31.4744C9.53916 31.5847 9.78632 34.1955 10.8964 34.5486C10.9646 34.573 11.037 34.5836 11.1094 34.5798C11.1817 34.576 11.2526 34.5579 11.3179 34.5265C11.3993 34.4666 11.4647 34.3875 11.5082 34.2963C11.5517 34.205 11.572 34.1045 11.5673 34.0035C11.4349 33.5621 10.6845 34.1226 10.5985 34.297C10.4556 34.5267 10.3889 34.7957 10.4079 35.0656C10.4269 35.3355 10.5307 35.5924 10.7044 35.7999C11.2693 36.4112 12.3507 36.431 13.0569 36.0779C13.0922 36.0581 13.0988 36.1265 13.0746 36.1441C12.3132 36.6319 11.0376 36.5612 10.4727 35.7888C10.0313 35.1709 10.3336 33.5312 11.3179 33.6769C12.236 33.8115 11.6004 34.8575 10.9052 34.7185C10.21 34.5795 9.95846 33.657 9.89226 33.0854C9.80839 32.366 10.0225 31.395 10.914 31.4104C10.9427 31.4104 10.9405 31.4722 10.914 31.4744Z" fill="#791E1E"/>
<path d="M28.181 9.44103C29.1344 9.31965 31.1845 10.123 30.6505 11.4272C30.3658 12.1224 29.0946 12.5682 28.6775 11.7715C28.6686 11.7498 28.6684 11.7255 28.677 11.7036C28.6857 11.6818 28.7025 11.6642 28.7239 11.6545C30.7101 10.529 32.8022 13.7797 30.6946 14.9648C30.6284 15.0023 30.6306 14.8898 30.6681 14.8611C30.8503 14.7366 31.0058 14.577 31.1254 14.3916C31.2451 14.2062 31.3265 13.9988 31.3649 13.7815C31.4034 13.5643 31.398 13.3415 31.3493 13.1263C31.3005 12.9112 31.2092 12.7079 31.0808 12.5284C30.8661 12.1856 30.5605 11.9091 30.1981 11.7296C29.9266 11.6016 29.2447 11.4206 28.9909 11.6854C28.8761 11.809 28.8784 11.6545 28.9379 11.798C28.9946 11.8832 29.0813 11.9439 29.1807 11.9679C29.3974 12.0367 29.6311 12.0289 29.8428 11.9458C30.2841 11.7913 30.6306 11.3853 30.5048 10.8976C30.2731 9.91992 29.0284 9.57344 28.1567 9.55799C28.0971 9.55799 28.1346 9.44544 28.181 9.43882V9.44103Z" fill="#791E1E"/>
<path d="M24.3122 2.58424C24.3122 2.58424 24.3718 3.65236 23.5773 4.24601L22.7476 3.99002C22.7476 3.99002 23.3015 3.72519 23.5773 2.58203L24.3122 2.58424Z" fill="#455A64"/>
<path d="M41.4612 29.0182C41.4612 29.0182 41.5207 30.0863 40.7263 30.6799L39.8965 30.4283C39.8965 30.4283 40.4504 30.1613 40.7263 29.0182H41.4612Z" fill="#455A64"/>
<path d="M38.1828 41.7849C38.1828 41.7849 38.2402 42.8531 37.448 43.4467L36.6182 43.1929C36.6182 43.1929 37.1721 42.9281 37.448 41.7849H38.1828Z" fill="#37474F"/>
<path d="M5.02588 5.99387C5.02588 5.99387 5.51139 6.94724 6.49345 7.06421L7.09813 6.42863C7.09813 6.42863 6.48462 6.47718 5.67249 5.62753L5.02588 5.99387Z" fill="#455A64"/>
<path d="M15.293 38.9182C15.293 38.9182 15.7763 39.8716 16.7605 39.9885L17.3542 39.3529C17.3542 39.3529 16.7385 39.4015 15.9285 38.5518L15.293 38.9182Z" fill="#455A64"/>
<path d="M25.7441 21.2941C25.7441 21.2941 26.2274 22.2475 27.2117 22.3644L27.8032 21.7289C27.8032 21.7289 27.1896 21.7774 26.3797 20.9278L25.7441 21.2941Z" fill="#791E1E"/>
<path d="M35.3462 8.81648C35.3462 8.81648 35.8295 9.76984 36.8138 9.88681L37.4052 9.25123C37.4052 9.25123 36.7917 9.29978 35.9818 8.45013L35.3462 8.81648Z" fill="#455A64"/>
<path d="M14.7915 9.72791C14.7915 9.72791 15.853 9.86032 16.4996 9.10778L16.3032 8.26254C16.3032 8.26254 16.0009 8.79881 14.8423 8.99522L14.7915 9.72791Z" fill="#791E1E"/>
<path d="M32.9194 1.46316C32.9194 1.46316 33.9809 1.59557 34.6276 0.845232L34.4333 0C34.4333 0 34.1288 0.534064 32.9702 0.732682L32.9194 1.46316Z" fill="#791E1E"/>
<path d="M35.3267 15.5474C35.3267 15.5474 36.386 15.6776 37.0326 14.9273L36.8384 14.0821C36.8384 14.0821 36.5338 14.6183 35.3752 14.8147L35.3267 15.5474Z" fill="#791E1E"/>
<path d="M0.918945 36.5326C0.918945 36.5326 1.98045 36.665 2.62706 35.9146L2.43286 35.0672C2.43286 35.0672 2.12831 35.6035 0.969703 35.7999L0.918945 36.5326Z" fill="#791E1E"/>
<path d="M22.0615 13.6451C22.0615 13.6451 22.5448 14.5985 23.5291 14.7154L24.1227 14.0799C24.1227 14.0799 23.3967 14.1924 22.5779 13.3428L22.0615 13.6451Z" fill="#455A64"/>
<path d="M21.0015 15.0531C21.0015 15.0531 21.1913 16.1058 22.1049 16.4986L22.8552 16.0572C22.3243 15.8177 21.8831 15.4159 21.5951 14.9096L21.0015 15.0531Z" fill="#37474F"/>
<path d="M55.8434 9.56018C55.8434 9.56018 55.3601 10.5136 54.3759 10.6305L53.7822 9.99714C53.7822 9.99714 54.5083 10.1075 55.327 9.25784L55.8434 9.56018Z" fill="#455A64"/>
<path d="M51.0857 8.417C51.0857 8.417 50.8959 9.46968 49.9823 9.86471L49.2319 9.42334C49.7633 9.18348 50.2046 8.78081 50.4921 8.27356L51.0857 8.417Z" fill="#37474F"/>
<path d="M79.1568 60.7684C79.1796 61.5243 79.2682 62.2767 79.4216 63.0172C79.788 67.6296 80.2669 68.7132 80.8186 71.9065C80.8782 72.264 81.0216 72.9724 81.0393 73.2086C81.0658 73.5065 81.2026 75.7597 81.324 76.4306C81.4983 77.4149 83.1336 77.4391 83.2594 76.296C83.3432 75.5346 83.1402 73.5263 83.1248 73.16C83.1248 73.16 83.1248 72.5112 83.1248 72.1956C83.1248 70.7611 83.3609 68.0025 83.4977 65.511C83.6015 63.6329 83.213 62.6994 82.9813 61.7593C82.9813 61.7593 83.4536 58.716 84.0274 55.3594C84.6012 52.0027 85.9981 48.1583 83.2042 45.1173L79.3488 46.4414C79.3488 46.4414 78.9538 52.603 79.1038 57.6126C79.1347 59.0426 79.159 60.0688 79.1568 60.7684Z" fill="#FFBDA7"/>
<path d="M77.3672 66.2018C77.9608 66.9896 78.3404 67.9452 78.731 68.85C78.5599 69.324 78.3316 69.7753 78.0513 70.194L76.4756 68.1394C76.7823 67.4928 77.0737 66.8462 77.3672 66.2018Z" fill="#263238"/>
<path d="M78.0521 70.1962C77.3525 70.1962 76.6507 70.1962 75.9489 70.1962C75.598 69.7438 75.2427 69.2958 74.894 68.8434C75.6267 68.8655 76.3594 68.9096 77.1009 68.9295L78.0521 70.1962Z" fill="black"/>
<path d="M75.5116 65.3168C75.953 64.9924 75.9927 65.3786 76.3723 65.5552C76.6371 65.6788 77.0785 65.8443 77.3367 66.1974C77.6986 66.6917 77.414 67.5722 77.2374 68.2056C77.0687 68.822 77.0756 69.4732 77.2573 70.0859C77.4669 70.9995 77.4471 71.7454 76.7475 72.5443C76.1891 73.1843 74.417 73.9611 73.8079 73.5661C72.7685 72.904 74.2934 71.421 74.2714 70.5383C74.2452 69.4141 74.0972 68.296 73.83 67.2037C73.7903 67.0294 73.7704 66.844 73.8763 66.7623C74.3508 66.3364 75.0703 65.6412 75.5116 65.3168Z" fill="#37474F"/>
<path d="M76.2905 45.1129C75.4408 46.117 71.3405 51.2061 70.2723 52.9473C69.5706 54.0904 70.0516 55.5955 70.4401 56.8534C70.9454 58.5329 71.6649 60.4528 72.0864 61.6909C72.8742 63.9993 73.4569 65.2219 74.0902 67.2213C74.4566 67.6031 75.112 67.2743 75.4739 67.0183C75.7851 66.7976 76.1183 66.0164 76.0786 65.6235C75.9639 64.4848 75.9793 64.2994 75.8337 62.9753C75.613 60.8611 75.6527 57.5596 74.216 55.6507C76.3677 53.2651 78.7269 51.59 80.2959 48.7984C78.6011 47.8847 77.5285 43.6497 76.2905 45.1129Z" fill="#FFBDA7"/>
<path d="M80.9981 72.9151C80.7311 72.9482 80.7179 73.1622 80.709 74.2039C80.7237 75.3167 80.6559 76.4291 80.506 77.5318C80.3118 78.7037 80.1066 79.9594 81.0621 80.9966C81.6227 81.6079 82.543 81.7514 83.1918 80.7627C83.7965 79.8424 84.1783 78.9707 83.8847 77.9247C83.6139 77.03 83.4582 76.1045 83.4213 75.1705C83.375 73.7162 83.4566 72.9393 83.1256 72.9416V73.1622C83.0174 73.3542 82.6842 73.6036 82.0972 73.6279C81.4351 73.6544 81.1372 73.4072 81.0401 73.2108C81.029 73.1115 81.0136 73.0144 80.9981 72.9151Z" fill="#37474F"/>
<path d="M76.4056 44.1551C75.9819 44.9562 74.5319 46.6401 72.8371 48.9551C71.6652 50.5573 69.6106 52.9892 69.5025 54.1831C69.3943 55.3771 72.2765 62.5317 72.2765 62.5317C72.2765 62.5317 74.6798 62.8142 75.7656 61.6027C75.8031 59.601 75.5449 57.169 74.4812 55.7544C74.9535 55.2755 78.3719 51.7159 78.9942 50.9722C78.9942 50.9722 78.8927 54.4767 78.8861 56.4628C78.8795 58.449 79.1068 62.4214 79.2789 63.6926C79.4511 64.9637 79.6828 66.8506 79.7821 67.4442C79.7821 67.4442 81.2673 68.8169 83.5338 67.3979C83.5338 67.3979 83.7545 65.3941 83.6838 64.5091C83.6132 63.6241 83.3109 62.556 83.1299 61.7924C83.1299 61.7924 84.0127 56.3988 84.443 54.0088C84.8733 51.6188 85.6899 47.9642 83.5294 44.4575C83.5382 44.4553 79.4533 45.797 76.4056 44.1551Z" fill="#455A64"/>
<path d="M78.9937 50.9677C78.9937 50.9677 77.6232 50.0982 77.0561 49.0919C77.0561 49.0919 77.354 50.288 78.1595 50.9677L75.7319 54.4502L78.9937 50.9677Z" fill="#37474F"/>
<path d="M70.9018 29.4905C72.601 33.3569 74.9006 34.7053 75.9776 37.1858C77.337 37.0777 79.204 34.8134 78.1734 33.4209C77.0104 32.9464 73.219 28.9189 72.9806 27.2041C72.771 25.6814 71.9213 23.3178 71.9434 22.0489C71.9523 21.8374 72.0369 21.6361 72.1817 21.4817C72.5944 21.0271 72.59 20.6674 72.8438 20.1576C73.0468 19.7692 73.2741 19.6213 73.2079 19.5353C73.1211 19.444 73.0031 19.389 72.8774 19.3812C72.7518 19.3735 72.6278 19.4135 72.5304 19.4933C72.3379 19.6341 72.1669 19.8021 72.0228 19.9921C72.0876 19.5177 72.2191 19.0548 72.4135 18.6172C72.8548 17.5667 72.7445 17.0349 71.3387 17.4233C70.456 17.6682 69.9109 18.4097 69.8049 20.5372C69.7544 21.4194 69.7595 22.3039 69.8204 23.1854C69.9947 24.8185 70.1801 26.3832 70.3986 27.7338C70.4904 28.3385 70.6595 28.9289 70.9018 29.4905Z" fill="#FFBDA7"/>
<path d="M76.2445 43.0715C76.1231 42.5022 75.9797 41.4274 75.8936 40.644C74.4614 39.3022 74.863 37.839 75.3838 36.7621C76.4255 34.6082 77.434 33.3856 78.3764 33.4209L80.9584 33.6129C82.3664 33.7784 83.3308 33.9395 83.6706 34.0123C84.5402 34.2021 84.5137 34.8333 84.5534 35.7535C84.6607 36.7013 84.6287 37.6597 84.4585 38.5982L83.2712 41.1648L83.1653 42.7449C83.1653 42.7449 84.6042 45.6337 84.8646 47.5096C84.145 47.3016 83.5025 46.8864 83.0174 46.3156C83.0174 46.3156 81.8985 48.0039 79.1223 48.1429C76.346 48.282 74.9734 45.8147 74.9734 45.8147L76.2445 43.0715Z" fill="#791E1E"/>
<path opacity="0.1" d="M81.7949 39.8561C81.5912 40.2504 81.2777 40.5772 80.8924 40.7973C80.5071 41.0173 80.0663 41.1212 79.6233 41.0964C79.1957 41.0868 78.7783 40.9643 78.4132 40.7415C78.0482 40.5187 77.7485 40.2034 77.5444 39.8275C77.5444 39.8275 77.6261 41.5223 79.6277 41.5025C81.6294 41.4826 81.7949 39.8561 81.7949 39.8561Z" fill="black"/>
<path d="M82.4337 23.9225C83.3783 24.4102 83.8616 24.9972 84.6406 25.2135C85.4196 25.4298 86.0486 25.1981 86.6268 24.717C87.2888 24.1719 87.6022 23.4833 88.2885 23.0596C88.9749 22.6359 89.8334 22.3733 90.5947 22.6337C91.5481 22.9581 92.0777 23.9799 92.3249 24.9553C92.6295 26.1669 92.5147 27.5307 91.8284 28.5922C90.5806 30.4771 88.7171 31.8703 86.5561 32.5337C83.902 33.3423 81.0371 33.0851 78.5695 31.8165C77.5543 31.2956 77.2277 30.8432 76.4928 29.998C75.7579 29.1528 75.4843 28.12 75.7138 26.7517C75.9345 25.443 76.6318 24.6 77.967 23.9004C78.6531 23.5275 79.4223 23.334 80.2032 23.3378C80.9841 23.3417 81.7513 23.5428 82.4337 23.9225Z" fill="#791E1E"/>
<path opacity="0.5" d="M82.4337 23.9225C83.3783 24.4102 83.8616 24.9972 84.6406 25.2135C85.4196 25.4298 86.0486 25.1981 86.6268 24.717C87.2888 24.1719 87.6022 23.4833 88.2885 23.0596C88.9749 22.6359 89.8334 22.3733 90.5947 22.6337C91.5481 22.9581 92.0777 23.9799 92.3249 24.9553C92.6295 26.1669 92.5147 27.5307 91.8284 28.5922C90.5806 30.4771 88.7171 31.8703 86.5561 32.5337C83.902 33.3423 81.0371 33.0851 78.5695 31.8165C77.5543 31.2956 77.2277 30.8432 76.4928 29.998C75.7579 29.1528 75.4843 28.12 75.7138 26.7517C75.9345 25.443 76.6318 24.6 77.967 23.9004C78.6531 23.5275 79.4223 23.334 80.2032 23.3378C80.9841 23.3417 81.7513 23.5428 82.4337 23.9225Z" fill="black"/>
<path d="M77.6147 25.5732C77.1248 25.8469 76.5113 27.0452 76.498 29.592C76.498 31.7481 77.1822 32.2976 77.5287 32.4609C77.8751 32.6242 78.5549 32.5447 79.2147 32.4609L79.1838 33.7563C79.1838 33.7563 77.319 35.7006 78.8263 35.9279C79.5788 36.0426 80.5432 35.588 81.1965 35.0959C81.6169 34.7501 81.9205 34.2831 82.066 33.7585L82.119 30.9426C82.119 30.9426 82.4963 31.3288 83.1672 30.7704C83.7211 30.3092 83.922 29.5147 83.5093 29.0755C83.4021 28.9711 83.2716 28.8936 83.1286 28.8494C82.9856 28.8052 82.8342 28.7957 82.6867 28.8216C82.5393 28.8474 82.4002 28.908 82.2807 28.9982C82.1613 29.0884 82.065 29.2057 81.9998 29.3404C81.9998 29.3404 81.6136 29.3624 81.245 28.6364C80.5969 28.6918 79.9487 28.5303 79.4023 28.1774C78.9444 27.8859 78.5501 27.5051 78.2429 27.0576C77.9357 26.6102 77.7221 26.1053 77.6147 25.5732Z" fill="#FFBDA7"/>
<path d="M79.2984 28.9806C79.2922 29.0534 79.3149 29.1256 79.3616 29.1818C79.4082 29.2379 79.4751 29.2735 79.5477 29.2808C79.6214 29.2844 79.6935 29.2589 79.7484 29.2097C79.8033 29.1605 79.8367 29.0917 79.8412 29.0181C79.8437 28.9825 79.8391 28.9467 79.8278 28.9128C79.8164 28.879 79.7985 28.8477 79.775 28.8207C79.7515 28.7938 79.723 28.7717 79.691 28.7558C79.659 28.7399 79.6242 28.7304 79.5886 28.7279C79.5529 28.7255 79.5171 28.7301 79.4833 28.7414C79.4494 28.7528 79.4181 28.7707 79.3911 28.7942C79.3642 28.8176 79.3421 28.8462 79.3262 28.8782C79.3103 28.9102 79.3008 28.945 79.2984 28.9806Z" fill="#263238"/>
<g style="mix-blend-mode:multiply" opacity="0.5">
<path d="M78.9192 30.7771L78.0674 31.0264C78.082 31.083 78.1077 31.1361 78.143 31.1826C78.1782 31.2292 78.2224 31.2683 78.2729 31.2976C78.3234 31.327 78.3792 31.346 78.4371 31.3536C78.4951 31.3613 78.5539 31.3573 78.6103 31.342C78.725 31.3063 78.8213 31.2274 78.8789 31.122C78.9365 31.0166 78.951 30.8929 78.9192 30.7771Z" fill="#F0997A"/>
</g>
<path d="M76.869 28.078L77.4273 27.7117C77.4054 27.6738 77.376 27.6409 77.3408 27.6148C77.3057 27.5888 77.2656 27.5702 77.223 27.5603C77.1804 27.5504 77.1362 27.5493 77.0931 27.5571C77.0501 27.5649 77.0091 27.5815 76.9727 27.6058C76.8982 27.6562 76.8458 27.7333 76.8265 27.8212C76.8072 27.9091 76.8224 28.001 76.869 28.078Z" fill="#263238"/>
<path d="M79.7051 28.045L80.323 28.3009C80.3429 28.2611 80.3543 28.2176 80.3565 28.1732C80.3586 28.1287 80.3515 28.0843 80.3355 28.0427C80.3195 28.0012 80.295 27.9635 80.2636 27.9319C80.2322 27.9004 80.1945 27.8757 80.1531 27.8596C80.0689 27.8269 79.9754 27.8279 79.8919 27.8624C79.8085 27.897 79.7416 27.9623 79.7051 28.045Z" fill="#263238"/>
<path d="M76.9987 28.8659C76.9971 28.9191 77.0111 28.9715 77.0391 29.0168C77.0671 29.062 77.1077 29.098 77.156 29.1203C77.2042 29.1427 77.258 29.1503 77.3106 29.1424C77.3632 29.1344 77.4122 29.1112 77.4517 29.0756C77.4912 29.04 77.5194 28.9936 77.5327 28.9421C77.5461 28.8906 77.544 28.8364 77.5268 28.786C77.5095 28.7357 77.4779 28.6916 77.4358 28.6591C77.3937 28.6266 77.343 28.6072 77.29 28.6033C77.2535 28.6012 77.2171 28.6064 77.1827 28.6185C77.1483 28.6306 77.1166 28.6494 77.0895 28.6738C77.0624 28.6982 77.0404 28.7278 77.0248 28.7608C77.0092 28.7937 77.0003 28.8295 76.9987 28.8659Z" fill="#263238"/>
<g style="mix-blend-mode:multiply" opacity="0.5">
<path d="M78.3036 28.7423L78.222 30.3732L77.3701 30.0863L78.3036 28.7423Z" fill="#F0997A"/>
</g>
<g style="mix-blend-mode:multiply" opacity="0.5">
<path d="M79.2149 32.4587C79.9123 32.3859 81.3467 32.0173 81.5829 31.4502C81.4877 31.7338 81.3074 31.9812 81.0665 32.1586C80.6251 32.5139 79.2061 32.8913 79.2061 32.8913L79.2149 32.4587Z" fill="#F0997A"/>
</g>
<path d="M81.9995 29.3293L81.973 30.4615C81.8717 30.4592 81.7718 30.4369 81.6791 30.3959C81.5863 30.3549 81.5026 30.2961 81.4327 30.2227C81.3628 30.1493 81.3081 30.0628 81.2716 29.9682C81.2352 29.8736 81.2178 29.7727 81.2205 29.6714L81.2448 28.6253L81.9995 29.3293Z" fill="#791E1E"/>
<path opacity="0.5" d="M81.9995 29.3293L81.973 30.4615C81.8717 30.4592 81.7718 30.4369 81.6791 30.3959C81.5863 30.3549 81.5026 30.2961 81.4327 30.2227C81.3628 30.1493 81.3081 30.0628 81.2716 29.9682C81.2352 29.8736 81.2178 29.7727 81.2205 29.6714L81.2448 28.6253L81.9995 29.3293Z" fill="black"/>
<path d="M89.3553 29.8105C87.7509 33.7166 85.7647 36.1089 84.4693 38.607C82.2624 38.7372 82.0616 35.3276 83.0569 33.9108C83.0569 33.9108 86.8924 29.2764 87.2323 27.5749C87.5324 26.0676 88.1989 23.6643 88.1437 22.3954C88.1317 22.1839 88.0421 21.9843 87.8921 21.8348C87.4706 21.3934 87.4662 21.0293 87.1904 20.535C86.9697 20.151 86.749 20.0097 86.8108 19.9215C86.8955 19.828 87.0125 19.7701 87.1382 19.7594C87.264 19.7488 87.389 19.7862 87.4883 19.8641C87.6836 20.0001 87.8583 20.1636 88.0069 20.3496C87.9301 19.8774 87.7875 19.4183 87.5832 18.9857C87.1087 17.9463 87.2146 17.41 88.6292 17.7653C89.512 17.986 90.0792 18.7187 90.238 20.8417C90.31 21.7226 90.3255 22.6071 90.2844 23.49C90.152 25.1275 90.0019 26.6943 89.8187 28.0516C89.7395 28.6552 89.5838 29.2462 89.3553 29.8105Z" fill="#FFBDA7"/>
<path d="M45.3838 75.9849C45.5449 76.413 45.7854 76.8389 46.2665 76.9978C47.2552 77.3266 48.5396 76.477 49.0715 75.8436C49.7159 75.0756 49.813 74.2569 50.2853 73.6191C50.7575 72.9813 51.424 72.5774 51.7462 72.0257C51.8789 71.8195 51.9572 71.583 51.9737 71.3384C51.9903 71.0937 51.9447 70.8488 51.8411 70.6266C51.6893 70.3502 51.4589 70.1251 51.179 69.98C51.1062 69.9358 50.9782 69.9314 50.8988 69.8873L45.3838 75.9849Z" fill="#263238"/>
<path d="M47.4383 71.9617C47.3696 72.3584 47.2144 72.7352 46.9837 73.0652C46.5732 73.6125 46.0458 74.0163 45.5624 74.4908C45.3884 74.6309 45.2469 74.8071 45.1476 75.0072C44.9445 75.5369 45.1829 75.965 45.5558 76.3777C45.7187 76.5262 45.9146 76.6336 46.1274 76.6911C46.4409 76.7772 46.7717 76.7772 47.0852 76.6911C47.6894 76.484 48.2298 76.1244 48.6543 75.6472C49.4907 74.7115 49.4377 73.4823 50.4352 72.6613C51.4327 71.8404 52.1036 70.9642 51.0863 69.9049C50.5919 69.3885 50.0402 69.1678 49.8923 68.9824C49.6275 68.6536 49.0096 69.2296 48.8132 69.3973C48.6168 69.5651 48.427 69.7637 48.2261 69.9402C48.0412 70.1484 47.8716 70.3697 47.7186 70.6023C47.6551 70.6672 47.6022 70.7417 47.5619 70.823C47.5272 70.9312 47.5137 71.0451 47.5222 71.1584C47.5211 71.4283 47.493 71.6974 47.4383 71.9617Z" fill="#37474F"/>
<path d="M48.6696 75.6406C48.7859 75.518 48.8908 75.385 48.983 75.2433C48.8257 74.7703 48.5151 74.3633 48.1002 74.0869C47.843 73.9122 47.5516 73.7943 47.2453 73.7411C46.9389 73.6878 46.6248 73.7004 46.3237 73.778C46.018 73.9657 45.7292 74.1799 45.4608 74.418C45.2853 74.5696 45.1522 74.7643 45.0746 74.9829C45.0055 75.2404 45.0156 75.5128 45.1038 75.7644C45.1921 76.016 45.3542 76.2352 45.569 76.3931C45.7238 76.5361 45.9132 76.6365 46.1185 76.6844C46.4327 76.7705 46.7643 76.7705 47.0785 76.6844C47.6847 76.4688 48.2304 76.1108 48.6696 75.6406Z" fill="#FAFAFA"/>
<path d="M49.1928 67.3096L49.7887 69.1347C49.7887 69.1347 50.2455 69.7328 49.526 70.4257C48.8066 71.1187 48.0011 71.0878 47.6546 70.6663L46.6284 68.7286L49.1928 67.3096Z" fill="#B16668"/>
<path d="M64.1971 63.6197C64.4597 63.7433 65.1526 63.7897 65.5344 63.5293C66.3311 62.9864 66.501 61.3864 66.2517 60.5014C65.9471 59.4289 65.3513 58.886 65.1482 58.2416C64.9452 57.5972 65.0004 56.6747 64.7311 56.112C64.6218 55.8939 64.4665 55.7021 64.2761 55.5498C64.0856 55.3974 63.8644 55.288 63.6277 55.2292C63.4776 55.1882 63.3202 55.1818 63.1673 55.2105C63.0144 55.2392 62.87 55.3022 62.7449 55.3947L62.5044 55.5713L64.1971 63.6197Z" fill="#263238"/>
<path d="M62.1714 59.5679C62.454 59.8599 62.6622 60.2157 62.7783 60.6052C62.9813 61.2451 62.999 61.9293 63.085 62.5913C63.1032 62.8131 63.1607 63.0298 63.255 63.2313C63.4977 63.697 64.0516 63.783 64.6034 63.7124C64.8233 63.6648 65.0294 63.5674 65.2058 63.4277C65.4609 63.2269 65.6556 62.9596 65.7686 62.6553C65.9579 62.0402 65.9868 61.3869 65.8525 60.7574C65.6516 59.5613 64.4489 58.7712 64.4643 57.5928C64.4798 56.4143 63.789 54.8894 62.306 55.6706C61.5691 56.0813 60.8993 56.6023 60.3198 57.2154C60.6729 57.745 61.0349 58.2725 61.3813 58.8066C61.4486 58.9418 61.534 59.0673 61.6351 59.1795C61.7874 59.3141 61.986 59.387 62.1383 59.5326L62.1714 59.5679Z" fill="#37474F"/>
<path d="M65.8526 60.7773C65.8234 60.6124 65.7768 60.4512 65.7136 60.2962C65.2464 60.1324 64.7366 60.1371 64.2725 60.3094C63.9714 60.4032 63.6967 60.5665 63.4705 60.7862C63.2442 61.0059 63.073 61.2758 62.9704 61.574C62.9395 61.9315 62.9395 62.2911 62.9704 62.6487C62.9931 62.8791 63.0686 63.1011 63.1911 63.2975C63.5155 63.7676 64.0386 63.8029 64.5903 63.7389C64.81 63.6908 65.016 63.5935 65.1928 63.4542C65.4473 63.2529 65.6419 62.9858 65.7555 62.6818C65.9504 62.0658 65.9838 61.41 65.8526 60.7773Z" fill="#FAFAFA"/>
<path d="M60.6552 56.4915L61.5888 56.4518C61.8301 56.5598 62.0424 56.7235 62.2081 56.9296C62.3739 57.1356 62.4883 57.378 62.5421 57.6369C62.5851 57.903 62.5723 58.1752 62.5047 58.4362C62.4371 58.6971 62.3161 58.9412 62.1493 59.153L60.6045 59.3561L60.6508 56.5533" fill="#B16668"/>
<path d="M60.7258 56.3724L54.2795 56.4364C54.2795 56.4364 55.4492 47.7877 55.063 42.7251L44.7172 41.5356L44.6863 41.5996C42.9892 46.117 41.1972 52.0094 40.2218 56.4496C39.9216 57.8179 40.0761 58.1908 41.1398 60.2013C42.6339 63.0217 45.1762 66.7954 46.9969 69.66C48.4357 69.532 49.2037 69.095 49.5348 67.9055C48.4048 65.2727 47.4493 59.5922 44.9003 57.1823C46.3238 54.6444 47.6589 51.7291 49.0184 48.9286C49.0603 50.7118 49.239 56.5578 49.8592 58.9655C50.2432 60.4772 51.0818 61.3798 52.7546 61.1127C55.085 60.7398 61.2422 59.3605 61.2422 59.3605C62.4781 59.1839 62.1691 56.8733 60.7258 56.3724Z" fill="#791E1E"/>
<path opacity="0.2" d="M60.7258 56.3724L54.2795 56.4364C54.2795 56.4364 55.4492 47.7877 55.063 42.7251L44.7172 41.5356L44.6863 41.5996C42.9892 46.117 41.1972 52.0094 40.2218 56.4496C39.9216 57.8179 40.0761 58.1908 41.1398 60.2013C42.6339 63.0217 45.1762 66.7954 46.9969 69.66C48.4357 69.532 49.2037 69.095 49.5348 67.9055C48.4048 65.2727 47.4493 59.5922 44.9003 57.1823C46.3238 54.6444 47.6589 51.7291 49.0184 48.9286C49.0603 50.7118 49.239 56.5578 49.8592 58.9655C50.2432 60.4772 51.0818 61.3798 52.7546 61.1127C55.085 60.7398 61.2422 59.3605 61.2422 59.3605C62.4781 59.1839 62.1691 56.8733 60.7258 56.3724Z" fill="black"/>
<path opacity="0.2" d="M54.286 56.4364C54.286 56.4364 54.3742 57.6038 53.8755 58.4755C54.2287 58.1444 54.5026 57.7378 54.6766 57.286C54.9414 56.5666 57.007 56.7365 58.5519 56.4033L54.286 56.4364Z" fill="black"/>
<path opacity="0.2" d="M49.016 48.933L48.9145 47.3043C48.0322 46.7989 47.2486 46.138 46.6017 45.3535C47.1009 46.1475 47.722 46.858 48.4422 47.4588L48.5967 48.6108L46.3457 54.4678L49.016 48.933Z" fill="black"/>
<path opacity="0.2" d="M44.9024 57.1757C44.7634 57.3782 44.5875 57.5527 44.3838 57.6899C44.9863 58.02 45.5173 58.4663 45.9463 59.003C46.4124 59.6369 46.8371 60.3003 47.2174 60.9892C46.6017 59.4841 45.8712 58.0982 44.9024 57.1757Z" fill="black"/>
<path d="M41.0053 24.269C41.3231 25.0878 45.2469 30.8896 46.1892 32.2777C48.8684 31.1346 47.0852 27.9854 47.0852 27.9854C47.0852 27.9854 44.2692 23.4282 43.8124 22.6602C43.7048 22.4644 43.6373 22.2491 43.6138 22.0268C43.5564 21.6208 43.3578 16.6376 43.6006 15.1326C43.646 14.8653 43.7882 14.6242 44 14.4551C44.5628 13.9982 44.7592 13.5723 45.1586 13.0382C45.4698 12.6167 45.7655 12.4843 45.7015 12.3762C45.6159 12.253 45.4869 12.1667 45.3403 12.1348C45.1937 12.1029 45.0405 12.1276 44.9114 12.204C44.6203 12.3633 44.3491 12.5566 44.1037 12.78C44.2458 12.2017 44.4805 11.6502 44.7989 11.1469C45.5227 9.99055 45.4808 9.34393 43.7528 9.54476C42.6693 9.67055 41.6144 10.5092 41.1046 12.9963C40.9567 13.7113 40.9236 14.7905 40.8684 15.7174C40.7493 17.8227 40.6698 21.1551 40.7096 22.6139C40.7228 23.3465 40.6897 23.4525 41.0053 24.269Z" fill="#B16668"/>
<path d="M48.7825 27.3829C47.8534 27.2461 44.8101 23.9159 44.8101 23.9159C43.9604 23.8673 41.8771 26.0455 42.2898 26.9327C43.5279 28.9939 45.1014 30.9051 45.5295 32.2292C45.8848 32.9751 46.836 32.3417 47.2465 30.7727C47.8225 28.6033 49.5372 27.5021 48.7825 27.3829Z" fill="#791E1E"/>
<path opacity="0.3" d="M48.7825 27.3829C47.8534 27.2461 44.8101 23.9159 44.8101 23.9159C43.9604 23.8673 41.8771 26.0455 42.2898 26.9327C43.5279 28.9939 45.1014 30.9051 45.5295 32.2292C45.8848 32.9751 46.836 32.3417 47.2465 30.7727C47.8225 28.6033 49.5372 27.5021 48.7825 27.3829Z" fill="black"/>
<path d="M55.6701 31.3178L55.4494 35.2725L55.2088 43.6829C52.1567 45.1107 47.6503 44.25 44.585 41.7805C44.585 41.7805 44.7593 32.1012 45.3905 29.8634C46.0216 27.6257 47.156 27.1821 48.7339 27.2306C50.4001 27.2836 52.5407 27.5175 52.5407 27.5175L54.3636 28.003C54.3636 28.003 55.7076 30.5255 55.6701 31.3178Z" fill="#455A64"/>
<path d="M56.961 24.8053C57.1684 24.6993 58.124 25.176 58.7066 25.9992C59.2892 26.8224 59.3289 27.9854 59.148 28.2061C58.967 28.4268 56.6211 27.3829 56.6211 27.3829L56.961 24.8053Z" fill="#791E1E"/>
<path opacity="0.6" d="M56.961 24.8053C57.1684 24.6993 58.124 25.176 58.7066 25.9992C59.2892 26.8224 59.3289 27.9854 59.148 28.2061C58.967 28.4268 56.6211 27.3829 56.6211 27.3829L56.961 24.8053Z" fill="black"/>
<path d="M60.8095 25.4254C60.4189 26.2111 55.9654 31.6157 54.8951 32.9111C52.3373 31.5208 54.4096 28.5548 54.4096 28.5548C54.4096 28.5548 57.636 24.2933 58.1657 23.5606C58.2917 23.3759 58.3801 23.1682 58.4261 22.9493C58.5188 22.5477 59.1875 17.6065 59.0882 16.0859C59.0679 15.8162 58.9493 15.5633 58.7549 15.3753C58.2385 14.8655 58.0818 14.4264 57.7353 13.8526C57.4639 13.4112 57.1836 13.2457 57.2565 13.1376C57.3536 13.0232 57.4902 12.9497 57.6391 12.9317C57.788 12.9137 57.9382 12.9526 58.0598 13.0405C58.3352 13.2264 58.5871 13.445 58.8101 13.6915C58.7221 13.1019 58.5395 12.5303 58.2694 11.9988C57.6581 10.7806 57.7618 10.1384 59.4633 10.5003C60.5292 10.721 61.5025 11.6656 61.7828 14.188C61.8622 14.9141 61.7938 15.991 61.7607 16.9179C61.6812 19.0277 61.4473 22.3512 61.2708 23.8012C61.1781 24.5338 61.2023 24.642 60.8095 25.4254Z" fill="#B16668"/>
<path d="M53.7542 27.8839L56.9608 24.7943C56.9608 24.7943 56.6717 27.4425 59.1434 28.1995L55.4601 32.8582C55.0342 33.5688 53.8667 32.6375 53.6063 31.0441C53.2422 28.824 53.7542 27.8839 53.7542 27.8839Z" fill="#791E1E"/>
<path opacity="0.3" d="M53.7542 27.8839L56.9608 24.7943C56.9608 24.7943 56.6717 27.4425 59.1434 28.1995L55.4601 32.8582C55.0342 33.5688 53.8667 32.6375 53.6063 31.0441C53.2422 28.824 53.7542 27.8839 53.7542 27.8839Z" fill="black"/>
<path d="M52.0506 20.4335C52.0247 20.9974 51.8321 21.5409 51.4972 21.9953C51.1623 22.4497 50.7001 22.7945 50.1692 22.9862C49.6383 23.1779 49.0624 23.2079 48.5145 23.0722C47.9665 22.9366 47.4711 22.6415 47.091 22.2242C46.7108 21.807 46.4629 21.2863 46.3786 20.7282C46.2944 20.17 46.3776 19.5994 46.6177 19.0885C46.8578 18.5777 47.2441 18.1495 47.7276 17.8582C48.2111 17.5669 48.7701 17.4255 49.334 17.452C50.0893 17.488 50.7994 17.8222 51.3087 18.3811C51.818 18.94 52.0848 19.6781 52.0506 20.4335Z" fill="#263238"/>
<path d="M54.0325 22.5587C54.0325 22.5587 53.4676 24.706 53.2667 25.0547C53.1339 25.2726 52.922 25.4308 52.6753 25.496L52.7812 23.9689L54.0325 22.5587Z" fill="#263238"/>
<path d="M53.5996 19.4205C53.7619 19.4093 53.9246 19.4353 54.0752 19.4965C54.2259 19.5576 54.3607 19.6524 54.4691 19.7736C54.8311 20.1819 54.5618 21.389 54.0278 22.5587L53.145 22.6161L53.5996 19.4205Z" fill="#263238"/>
<path d="M52.8956 22.605C53.0655 22.7176 53.337 22.3954 53.5577 22.1791C53.7784 21.9628 54.5022 21.6892 54.8178 22.4439C55.1334 23.1987 54.425 24.1763 53.8644 24.3242C52.8956 24.578 52.7831 23.96 52.7831 23.96L52.5447 27.491C51.289 28.9542 48.0052 28.6695 49.4551 27.1468L49.5059 26.1007C49.0782 26.1464 48.6469 26.1464 48.2193 26.1007C47.5219 25.9595 47.1158 25.3835 46.9304 24.6155C46.6458 23.3818 46.5641 22.391 46.9658 20.0075C47.4071 17.3946 50.4659 17.5116 52.0658 18.6282C53.6658 19.7449 52.8956 22.605 52.8956 22.605Z" fill="#B16668"/>
<path d="M52.8828 22.8986C52.9711 22.8986 53.3242 22.3667 53.5559 22.1791C53.8715 21.9187 53.6001 19.4205 53.6001 19.4205C53.7136 19.207 53.7605 18.9644 53.7345 18.7239C53.7085 18.4835 53.6109 18.2564 53.4544 18.0721C53.0638 17.5999 52.5143 17.0172 50.634 17.1497C49.2922 17.2445 47.8203 17.591 46.6749 16.9621C46.5471 17.3391 46.5356 17.7459 46.6419 18.1296C46.7481 18.5132 46.9672 18.8561 47.2707 19.1138C47.2707 19.1138 47.6812 19.4095 48.7913 19.5971C49.8162 19.7214 50.8505 19.751 51.8809 19.6853C52.2053 19.6545 52.2605 19.9722 52.3951 20.8373C52.5209 21.5987 52.5871 22.8787 52.8828 22.8986Z" fill="#263238"/>
<path d="M53.5889 19.6147L54.6703 19.0961C54.64 19.0235 54.5952 18.9578 54.5388 18.9031C54.4823 18.8483 54.4153 18.8056 54.3418 18.7775C54.2684 18.7495 54.1899 18.7366 54.1113 18.7398C54.0328 18.743 53.9556 18.7621 53.8846 18.7959C53.7389 18.8675 53.6266 18.9929 53.5715 19.1456C53.5163 19.2983 53.5226 19.4665 53.5889 19.6147Z" fill="#263238"/>
<path d="M49.4996 26.1117C49.4996 26.1117 51.0797 25.8712 51.6403 25.6064C51.9695 25.4531 52.2454 25.2049 52.4325 24.8936C52.335 25.2101 52.1743 25.5036 51.9603 25.7564C51.5365 26.2486 49.4819 26.5288 49.4819 26.5288L49.4996 26.1117Z" fill="#9A4A4D"/>
<path d="M50.0664 22.0864C50.0656 22.1484 50.0831 22.2093 50.1167 22.2615C50.1503 22.3136 50.1985 22.3547 50.2553 22.3796C50.3121 22.4045 50.375 22.4121 50.4361 22.4014C50.4972 22.3908 50.5539 22.3624 50.5989 22.3198C50.644 22.2771 50.6754 22.2222 50.6894 22.1617C50.7034 22.1013 50.6993 22.0381 50.6776 21.98C50.6558 21.9219 50.6175 21.8715 50.5673 21.8351C50.5171 21.7987 50.4572 21.7778 50.3953 21.7752C50.3532 21.7741 50.3114 21.7812 50.2721 21.7962C50.2328 21.8112 50.1969 21.8338 50.1664 21.8627C50.1358 21.8916 50.1113 21.9262 50.0941 21.9646C50.077 22.003 50.0676 22.0444 50.0664 22.0864Z" fill="#263238"/>
<path d="M50.4551 20.9124L51.1171 21.314C51.1695 21.2242 51.1852 21.1176 51.1609 21.0164C51.1367 20.9153 51.0744 20.8274 50.9869 20.7711C50.9433 20.7435 50.8944 20.7252 50.8433 20.7174C50.7922 20.7096 50.7401 20.7124 50.6902 20.7256C50.6402 20.7389 50.5936 20.7623 50.5531 20.7945C50.5127 20.8266 50.4793 20.8667 50.4551 20.9124Z" fill="#263238"/>
<path d="M49.7312 24.2359L49.0029 24.4698C49.0157 24.5183 49.038 24.5637 49.0686 24.6034C49.0991 24.6431 49.1374 24.6763 49.181 24.701C49.2246 24.7257 49.2727 24.7414 49.3225 24.7471C49.3722 24.7529 49.4227 24.7487 49.4708 24.7347C49.5712 24.7027 49.6549 24.6323 49.7037 24.5389C49.7525 24.4455 49.7624 24.3366 49.7312 24.2359Z" fill="#9A4A4D"/>
<path d="M47.3148 21.0249L47.9482 20.5835C47.9216 20.5407 47.8866 20.5038 47.8452 20.475C47.8039 20.4462 47.7571 20.4261 47.7078 20.416C47.6584 20.4059 47.6075 20.4059 47.5581 20.4161C47.5088 20.4264 47.4621 20.4465 47.4208 20.4754C47.3365 20.5363 47.2785 20.627 47.2588 20.7292C47.2392 20.8313 47.2592 20.9371 47.3148 21.0249Z" fill="#263238"/>
<path d="M47.4625 21.8657C47.4576 21.9088 47.4615 21.9524 47.4742 21.9939C47.4869 22.0354 47.508 22.0738 47.5361 22.1068C47.5643 22.1397 47.599 22.1665 47.638 22.1855C47.6769 22.2045 47.7194 22.2152 47.7628 22.217C47.8061 22.2189 47.8493 22.2117 47.8898 22.1961C47.9302 22.1805 47.967 22.1567 47.9979 22.1262C48.0287 22.0957 48.0529 22.0592 48.069 22.019C48.0851 21.9787 48.0928 21.9355 48.0915 21.8922C48.0964 21.8491 48.0924 21.8055 48.0798 21.764C48.0671 21.7225 48.046 21.6841 48.0179 21.6511C47.9897 21.6182 47.955 21.5914 47.916 21.5724C47.877 21.5534 47.8346 21.5427 47.7912 21.5409C47.7479 21.539 47.7047 21.5462 47.6642 21.5618C47.6238 21.5774 47.587 21.6012 47.5561 21.6317C47.5253 21.6622 47.5011 21.6987 47.4849 21.739C47.4688 21.7792 47.4612 21.8224 47.4625 21.8657Z" fill="#263238"/>
<path d="M49.0759 21.6451L48.8839 23.5275L47.915 23.1435L49.0759 21.6451Z" fill="#9A4A4D"/>
<path d="M28.4483 75.4795L28.5366 75.1727C28.552 75.5677 28.6624 77.2781 29.2847 78.3021C29.7812 79.1142 30.4963 80.0963 30.5294 80.851C30.5625 81.6058 28.9691 81.4314 28.3688 81.1357C27.6737 80.7914 26.8461 80.0985 26.5151 79.3128C26.2811 78.7611 26.2061 78.1652 26.0472 77.7393C25.8883 77.3134 25.4072 76.7462 25.3851 76.2982C25.3741 76.0533 25.6058 75.592 25.8265 75.2102C26.0472 74.8284 26.3231 74.4577 26.4422 74.5305C26.429 74.5769 26.3164 74.7821 26.3164 74.7821C26.4202 75.0028 26.802 75.2963 27.2808 75.4552C27.6008 75.5589 28.3799 75.7134 28.4483 75.4795Z" fill="#263238"/>
<path d="M14.1921 69.6114L14.4128 69.543C14.1921 69.8696 13.3358 71.4387 13.2321 72.6326C13.1483 73.5815 13.1416 74.7953 12.7201 75.4221C12.2986 76.0488 11.1179 74.963 10.8134 74.3694C10.4559 73.6809 10.2021 72.6304 10.4007 71.8028C10.5419 71.2202 10.8421 70.6994 10.959 70.258C11.076 69.8166 11.0341 69.0795 11.2813 68.7132C11.4181 68.5079 11.8793 68.2718 12.2898 68.1041C12.6672 67.9474 13.1372 67.7929 13.1902 67.9231C13.1527 67.9518 12.9386 68.0489 12.9386 68.0489C12.8945 68.2873 13.0247 68.7529 13.316 69.1656C13.5439 69.4161 13.8555 69.5746 14.1921 69.6114Z" fill="#263238"/>
<path d="M33.8015 62.0551C34.0221 61.3775 34.5761 59.9387 34.4635 59.2347C33.9802 55.9442 32.9077 52.1903 32.548 51.0053C32.0646 49.4163 31.4997 47.0726 30.8906 44.3846C30.906 43.6365 30.9127 42.97 30.9127 42.97L23.8507 43.5791C23.0363 45.5653 21.7431 48.9793 22.233 53.2894C22.4596 55.3007 22.573 57.3232 22.5729 59.3472C21.9108 59.7577 21.1759 60.23 20.5867 60.6382C19.011 61.7417 13.4894 67.57 13.4894 67.57L12.92 68.0247L12.8759 68.0578V68.071C12.5713 68.4373 12.2138 69.9998 11.9247 70.9399C11.7327 71.5777 11.6378 72.584 12.0814 73.3675C12.5007 74.1024 12.9642 74.2833 13.1451 73.4646C13.1694 73.1711 13.1871 72.882 13.2113 72.6127C13.2842 71.7785 13.7586 70.823 14.1139 70.2117C14.403 69.7151 14.595 69.298 15.1379 68.9471C15.1379 68.9471 21.7387 64.6393 24.9122 62.6134C25.4352 62.2876 25.8866 61.8588 26.2386 61.3531C26.5907 60.8474 26.8362 60.2753 26.9601 59.6716C27.1808 58.5285 27.9643 55.7147 28.2313 54.2979L29.7761 60.1836C29.4252 60.753 28.772 62.7767 28.3858 65.2594C27.8694 68.5697 26.649 73.6301 26.649 73.6301L26.3378 74.7865L26.3224 74.8395C26.2959 75.314 26.9337 76.7859 27.2669 77.7194C27.4876 78.3462 28.0084 79.2135 28.825 79.5754C29.5996 79.9175 30.0851 79.7829 29.7408 79.0193C29.5935 78.767 29.463 78.5053 29.3502 78.2358C28.9963 77.4699 28.7554 76.6567 28.6352 75.8215C28.5676 75.2629 28.6436 74.6963 28.8559 74.1752C28.8559 74.1752 32.6296 65.6787 33.8015 62.0551Z" fill="#FFA8A7"/>
<path d="M23.4564 44.6296C23.4564 44.6296 22.0771 46.7063 21.799 48.4585C21.3223 51.4422 21.9734 56.2068 21.9734 56.2068C21.9734 56.2068 22.8914 55.6728 23.0216 54.662C23.0216 54.662 23.4012 55.5735 24.0964 56.0325C24.9681 56.6129 26.3032 56.9417 27.9915 56.4319L28.2276 54.2957L28.5609 56.0943C29.6553 56.1973 30.7588 56.0525 31.7895 55.6706C33.4381 55.0394 33.8044 53.2165 33.8044 53.2165L30.9487 44.6274C30.9487 44.6274 31.1098 46.0552 27.7068 46.1876C24.3038 46.3201 23.4564 44.6296 23.4564 44.6296Z" fill="#455A64"/>
<path d="M35.815 30.5012C34.1643 34.3853 31.8802 35.7624 30.8407 38.2561C29.4791 38.1635 27.5878 35.9213 28.6007 34.5177C29.7571 34.03 33.5022 29.9561 33.7185 28.2392C33.9105 26.7142 34.7314 24.3396 34.6939 23.0707C34.6822 22.8598 34.5953 22.6602 34.449 22.5079C34.0319 22.0665 34.0297 21.6958 33.7626 21.1992C33.553 20.813 33.3212 20.6674 33.3897 20.5813C33.4753 20.4888 33.5927 20.4321 33.7184 20.4227C33.8441 20.4133 33.9687 20.4518 34.0672 20.5306C34.2606 20.6707 34.4337 20.8371 34.5814 21.0249C34.5099 20.5513 34.3725 20.09 34.1731 19.6544C33.7097 18.6084 33.8222 18.0765 35.2346 18.4473C36.1174 18.6812 36.6735 19.4183 36.8059 21.5369C36.8665 22.4184 36.8717 23.3029 36.8213 24.1851C36.6669 25.8204 36.4991 27.3851 36.2983 28.7401C36.2136 29.3455 36.0512 29.9374 35.815 30.5012Z" fill="#FFA8A7"/>
<path d="M23.7009 43.9014L23.5751 42.3213L22.357 39.7701C22.1775 38.833 22.1344 37.8749 22.229 36.9255C22.2687 36.0052 22.229 35.3806 23.1117 35.1754C23.4516 35.0982 24.4138 34.926 25.8217 34.734L28.3994 34.5133C29.3417 34.4648 30.3635 35.6764 31.4316 37.8236C31.9657 38.8962 32.385 40.3549 30.9682 41.7122C30.9682 41.9924 31.0035 42.9392 30.9682 43.5063C29.8512 44.075 28.6278 44.4038 27.3763 44.4719C26.1248 44.5399 24.8729 44.3456 23.7009 43.9014Z" fill="#791E1E"/>
<path d="M30.461 27.7051V27.6256C30.2293 25.1517 28.8103 24.6927 26.2172 24.9575C24.3016 25.1539 22.5648 26.061 21.9866 27.7492C21.773 28.3839 21.7084 29.0592 21.7979 29.7229C21.8875 30.3865 22.1288 31.0206 22.503 31.5759C23.2953 32.75 24.6349 33.4054 26.5284 33.2289C28.9957 33.518 30.6927 30.1768 30.461 27.7051Z" fill="#263238"/>
<path d="M14.1614 30.4725C13.7178 30.1324 13.3609 29.6924 13.1197 29.1881C12.7313 28.3782 12.5526 27.1379 13.4574 26.584C13.5601 26.5181 13.6762 26.4758 13.7973 26.4604C14.1989 26.4207 14.5211 26.7584 14.8345 27.0099C15.1385 27.2472 15.4866 27.4219 15.8586 27.5238C16.2306 27.6257 16.6191 27.6528 17.0016 27.6036C17.8314 27.4977 18.5729 27.0364 19.224 26.5134C19.424 26.3374 19.6466 26.1889 19.886 26.072C20.0839 25.9904 20.2945 25.9441 20.5084 25.9352C21.2185 25.9001 21.9193 26.1088 22.4945 26.5266C22.6031 26.589 22.6981 26.6725 22.7739 26.7722C22.8497 26.8719 22.9048 26.9857 22.9359 27.107C22.9487 27.1926 22.9361 27.2801 22.8996 27.3586C22.8632 27.437 22.8044 27.5031 22.7307 27.5484C22.563 27.6433 22.3445 27.5484 22.1679 27.5286C21.725 27.466 21.2742 27.5613 20.8946 27.7978C20.5326 28.045 20.3053 28.4422 20.0626 28.8063C19.2946 29.9561 18.1602 30.9536 16.7942 31.1522C16.3322 31.2186 15.8616 31.1926 15.4097 31.076C14.9578 30.9593 14.5335 30.7542 14.1614 30.4725Z" fill="#263238"/>
<path d="M28.7595 26.531C29.2671 26.7694 29.9733 27.9214 30.1521 30.4615C30.3021 32.6132 29.6577 33.209 29.3223 33.3944C28.9868 33.5798 28.3027 33.5489 27.6384 33.5025L27.7576 34.7914C27.7576 34.7914 29.7438 36.601 28.2652 36.932C27.5237 37.0997 26.5306 36.7113 25.8376 36.27C25.394 35.9536 25.0588 35.5082 24.8776 34.9944L24.6305 32.1895C24.6305 32.1895 24.2796 32.5999 23.5734 32.0901C22.9886 31.6686 22.7326 30.8896 23.1143 30.4218C23.214 30.3104 23.3386 30.2242 23.4781 30.1704C23.6175 30.1166 23.7677 30.0966 23.9163 30.1121C24.065 30.1276 24.2078 30.1782 24.3331 30.2596C24.4584 30.3411 24.5626 30.4511 24.6371 30.5806C24.6371 30.5806 25.0255 30.5806 25.3433 29.8259C25.9933 29.8369 26.6284 29.6311 27.1485 29.2411C27.5859 28.9213 27.954 28.5164 28.2309 28.0506C28.5077 27.5849 28.6875 27.068 28.7595 26.531Z" fill="#FFA8A7"/>
<path d="M27.3142 30.0444C27.3265 30.1157 27.3102 30.189 27.2689 30.2484C27.2276 30.3079 27.1646 30.3487 27.0935 30.3622C27.0208 30.3703 26.9478 30.3497 26.8901 30.3048C26.8323 30.2598 26.7945 30.1941 26.7846 30.1216C26.777 30.0853 26.7769 30.0478 26.7843 30.0115C26.7918 29.9752 26.8066 29.9407 26.8279 29.9103C26.8491 29.88 26.8764 29.8542 26.908 29.8348C26.9396 29.8154 26.9748 29.8026 27.0116 29.7973C27.0483 29.792 27.0857 29.7943 27.1215 29.8041C27.1573 29.8138 27.1907 29.8308 27.2197 29.8539C27.2486 29.8771 27.2726 29.9059 27.29 29.9387C27.3074 29.9714 27.3179 30.0074 27.3208 30.0444H27.3142Z" fill="#263238"/>
<g style="mix-blend-mode:multiply" opacity="0.5">
<path d="M27.8173 31.8099L28.6846 32.0019C28.674 32.0592 28.6522 32.114 28.6203 32.1628C28.5884 32.2117 28.5472 32.2538 28.499 32.2866C28.4507 32.3195 28.3965 32.3424 28.3393 32.3541C28.2822 32.3659 28.2233 32.3662 28.166 32.355C28.0485 32.327 27.9465 32.2546 27.8815 32.1529C27.8164 32.0512 27.7934 31.9282 27.8173 31.8099Z" fill="#F28F8F"/>
</g>
<path d="M29.6778 28.9762L29.0952 28.6496C29.1147 28.6112 29.1418 28.5771 29.1747 28.5494C29.2077 28.5216 29.2458 28.5007 29.287 28.488C29.3281 28.4752 29.3714 28.4708 29.4143 28.4751C29.4572 28.4794 29.4988 28.4922 29.5366 28.5128C29.6156 28.5567 29.6745 28.6295 29.7008 28.716C29.7272 28.8024 29.7189 28.8958 29.6778 28.9762Z" fill="#263238"/>
<path d="M26.85 29.1307L26.2498 29.4287C26.2292 29.3907 26.2165 29.349 26.2124 29.306C26.2083 29.2631 26.2129 29.2197 26.2258 29.1785C26.2388 29.1374 26.2599 29.0992 26.2879 29.0664C26.3159 29.0335 26.3502 29.0066 26.3888 28.9873C26.4695 28.9481 26.5621 28.9412 26.6478 28.9678C26.7334 28.9944 26.8058 29.0527 26.85 29.1307Z" fill="#263238"/>
<path d="M29.6088 29.7708C29.6143 29.8237 29.6041 29.8771 29.5796 29.9243C29.555 29.9715 29.517 30.0104 29.4705 30.0362C29.424 30.062 29.3709 30.0736 29.3178 30.0695C29.2647 30.0654 29.2141 30.0457 29.1721 30.013C29.1301 29.9803 29.0986 29.936 29.0816 29.8856C29.0646 29.8352 29.0628 29.7808 29.0764 29.7294C29.09 29.678 29.1185 29.6316 29.1582 29.5962C29.1979 29.5608 29.2472 29.5379 29.2999 29.5302C29.3727 29.5215 29.446 29.5418 29.5039 29.5869C29.5617 29.6319 29.5994 29.698 29.6088 29.7708Z" fill="#263238"/>
<g style="mix-blend-mode:multiply" opacity="0.5">
<path d="M28.2915 29.7376L28.4857 31.3597L29.3177 31.0154L28.2915 29.7376Z" fill="#F28F8F"/>
</g>
<g style="mix-blend-mode:multiply" opacity="0.5">
<path d="M27.638 33.5026C26.9384 33.4761 25.4797 33.2002 25.2104 32.6595C25.3268 32.9327 25.5239 33.1638 25.7754 33.3216C26.2344 33.6438 27.6821 33.9219 27.6821 33.9219L27.638 33.5026Z" fill="#F28F8F"/>
</g>
<path d="M22.5186 26.6215L22.8363 25.4607C22.9137 25.4777 22.9868 25.5102 23.0513 25.5562C23.1158 25.6022 23.1703 25.6608 23.2115 25.7284C23.2528 25.7961 23.2799 25.8713 23.2913 25.9497C23.3026 26.0281 23.298 26.108 23.2777 26.1846C23.2318 26.3412 23.1273 26.474 22.9858 26.5554C22.8444 26.6368 22.677 26.6605 22.5186 26.6215Z" fill="#263238"/>
<path d="M22.4169 26.7208L21.7549 25.7189C21.8185 25.6722 21.8909 25.6388 21.9677 25.6208C22.0445 25.6028 22.1242 25.6006 22.202 25.6142C22.2797 25.6278 22.3539 25.657 22.42 25.7C22.4862 25.743 22.5429 25.799 22.5869 25.8646C22.6738 26.0018 22.7046 26.1673 22.673 26.3267C22.6414 26.486 22.5497 26.6271 22.4169 26.7208Z" fill="#263238"/>
<path d="M24.6431 30.5785L24.749 31.7084C24.85 31.699 24.9482 31.6698 25.0379 31.6224C25.1276 31.5751 25.2071 31.5105 25.2718 31.4324C25.3366 31.3543 25.3853 31.2643 25.4153 31.1674C25.4452 31.0704 25.4558 30.9686 25.4464 30.8676L25.3493 29.8237L24.6431 30.5785Z" fill="#263238"/>
<path d="M17.368 31.0331C19.0188 34.9194 21.0336 37.2873 22.3578 39.7701C24.5646 39.8738 24.7279 36.4598 23.715 35.0562C23.715 35.0562 19.8243 30.4659 19.4645 28.7732C19.1445 27.2681 18.4516 24.8715 18.4891 23.6025C18.499 23.3913 18.5862 23.191 18.7341 23.0398C19.1512 22.5984 19.1512 22.2299 19.4204 21.7333C19.6278 21.3449 19.8618 21.2015 19.7934 21.1132C19.7065 21.0218 19.5887 20.9661 19.4629 20.9571C19.3372 20.9481 19.2126 20.9865 19.1136 21.0646C18.9209 21.204 18.7486 21.3697 18.6017 21.5568C18.6719 21.0831 18.8086 20.6217 19.0077 20.1863C19.4712 19.1424 19.3586 18.6084 17.9484 18.9813C17.0657 19.202 16.5095 19.9502 16.3771 22.071C16.3168 22.9577 16.3139 23.8475 16.3683 24.7347C16.5206 26.3699 16.6883 27.9368 16.8891 29.2896C16.9744 29.8887 17.1353 30.4745 17.368 31.0331Z" fill="#FFA8A7"/>
<path d="M28.5603 56.0347L28.2271 54.3884L28.5691 51.2502C29.2924 50.9455 29.9734 50.5487 30.595 50.0695C30.2117 50.616 29.7439 51.0979 29.2091 51.4974L28.4477 54.1964L28.5603 56.0347Z" fill="#37474F"/>
<path opacity="0.1" d="M25.0479 40.9971C25.2568 41.3885 25.5743 41.7113 25.9623 41.9266C26.3503 42.1419 26.7922 42.2406 27.2349 42.2109C27.6625 42.1959 28.0785 42.0682 28.4409 41.8408C28.8032 41.6133 29.099 41.294 29.2983 40.9154C29.2983 40.9154 29.2365 42.6103 27.2349 42.6147C25.2332 42.6191 25.0479 40.9971 25.0479 40.9971Z" fill="black"/>
</svg>
