<svg width="104" height="100" viewBox="0 0 104 100" fill="none" xmlns="http://www.w3.org/2000/svg">
<path d="M51.7896 100C80.3921 100 103.579 86.6126 103.579 70.0984C103.579 53.5842 80.3921 40.1968 51.7896 40.1968C23.187 40.1968 0 53.5842 0 70.0984C0 86.6126 23.187 100 51.7896 100Z" fill="#F5F5F5"/>
<path d="M93.5823 80.3117L76.4518 70.3924C76.3776 70.3542 76.2954 70.3343 76.2119 70.3343C76.1285 70.3343 76.0463 70.3542 75.9721 70.3924L60.3183 79.4097C60.2894 79.4195 60.2643 79.4381 60.2465 79.4629C60.2288 79.4877 60.2192 79.5174 60.2192 79.5479C60.2192 79.5784 60.2288 79.6081 60.2465 79.6329C60.2643 79.6577 60.2894 79.6763 60.3183 79.6861L77.451 89.6054C77.5248 89.6436 77.6067 89.6635 77.6898 89.6635C77.7729 89.6635 77.8547 89.6436 77.9285 89.6054L93.5845 80.588C93.715 80.5129 93.715 80.3891 93.5823 80.3117Z" fill="#E0E0E0"/>
<path d="M79.527 58.8261L62.3943 48.9068C62.3202 48.8697 62.2384 48.8503 62.1555 48.8503C62.0726 48.8503 61.9909 48.8697 61.9168 48.9068L15.4549 75.6803C15.3223 75.7555 15.3223 75.8793 15.4549 75.9567L32.5855 85.8671C32.6594 85.9048 32.7413 85.9244 32.8242 85.9244C32.9072 85.9244 32.989 85.9048 33.063 85.8671L79.527 59.1025C79.5559 59.0927 79.581 59.0741 79.5987 59.0493C79.6165 59.0245 79.626 58.9948 79.626 58.9643C79.626 58.9338 79.6165 58.9041 79.5987 58.8793C79.581 58.8545 79.5559 58.8359 79.527 58.8261Z" fill="#E0E0E0"/>
<path d="M19.7392 63.6432C25.6717 63.6432 30.4809 60.8669 30.4809 57.4422C30.4809 54.0176 25.6717 51.2413 19.7392 51.2413C13.8068 51.2413 8.99756 54.0176 8.99756 57.4422C8.99756 60.8669 13.8068 63.6432 19.7392 63.6432Z" fill="#E0E0E0"/>
<path d="M18.4524 76.6133C17.2796 77.1862 15.9765 77.4401 14.6744 77.3494C12.4217 77.2234 11.6855 75.9744 11.6855 75.9744C11.6855 75.9744 12.9832 74.1152 14.3384 73.8101C14.3384 73.8101 12.1476 73.7858 10.2221 74.5441C10.2221 74.5441 8.89567 74.2788 8.79398 72.1322C8.79398 72.1322 9.84627 71.0799 12.6339 70.9915C12.6339 70.9915 11.113 70.2399 8.66576 70.3283C8.47785 70.3592 8.301 67.5738 8.33858 66.3137C8.37616 65.0536 8.8603 65.173 9.85953 65.1244C10.8588 65.0757 14.1085 65.6107 14.5882 66.2584C15.0679 66.9062 14.9839 68.7454 14.9839 68.7454C15.483 68.0919 15.8338 67.3376 16.0118 66.5348C16.0118 66.5348 16.6463 66.4441 17.9506 67.198C20.3536 68.5841 20.5371 70.2023 20.5614 71.4314C20.5946 72.7954 20.1768 75.3377 18.4524 76.6133Z" fill="#911100"/>
<path d="M18.4259 76.7371C18.4032 76.7315 18.3824 76.72 18.3657 76.7036C18.349 76.6873 18.3369 76.6668 18.3309 76.6442C17.3604 72.6097 11.7386 66.9548 9.48815 65.9954C9.47291 65.9888 9.4591 65.9794 9.44752 65.9675C9.43594 65.9556 9.42681 65.9416 9.42065 65.9262C9.41449 65.9108 9.41143 65.8943 9.41163 65.8778C9.41183 65.8612 9.4153 65.8448 9.42183 65.8296C9.42836 65.8143 9.43783 65.8005 9.4497 65.7889C9.46157 65.7774 9.4756 65.7682 9.491 65.7621C9.50639 65.7559 9.52285 65.7528 9.53943 65.753C9.55601 65.7532 9.57239 65.7567 9.58763 65.7632C11.8801 66.7404 17.5903 72.4881 18.574 76.5823C18.5783 76.5981 18.5793 76.6147 18.5771 76.6309C18.5748 76.6471 18.5693 76.6628 18.5608 76.6768C18.5523 76.6908 18.5411 76.703 18.5278 76.7126C18.5145 76.7222 18.4994 76.729 18.4834 76.7326C18.4651 76.7396 18.4451 76.7412 18.4259 76.7371Z" fill="white"/>
<path d="M76.4318 56.6088C76.2969 56.2617 76.1976 55.9017 76.1356 55.5344C75.9765 54.7128 76.0461 53.8632 76.3368 53.0784C76.4851 52.6879 76.7121 52.3322 77.0038 52.0332C77.2956 51.7343 77.6457 51.4986 78.0324 51.3408C78.3026 51.2735 78.5537 51.1449 78.7663 50.965C78.9669 50.7254 79.1172 50.448 79.2084 50.1492C79.3464 49.6606 79.5269 49.1849 79.7479 48.7278C80.0712 48.2121 80.5676 47.8285 81.1482 47.6458C81.7287 47.4631 82.3554 47.4932 82.9157 47.7307C83.1678 47.8479 83.3977 48.0049 83.6563 48.0999C84.4809 48.4028 85.3873 47.6136 86.1389 47.3527C87.0342 47.0432 88.0799 46.8885 88.9509 47.3527C90.0408 47.9363 90.1292 49.1544 89.2869 50.0365C88.8912 50.4499 88.4027 50.8279 88.2612 51.3828C88.0622 52.1853 88.7033 52.9944 88.5906 53.8145C88.48 54.6855 87.9804 55.0061 87.1757 55.2537L86.2716 55.5344C85.902 55.6117 85.5618 55.7918 85.29 56.054C84.912 56.4961 84.9208 57.1991 84.7727 57.7341C84.6847 58.0143 84.5388 58.2731 84.3446 58.4935C84.1504 58.714 83.9122 58.8913 83.6453 59.014C82.6459 59.5149 81.5195 59.7051 80.4111 59.5601C79.7309 59.5029 79.0674 59.3192 78.4546 59.0185C77.5703 58.5498 76.8541 57.6081 76.465 56.7039L76.4318 56.6088Z" fill="#911100"/>
<path d="M77.4397 57.5705C77.7006 57.7186 78.1427 56.7569 78.271 56.5779C78.5959 56.1158 78.9342 55.6693 79.2989 55.2338C79.948 54.4494 80.6504 53.7107 81.4013 53.0231C82.5299 51.9756 83.7693 51.0542 85.0975 50.2752C85.6407 49.9449 86.21 49.6595 86.7997 49.4219C86.8325 49.4095 86.859 49.3846 86.8735 49.3528C86.888 49.3209 86.8893 49.2845 86.8771 49.2517C86.8715 49.2354 86.8626 49.2204 86.851 49.2076C86.8394 49.1948 86.8253 49.1844 86.8096 49.1772C86.7939 49.17 86.7769 49.166 86.7596 49.1655C86.7424 49.165 86.7252 49.168 86.7091 49.1743C84.7947 49.8972 83.0129 51.2214 81.4985 52.5655C80.7017 53.2728 79.9563 54.0359 79.268 54.8491C78.9983 55.1652 77.1568 57.3251 77.4221 57.5462L77.4397 57.5705Z" fill="white"/>
<path d="M80.9969 53.3127H81.0278C82.8892 53.1115 85.7675 53.6819 85.7962 53.6863C85.8305 53.6928 85.866 53.6856 85.8949 53.6661C85.9239 53.6467 85.9441 53.6166 85.951 53.5824C85.9545 53.5654 85.9546 53.5479 85.9513 53.5308C85.948 53.5138 85.9413 53.4976 85.9316 53.4832C85.9219 53.4688 85.9094 53.4564 85.8949 53.4469C85.8804 53.4374 85.8642 53.4308 85.8471 53.4277C85.7277 53.4033 82.9025 52.8462 80.9991 53.0496C80.9645 53.0496 80.9313 53.0634 80.9069 53.0878C80.8824 53.1123 80.8687 53.1455 80.8687 53.1801C80.8687 53.2147 80.8824 53.2478 80.9069 53.2723C80.9313 53.2968 80.9645 53.3105 80.9991 53.3105L80.9969 53.3127Z" fill="white"/>
<path d="M81.9587 52.4461C81.976 52.4473 81.9934 52.445 82.0098 52.4394C82.0262 52.4338 82.0414 52.425 82.0544 52.4135C82.0673 52.402 82.0779 52.388 82.0854 52.3723C82.0929 52.3566 82.0971 52.3397 82.098 52.3223C82.1481 51.371 82.0617 50.4173 81.8415 49.4904C81.8313 49.4581 81.809 49.431 81.7793 49.4146C81.7496 49.3982 81.7148 49.3938 81.682 49.4023C81.6491 49.4108 81.6208 49.4315 81.6028 49.4603C81.5848 49.489 81.5784 49.5235 81.5851 49.5568C81.7958 50.4574 81.8799 51.383 81.8349 52.3068C81.8331 52.3417 81.8451 52.3758 81.8682 52.4019C81.8914 52.428 81.9239 52.4438 81.9587 52.4461Z" fill="white"/>
<path d="M78.0592 58.9897L63.4775 67.408V58.5476L78.0592 50.1271V58.9897Z" fill="#37474F"/>
<path d="M48.896 58.9897L63.4776 67.408V58.5476L48.896 50.1271V58.9897Z" fill="#263238"/>
<path d="M78.0593 50.1271L63.4776 41.7088L48.896 50.1271L63.4776 58.5476L78.0593 50.1271Z" fill="black"/>
<path d="M66.0422 51.7763C66.7518 52.1853 67.1055 52.7224 67.1055 53.2596V54.6966C67.1055 55.2338 66.7518 55.771 66.0422 56.1799C65.2514 56.6002 64.3665 56.8117 63.4712 56.7945V51.1595C64.3668 51.1419 65.252 51.3543 66.0422 51.7763Z" fill="#37474F"/>
<path d="M60.9066 51.7763C60.197 52.1853 59.8433 52.7224 59.8433 53.2596V54.6966C59.8433 55.2338 60.197 55.771 60.9066 56.1799C61.6974 56.6002 62.5823 56.8117 63.4776 56.7945V51.1595C62.582 51.1419 61.6968 51.3543 60.9066 51.7763Z" fill="#263238"/>
<path d="M60.9067 51.7763C59.4875 52.5942 59.4875 53.9228 60.9067 54.743C62.326 55.5632 64.6273 55.5632 66.0488 54.743C67.4702 53.9228 67.468 52.5942 66.0488 51.7763C64.6295 50.9583 62.326 50.9561 60.9067 51.7763Z" fill="#455A64"/>
<path opacity="0.07" d="M60.9067 51.7763C59.4875 52.5942 59.4875 53.9228 60.9067 54.743C62.326 55.5632 64.6273 55.5632 66.0488 54.743C67.4702 53.9228 67.468 52.5942 66.0488 51.7763C64.6295 50.9583 62.326 50.9561 60.9067 51.7763Z" fill="white"/>
<path d="M66.0422 43.5636C66.7518 43.9726 67.1055 44.5098 67.1055 45.047V46.4817C67.1055 47.0189 66.7518 47.5561 66.0422 47.9651C65.2518 48.3863 64.3666 48.5979 63.4712 48.5796V42.949C64.3665 42.9319 65.2514 43.1434 66.0422 43.5636Z" fill="#37474F"/>
<path d="M60.9066 43.5636C60.197 43.9726 59.8433 44.5098 59.8433 45.047V46.4817C59.8433 47.0189 60.197 47.5561 60.9066 47.9651C61.697 48.3863 62.5822 48.5979 63.4776 48.5796V42.949C62.5823 42.9319 61.6974 43.1434 60.9066 43.5636Z" fill="#263238"/>
<path d="M60.9067 43.5636C59.4875 44.3838 59.4875 45.7124 60.9067 46.5325C62.326 47.3527 64.6273 47.3505 66.0488 46.5325C67.4702 45.7146 67.468 44.3838 66.0488 43.5636C64.6295 42.7434 62.326 42.7434 60.9067 43.5636Z" fill="#455A64"/>
<path opacity="0.07" d="M60.9067 43.5636C59.4875 44.3838 59.4875 45.7124 60.9067 46.5325C62.326 47.3527 64.6273 47.3505 66.0488 46.5325C67.4702 45.7146 67.468 44.3838 66.0488 43.5636C64.6295 42.7434 62.326 42.7434 60.9067 43.5636Z" fill="white"/>
<path d="M73.1562 47.671C73.8658 48.08 74.2218 48.6172 74.2218 49.1544V50.5891C74.2218 51.1263 73.8658 51.6635 73.1562 52.0725C72.3662 52.4927 71.482 52.7043 70.5874 52.6871V47.0565C71.4821 47.0382 72.3666 47.2498 73.1562 47.671Z" fill="#37474F"/>
<path d="M68.016 47.671C67.3063 48.08 66.9526 48.6172 66.9526 49.1544V50.5891C66.9526 51.1263 67.3063 51.6635 68.016 52.0725C68.8067 52.4927 69.6917 52.7043 70.587 52.6871V47.0565C69.6915 47.0382 68.8064 47.2498 68.016 47.671Z" fill="#263238"/>
<path d="M68.0161 47.671C66.5968 48.489 66.5968 49.8176 68.0161 50.6378C69.4354 51.4579 71.7367 51.4579 73.1559 50.6378C74.5752 49.8176 74.5774 48.489 73.1559 47.671C71.7345 46.8531 69.4354 46.8509 68.0161 47.671Z" fill="#455A64"/>
<path opacity="0.07" d="M68.0161 47.671C66.5968 48.489 66.5968 49.8176 68.0161 50.6378C69.4354 51.4579 71.7367 51.4579 73.1559 50.6378C74.5752 49.8176 74.5774 48.489 73.1559 47.671C71.7345 46.8531 69.4354 46.8509 68.0161 47.671Z" fill="white"/>
<path d="M58.9392 47.6666C59.6488 48.0778 60.0025 48.615 60.0025 49.1522V50.5869C60.0025 51.1219 59.6488 51.6591 58.9392 52.0703C58.1484 52.4905 57.2635 52.702 56.3682 52.6849V47.0521C57.2635 47.0349 58.1484 47.2464 58.9392 47.6666Z" fill="#37474F"/>
<path d="M53.7972 47.6666C53.0876 48.0778 52.7339 48.615 52.7339 49.1522V50.5869C52.7339 51.1219 53.0876 51.6591 53.7972 52.0703C54.588 52.4905 55.4729 52.702 56.3682 52.6849V47.0521C55.4729 47.0349 54.588 47.2464 53.7972 47.6666Z" fill="#263238"/>
<path d="M53.7969 47.6666C52.3776 48.4868 52.3776 49.8154 53.7969 50.6356C55.2161 51.4557 57.5196 51.4557 58.9389 50.6356C60.3582 49.8154 60.3582 48.4868 58.9389 47.6666C57.5196 46.8465 55.2095 46.8487 53.7969 47.6666Z" fill="#455A64"/>
<path opacity="0.07" d="M53.7969 47.6666C52.3776 48.4868 52.3776 49.8154 53.7969 50.6356C55.2161 51.4557 57.5196 51.4557 58.9389 50.6356C60.3582 49.8154 60.3582 48.4868 58.9389 47.6666C57.5196 46.8465 55.2095 46.8487 53.7969 47.6666Z" fill="white"/>
<path d="M92.2716 80.5748L77.6899 88.993V80.1304L92.2716 71.7122V80.5748Z" fill="#911100"/>
<path opacity="0.1" d="M92.2716 80.5748L77.6899 88.993V80.1304L92.2716 71.7122V80.5748Z" fill="black"/>
<path d="M63.1106 80.5748L77.69 88.993V80.1304L63.1084 71.7122L63.1106 80.5748Z" fill="#911100"/>
<path opacity="0.2" d="M63.1106 80.5748L77.69 88.993V80.1304L63.1084 71.7122L63.1106 80.5748Z" fill="black"/>
<path d="M92.2717 71.7122L77.69 63.2939L63.1084 71.7122L77.69 80.1304L92.2717 71.7122Z" fill="#911100"/>
<path d="M81.3244 66.6342C81.3244 66.097 80.9707 65.5599 80.261 65.1509C78.8418 64.3307 76.5405 64.3307 75.1212 65.1509C74.4116 65.5599 74.0557 66.097 74.0557 66.6342V68.069C74.0557 68.6062 74.4116 69.1412 75.1212 69.5523C76.5405 70.3725 78.8418 70.3725 80.261 69.5523C80.9707 69.1412 81.3266 68.6062 81.3244 68.069V66.6342Z" fill="#911100"/>
<path opacity="0.1" d="M80.261 65.1487C80.9706 65.5576 81.3265 66.0948 81.3243 66.632V68.0668C81.3243 68.604 80.9706 69.1389 80.261 69.5501C79.4708 69.9727 78.5859 70.1865 77.6899 70.1713V64.5341C78.5854 64.5158 79.4706 64.7274 80.261 65.1487Z" fill="black"/>
<path opacity="0.2" d="M75.1212 65.1487C74.4116 65.5576 74.0557 66.0948 74.0557 66.632V68.0668C74.0557 68.604 74.4116 69.1389 75.1212 69.5501C75.9107 69.9724 76.7948 70.1862 77.69 70.1713V64.5341C76.7953 64.5161 75.9109 64.7277 75.1212 65.1487Z" fill="black"/>
<path d="M75.1211 65.1487C73.7018 65.9666 73.7018 67.2952 75.1211 68.1154C76.5403 68.9356 78.8417 68.9356 80.2609 68.1154C81.6802 67.2952 81.6802 65.9666 80.2609 65.1487C78.8417 64.3307 76.5403 64.3285 75.1211 65.1487Z" fill="#911100"/>
<path opacity="0.3" d="M75.1211 65.1487C73.7018 65.9666 73.7018 67.2952 75.1211 68.1154C76.5403 68.9356 78.8417 68.9356 80.2609 68.1154C81.6802 67.2952 81.6802 65.9666 80.2609 65.1487C78.8417 64.3307 76.5403 64.3285 75.1211 65.1487Z" fill="white"/>
<path d="M81.3244 74.8425C81.3244 74.3075 80.9707 73.7703 80.261 73.3591C78.8418 72.539 76.5405 72.539 75.1212 73.3591C74.4116 73.7703 74.0557 74.3053 74.0557 74.8425V76.2772C74.0557 76.8144 74.4116 77.3516 75.1212 77.7606C76.5405 78.5807 78.8418 78.5807 80.261 77.7606C80.9707 77.3516 81.3266 76.8144 81.3244 76.2772V74.8425Z" fill="#911100"/>
<path opacity="0.1" d="M80.261 73.3591C80.9706 73.7703 81.3265 74.3053 81.3243 74.8425V76.2772C81.3243 76.8144 80.9706 77.3516 80.261 77.7606C79.471 78.1828 78.5855 78.3945 77.6899 78.3751V72.7446C78.5853 72.7274 79.4702 72.9389 80.261 73.3591Z" fill="black"/>
<path opacity="0.2" d="M75.1212 73.3591C74.4116 73.7703 74.0557 74.3053 74.0557 74.8425V76.2772C74.0557 76.8144 74.4116 77.3516 75.1212 77.7606C75.9105 78.1826 76.7952 78.3942 77.69 78.3752V72.7446C76.7954 72.7277 75.9113 72.9392 75.1212 73.3591Z" fill="black"/>
<path d="M75.1211 73.3591C73.7018 74.1793 73.7018 75.5079 75.1211 76.3281C76.5403 77.1482 78.8417 77.146 80.2609 76.3281C81.6802 75.5101 81.6802 74.1793 80.2609 73.3591C78.8417 72.539 76.5403 72.539 75.1211 73.3591Z" fill="#911100"/>
<path opacity="0.3" d="M75.1211 73.3591C73.7018 74.1793 73.7018 75.5079 75.1211 76.3281C76.5403 77.1482 78.8417 77.146 80.2609 76.3281C81.6802 75.5101 81.6802 74.1793 80.2609 73.3591C78.8417 72.539 76.5403 72.539 75.1211 73.3591Z" fill="white"/>
<path d="M74.2216 70.735C74.2216 70.1978 73.8657 69.6607 73.1561 69.2517C71.7368 68.4315 69.4355 68.4315 68.0162 69.2517C67.3066 69.6607 66.9507 70.1978 66.9507 70.735V72.1609C66.9507 72.6981 67.3066 73.2353 68.0162 73.6443C69.4355 74.4645 71.7368 74.4645 73.1561 73.6443C73.8657 73.2353 74.2216 72.6981 74.2216 72.1609C74.2216 71.7719 74.2216 71.133 74.2216 70.735Z" fill="#911100"/>
<path opacity="0.1" d="M73.1516 69.2517C73.8612 69.6607 74.2171 70.1979 74.2171 70.735C74.2171 71.133 74.2171 71.7719 74.2171 72.1698C74.2171 72.707 73.8612 73.2442 73.1516 73.6531C72.3612 74.0744 71.476 74.286 70.5806 74.2677V68.6371C71.4759 68.6199 72.3608 68.8315 73.1516 69.2517Z" fill="black"/>
<path opacity="0.2" d="M68.0118 69.2517C67.3022 69.6607 66.9463 70.1979 66.9463 70.7351V72.1609C66.9463 72.6981 67.3022 73.2353 68.0118 73.6443C68.8015 74.0653 69.6859 74.2769 70.5806 74.2589V68.6371C69.686 68.6202 68.8019 68.8317 68.0118 69.2517Z" fill="black"/>
<path d="M68.0117 69.2517C66.5925 70.0718 66.5925 71.4005 68.0117 72.2184C69.431 73.0364 71.7323 73.0386 73.1515 72.2184C74.5708 71.3983 74.5708 70.0718 73.1515 69.2517C71.7323 68.4315 69.431 68.4315 68.0117 69.2517Z" fill="#911100"/>
<path opacity="0.3" d="M68.0117 69.2517C66.5925 70.0718 66.5925 71.4005 68.0117 72.2184C69.431 73.0364 71.7323 73.0386 73.1515 72.2184C74.5708 71.3983 74.5708 70.0718 73.1515 69.2517C71.7323 68.4315 69.431 68.4315 68.0117 69.2517Z" fill="white"/>
<path d="M88.4337 70.7373C88.4337 70.2001 88.08 69.6629 87.3704 69.2539C85.9512 68.4337 83.6498 68.4337 82.2306 69.2539C81.5187 69.6629 81.165 70.2001 81.165 70.7373V72.172C81.165 72.7092 81.5187 73.2464 82.2284 73.6554C83.6498 74.4755 85.9512 74.4755 87.3704 73.6554C88.08 73.2464 88.4337 72.7092 88.4337 72.172V70.7373Z" fill="#911100"/>
<path opacity="0.1" d="M87.3708 69.2539C88.0805 69.6629 88.4342 70.2001 88.4342 70.7373V72.172C88.4342 72.7092 88.0805 73.2464 87.3708 73.6554C86.5804 74.0766 85.6953 74.2882 84.7998 74.2699V68.6393C85.6951 68.6221 86.58 68.8337 87.3708 69.2539Z" fill="black"/>
<path opacity="0.2" d="M82.2306 69.2539C81.5187 69.6629 81.165 70.2001 81.165 70.7373V72.172C81.165 72.7092 81.5187 73.2464 82.2284 73.6554C83.0189 74.0763 83.904 74.2879 84.7994 74.2699V68.6393C83.9048 68.6221 83.0206 68.8337 82.2306 69.2539Z" fill="black"/>
<path d="M82.2307 69.2539C80.8092 70.0741 80.8092 71.4027 82.2307 72.2228C83.6521 73.043 85.9534 73.0408 87.3727 72.2228C88.7919 71.4049 88.7919 70.0741 87.3727 69.2539C85.9534 68.4337 83.6499 68.4337 82.2307 69.2539Z" fill="#911100"/>
<path opacity="0.3" d="M82.2307 69.2539C80.8092 70.0741 80.8092 71.4027 82.2307 72.2228C83.6521 73.043 85.9534 73.0408 87.3727 72.2228C88.7919 71.4049 88.7919 70.0741 87.3727 69.2539C85.9534 68.4337 83.6499 68.4337 82.2307 69.2539Z" fill="white"/>
<path d="M78.0592 49.486L63.4775 57.9043V49.0417L78.0592 40.6234V49.486Z" fill="#911100"/>
<path opacity="0.3" d="M78.0592 49.486L63.4775 57.9043V49.0417L78.0592 40.6234V49.486Z" fill="black"/>
<path d="M48.896 49.486L63.4776 57.9043V49.0417L48.896 40.6234V49.486Z" fill="#911100"/>
<path opacity="0.4" d="M48.896 49.486L63.4776 57.9043V49.0417L48.896 40.6234V49.486Z" fill="black"/>
<path d="M78.0593 40.6234L63.4776 32.2051L48.896 40.6234L63.4776 49.0417L78.0593 40.6234Z" fill="#911100"/>
<path opacity="0.55" d="M78.0593 40.6234L63.4776 32.2051L48.896 40.6234L63.4776 49.0417L78.0593 40.6234Z" fill="black"/>
<path d="M67.112 35.5433C67.112 35.0061 66.7583 34.4689 66.0486 34.0599C64.6294 33.2397 62.3259 33.2397 60.9066 34.0599C60.197 34.4689 59.8433 35.0061 59.8433 35.5433V36.978C59.8433 37.5152 60.197 38.0524 60.9066 38.4614C62.3259 39.2815 64.6272 39.2815 66.0486 38.4614C66.7583 38.0524 67.112 37.5152 67.112 36.978V35.5433Z" fill="#911100"/>
<path opacity="0.3" d="M66.0422 34.0599C66.7518 34.4689 67.1055 35.0061 67.1055 35.5433V36.978C67.1055 37.5152 66.7518 38.0524 66.0422 38.4614C65.2514 38.8816 64.3665 39.0931 63.4712 39.0759V33.4453C64.3666 33.4271 65.2518 33.6387 66.0422 34.0599Z" fill="black"/>
<path opacity="0.4" d="M60.9066 34.0599C60.197 34.4689 59.8433 35.0061 59.8433 35.5433V36.978C59.8433 37.5152 60.197 38.0524 60.9066 38.4614C61.6974 38.8816 62.5823 39.0931 63.4776 39.0759V33.4453C62.5822 33.4271 61.697 33.6387 60.9066 34.0599Z" fill="black"/>
<path d="M60.9067 34.0599C59.4875 34.8778 59.4875 36.2065 60.9067 37.0266C62.326 37.8468 64.6273 37.8468 66.0488 37.0266C67.4702 36.2065 67.468 34.8778 66.0488 34.0599C64.6295 33.2419 62.326 33.2397 60.9067 34.0599Z" fill="#911100"/>
<path opacity="0.3" d="M60.9067 34.0599C59.4875 34.8778 59.4875 36.2065 60.9067 37.0266C62.326 37.8468 64.6273 37.8468 66.0488 37.0266C67.4702 36.2065 67.468 34.8778 66.0488 34.0599C64.6295 33.2419 62.326 33.2397 60.9067 34.0599Z" fill="white"/>
<path d="M67.112 43.7559C67.112 43.2187 66.7583 42.6815 66.0486 42.2704C64.6294 41.4524 62.3259 41.4524 60.9066 42.2704C60.197 42.6815 59.8433 43.2187 59.8433 43.7537V45.1907C59.8433 45.7279 60.197 46.265 60.9066 46.6762C62.3259 47.4942 64.6272 47.4942 66.0486 46.6762C66.7583 46.265 67.112 45.7279 67.112 45.1907V43.7559Z" fill="#911100"/>
<path opacity="0.3" d="M66.0422 42.2704C66.7518 42.6815 67.1055 43.2187 67.1055 43.7537V45.1907C67.1055 45.7279 66.7518 46.265 66.0422 46.6762C65.2514 47.0965 64.3665 47.308 63.4712 47.2908V41.6536C64.3667 41.6371 65.2516 41.8494 66.0422 42.2704Z" fill="black"/>
<path opacity="0.4" d="M60.9066 42.2704C60.197 42.6815 59.8433 43.2187 59.8433 43.7537V45.1907C59.8433 45.7279 60.197 46.265 60.9066 46.6762C61.6974 47.0965 62.5823 47.308 63.4776 47.2908V41.6536C62.5821 41.6371 61.6972 41.8494 60.9066 42.2704Z" fill="black"/>
<path d="M60.9067 42.2704C59.4875 43.0905 59.4875 44.4191 60.9067 45.2393C62.326 46.0595 64.6273 46.0595 66.0488 45.2393C67.4702 44.4191 67.468 43.0905 66.0488 42.2704C64.6295 41.4502 62.326 41.4524 60.9067 42.2704Z" fill="#911100"/>
<path opacity="0.3" d="M60.9067 42.2704C59.4875 43.0905 59.4875 44.4191 60.9067 45.2393C62.326 46.0595 64.6273 46.0595 66.0488 45.2393C67.4702 44.4191 67.468 43.0905 66.0488 42.2704C64.6295 41.4502 62.326 41.4524 60.9067 42.2704Z" fill="white"/>
<path d="M60.0026 39.6463C60.0026 39.1091 59.6489 38.5719 58.9393 38.1629C57.52 37.3428 55.2187 37.3428 53.7972 38.1629C53.0876 38.5719 52.7339 39.1091 52.7339 39.6463V41.081C52.7339 41.6182 53.0876 42.1554 53.7972 42.5644C55.2165 43.3845 57.52 43.3845 58.9393 42.5644C59.6489 42.1554 60.0026 41.6182 60.0026 41.081V39.6463Z" fill="#911100"/>
<path opacity="0.3" d="M58.9392 38.1629C59.6488 38.5719 60.0025 39.1091 60.0025 39.6463V41.081C60.0025 41.6182 59.6488 42.1554 58.9392 42.5644C58.1488 42.9856 57.2636 43.1972 56.3682 43.1789V37.5483C57.2635 37.5312 58.1484 37.7427 58.9392 38.1629Z" fill="black"/>
<path opacity="0.4" d="M53.7972 38.1629C53.0876 38.5719 52.7339 39.1091 52.7339 39.6463V41.081C52.7339 41.6182 53.0876 42.1554 53.7972 42.5644C54.5876 42.9856 55.4728 43.1972 56.3682 43.1789V37.5483C55.4729 37.5312 54.588 37.7427 53.7972 38.1629Z" fill="black"/>
<path d="M53.7969 38.1629C52.3776 38.9831 52.3776 40.3117 53.7969 41.1319C55.2161 41.952 57.5196 41.9498 58.9389 41.1319C60.3582 40.3139 60.3582 38.9831 58.9389 38.1629C57.5196 37.3428 55.2095 37.3428 53.7969 38.1629Z" fill="#911100"/>
<path opacity="0.3" d="M53.7969 38.1629C52.3776 38.9831 52.3776 40.3117 53.7969 41.1319C55.2161 41.952 57.5196 41.9498 58.9389 41.1319C60.3582 40.3139 60.3582 38.9831 58.9389 38.1629C57.5196 37.3428 55.2095 37.3428 53.7969 38.1629Z" fill="white"/>
<path d="M74.2213 39.6485C74.2213 39.1135 73.8676 38.5763 73.1558 38.1651C71.7365 37.345 69.4352 37.345 68.016 38.1651C67.3063 38.5763 66.9526 39.1113 66.9526 39.6485V41.0832C66.9526 41.6204 67.3063 42.1576 68.016 42.5666C69.4352 43.3867 71.7365 43.3867 73.1558 42.5666C73.8676 42.1576 74.2213 41.6204 74.2213 41.0832V39.6485Z" fill="#911100"/>
<path opacity="0.3" d="M73.1562 38.1651C73.8658 38.5763 74.2218 39.1113 74.2218 39.6485V41.0832C74.2218 41.6204 73.8658 42.1576 73.1562 42.5666C72.3666 42.9878 71.4821 43.1994 70.5874 43.1812V37.5506C71.482 37.5334 72.3662 37.7449 73.1562 38.1651Z" fill="black"/>
<path opacity="0.4" d="M68.016 38.1651C67.3063 38.5763 66.9526 39.1113 66.9526 39.6485V41.0832C66.9526 41.6204 67.3063 42.1576 68.016 42.5666C68.8064 42.9878 69.6915 43.1994 70.587 43.1812V37.5506C69.6917 37.5334 68.8067 37.7449 68.016 38.1651Z" fill="black"/>
<path d="M68.0161 38.1651C66.5968 38.9853 66.5968 40.3139 68.0161 41.1341C69.4354 41.9542 71.7367 41.952 73.1559 41.1341C74.5752 40.3161 74.5774 38.9853 73.1559 38.1651C71.7345 37.345 69.4354 37.345 68.0161 38.1651Z" fill="#911100"/>
<path opacity="0.3" d="M68.0161 38.1651C66.5968 38.9853 66.5968 40.3139 68.0161 41.1341C69.4354 41.9542 71.7367 41.952 73.1559 41.1341C74.5752 40.3161 74.5774 38.9853 73.1559 38.1651C71.7345 37.345 69.4354 37.345 68.0161 38.1651Z" fill="white"/>
<path d="M62.71 67.8501L48.1284 76.2706V67.408L62.71 58.9897V67.8501Z" fill="#911100"/>
<path opacity="0.3" d="M62.71 67.8501L48.1284 76.2706V67.408L62.71 58.9897V67.8501Z" fill="black"/>
<path d="M33.5469 67.8501L48.1285 76.2706V67.408L33.5469 58.9897V67.8501Z" fill="#911100"/>
<path opacity="0.4" d="M33.5469 67.8501L48.1285 76.2706V67.408L33.5469 58.9897V67.8501Z" fill="black"/>
<path d="M62.7101 58.9897L48.1285 50.5715L33.5469 58.9897L48.1285 67.408L62.7101 58.9897Z" fill="#911100"/>
<path opacity="0.55" d="M62.7101 58.9897L48.1285 50.5715L33.5469 58.9897L48.1285 67.408L62.7101 58.9897Z" fill="black"/>
<path d="M51.7629 53.9096C51.7629 53.3724 51.4091 52.8352 50.6995 52.4262C49.2803 51.6061 46.9789 51.6061 45.5575 52.4262C44.8478 52.8352 44.4941 53.3724 44.4941 53.9096V55.3443C44.4941 55.8815 44.8478 56.4187 45.5575 56.8277C46.9767 57.6478 49.2803 57.6478 50.6995 56.8277C51.4091 56.4187 51.7629 55.8815 51.7629 55.3443V53.9096Z" fill="#911100"/>
<path opacity="0.3" d="M50.6996 52.4262C51.4093 52.8352 51.763 53.3724 51.763 53.9096V55.3443C51.763 55.8815 51.4093 56.4187 50.6996 56.8277C49.9108 57.2468 49.0283 57.4583 48.1353 57.4423V51.8227C49.0275 51.8022 49.9102 52.0099 50.6996 52.4262Z" fill="black"/>
<path opacity="0.4" d="M45.5575 52.4262C44.8478 52.8352 44.4941 53.3724 44.4941 53.9096V55.3443C44.4941 55.8815 44.8478 56.4187 45.5575 56.8277C46.3502 57.249 47.2376 57.4606 48.1351 57.4423V51.8227C47.2384 51.7999 46.3509 52.0077 45.5575 52.4262Z" fill="black"/>
<path d="M45.5576 52.4262C44.1384 53.2442 44.1384 54.5728 45.5576 55.393C46.9769 56.2131 49.2804 56.2131 50.6996 55.393C52.1189 54.5728 52.1189 53.2442 50.6996 52.4262C49.2804 51.6083 46.9791 51.6016 45.5576 52.4262Z" fill="#911100"/>
<path opacity="0.3" d="M45.5576 52.4262C44.1384 53.2442 44.1384 54.5728 45.5576 55.393C46.9769 56.2131 49.2804 56.2131 50.6996 55.393C52.1189 54.5728 52.1189 53.2442 50.6996 52.4262C49.2804 51.6083 46.9791 51.6016 45.5576 52.4262Z" fill="white"/>
<path d="M51.7629 62.12C51.7629 61.5851 51.4091 61.0479 50.6995 60.6367C49.2803 59.8165 46.9789 59.8165 45.5575 60.6367C44.8478 61.0479 44.4941 61.5828 44.4941 62.12V63.5548C44.4941 64.092 44.8478 64.6292 45.5575 65.0381C46.9767 65.8583 49.2803 65.8583 50.6995 65.0381C51.4091 64.6292 51.7629 64.092 51.7629 63.5548V62.12Z" fill="#911100"/>
<path opacity="0.3" d="M50.6996 60.6367C51.4093 61.0479 51.763 61.5828 51.763 62.12V63.5548C51.763 64.092 51.4093 64.6292 50.6996 65.0381C49.9114 65.4589 49.0286 65.6713 48.1353 65.6549V60.0221C49.0283 60.0061 49.9108 60.2175 50.6996 60.6367Z" fill="black"/>
<path opacity="0.4" d="M45.5575 60.6367C44.8478 61.0479 44.4941 61.5828 44.4941 62.12V63.5548C44.4941 64.092 44.8478 64.6292 45.5575 65.0381C46.3497 65.4612 47.2373 65.6735 48.1351 65.6549V60.0221C47.2376 60.0038 46.3502 60.2154 45.5575 60.6367Z" fill="black"/>
<path d="M45.5576 60.6367C44.1384 61.4568 44.1384 62.7855 45.5576 63.6056C46.9769 64.4258 49.2804 64.4236 50.6996 63.6056C52.1189 62.7877 52.1189 61.4568 50.6996 60.6367C49.2804 59.8165 46.9791 59.8165 45.5576 60.6367Z" fill="#911100"/>
<path opacity="0.3" d="M45.5576 60.6367C44.1384 61.4568 44.1384 62.7855 45.5576 63.6056C46.9769 64.4258 49.2804 64.4236 50.6996 63.6056C52.1189 62.7877 52.1189 61.4568 50.6996 60.6367C49.2804 59.8165 46.9791 59.8165 45.5576 60.6367Z" fill="white"/>
<path d="M44.6535 58.0126C44.6535 57.4754 44.2998 56.9382 43.5901 56.5292C42.1709 55.7091 39.8696 55.7091 38.4481 56.5292C37.7385 56.9382 37.3848 57.4754 37.3848 58.0126V59.4473C37.3848 59.9845 37.7385 60.5217 38.4481 60.9307C39.8674 61.7509 42.1709 61.7509 43.5901 60.9307C44.2998 60.5217 44.6535 59.9845 44.6535 59.4473V58.0126Z" fill="#911100"/>
<path opacity="0.3" d="M43.5901 56.5292C44.2997 56.9382 44.6534 57.4754 44.6534 58.0126V59.4473C44.6534 59.9845 44.2997 60.5217 43.5901 60.9307C42.8001 61.3535 41.9149 61.5666 41.019 61.5497V55.9147C41.9144 55.8975 42.7993 56.109 43.5901 56.5292Z" fill="black"/>
<path opacity="0.4" d="M38.4481 56.5292C37.7385 56.9382 37.3848 57.4754 37.3848 58.0126V59.4473C37.3848 59.9845 37.7385 60.5217 38.4481 60.9307C39.2381 61.3535 40.1233 61.5666 41.0191 61.5497V55.9147C40.1238 55.8978 39.239 56.1093 38.4481 56.5292Z" fill="black"/>
<path d="M38.4477 56.5292C37.0285 57.3494 37.0285 58.678 38.4477 59.496C39.867 60.3139 42.1705 60.3161 43.5898 59.496C45.009 58.6758 45.009 57.3494 43.5898 56.5292C42.1705 55.7091 39.8692 55.7091 38.4477 56.5292Z" fill="#911100"/>
<path opacity="0.3" d="M38.4477 56.5292C37.0285 57.3494 37.0285 58.678 38.4477 59.496C39.867 60.3139 42.1705 60.3161 43.5898 59.496C45.009 58.6758 45.009 57.3494 43.5898 56.5292C42.1705 55.7091 39.8692 55.7091 38.4477 56.5292Z" fill="white"/>
<path d="M58.8722 58.0126C58.8722 57.4754 58.5185 56.9404 57.8067 56.5292C56.3874 55.7091 54.0861 55.7091 52.6669 56.5292C51.9572 56.9382 51.6035 57.4754 51.6035 58.0126V59.4473C51.6035 59.9845 51.9572 60.5217 52.6669 60.9307C54.0861 61.7509 56.3874 61.7509 57.8067 60.9307C58.5185 60.5217 58.8722 59.9845 58.8722 59.4473V58.0126Z" fill="#911100"/>
<path opacity="0.3" d="M57.8071 56.5314C58.5167 56.9404 58.8726 57.4776 58.8726 58.0148V59.4495C58.8726 59.9867 58.5189 60.5239 57.8093 60.9329C57.019 61.3546 56.1339 61.567 55.2383 61.5497V55.9169C56.1329 55.8997 57.0171 56.1112 57.8071 56.5314Z" fill="black"/>
<path opacity="0.4" d="M52.6669 56.5314C51.9572 56.9404 51.6035 57.4776 51.6035 58.0148V59.4495C51.6035 59.9867 51.9572 60.5239 52.6669 60.9329C53.457 61.3549 54.3422 61.5673 55.2379 61.5497V55.9169C54.3425 55.8997 53.4576 56.1112 52.6669 56.5314Z" fill="black"/>
<path d="M52.667 56.5314C51.2477 57.3516 51.2477 58.6802 52.667 59.5004C54.0862 60.3205 56.3876 60.3183 57.8068 59.5004C59.2261 58.6824 59.2283 57.3516 57.8068 56.5314C56.3853 55.7113 54.0862 55.7113 52.667 56.5314Z" fill="#911100"/>
<path opacity="0.3" d="M52.667 56.5314C51.2477 57.3516 51.2477 58.6802 52.667 59.5004C54.0862 60.3205 56.3876 60.3183 57.8068 59.5004C59.2261 58.6824 59.2283 57.3516 57.8068 56.5314C56.3853 55.7113 54.0862 55.7113 52.667 56.5314Z" fill="white"/>
<path d="M62.71 58.3464L48.1284 66.7647V57.9043L62.71 49.486V58.3464Z" fill="#911100"/>
<path opacity="0.1" d="M62.71 58.3464L48.1284 66.7647V57.9043L62.71 49.486V58.3464Z" fill="black"/>
<path d="M33.5469 58.3464L48.1285 66.7647V57.9043L33.5469 49.486V58.3464Z" fill="#911100"/>
<path opacity="0.2" d="M33.5469 58.3464L48.1285 66.7647V57.9043L33.5469 49.486V58.3464Z" fill="black"/>
<path d="M62.7101 49.486L48.1285 41.0655L33.5469 49.486L48.1285 57.9043L62.7101 49.486Z" fill="#911100"/>
<path d="M51.7629 44.4037C51.7629 43.8665 51.4091 43.3315 50.6995 42.9203C49.2803 42.1001 46.9789 42.1001 45.5575 42.9203C44.8478 43.3315 44.4941 43.8665 44.4941 44.4037V45.8384C44.4941 46.3756 44.8478 46.9128 45.5575 47.3218C46.9767 48.1419 49.2803 48.1419 50.6995 47.3218C51.4091 46.9128 51.7629 46.3756 51.7629 45.8384V44.4037Z" fill="#911100"/>
<path opacity="0.1" d="M50.6996 42.9203C51.4093 43.3315 51.763 43.8665 51.763 44.4037V45.8384C51.763 46.3756 51.4093 46.9128 50.6996 47.3218C49.9112 47.7419 49.0285 47.9535 48.1353 47.9363V42.3168C49.0274 42.2973 49.9098 42.505 50.6996 42.9203Z" fill="black"/>
<path opacity="0.2" d="M45.5575 42.9203C44.8478 43.3315 44.4941 43.8665 44.4941 44.4037V45.8384C44.4941 46.3756 44.8478 46.9128 45.5575 47.3218C46.3498 47.7441 47.2374 47.9557 48.1351 47.9363V42.3168C47.2385 42.2951 46.3512 42.5028 45.5575 42.9203Z" fill="black"/>
<path d="M45.5576 42.9203C44.1384 43.7405 44.1384 45.0691 45.5576 45.8892C46.9769 46.7094 49.2804 46.7072 50.6996 45.8892C52.1189 45.0713 52.1189 43.7405 50.6996 42.9203C49.2804 42.1001 46.9791 42.0957 45.5576 42.9203Z" fill="#911100"/>
<path opacity="0.3" d="M45.5576 42.9203C44.1384 43.7405 44.1384 45.0691 45.5576 45.8892C46.9769 46.7094 49.2804 46.7072 50.6996 45.8892C52.1189 45.0713 52.1189 43.7405 50.6996 42.9203C49.2804 42.1001 46.9791 42.0957 45.5576 42.9203Z" fill="white"/>
<path d="M51.7629 52.6163C51.7629 52.0791 51.4091 51.5419 50.6995 51.133C49.2803 50.3128 46.9789 50.3128 45.5575 51.133C44.8478 51.5419 44.4941 52.0791 44.4941 52.6163V54.0511C44.4941 54.5883 44.8478 55.1255 45.5575 55.5344C46.9767 56.3546 49.2803 56.3546 50.6995 55.5344C51.4091 55.1255 51.7629 54.5883 51.7629 54.0511V52.6163Z" fill="#911100"/>
<path opacity="0.1" d="M50.6996 51.133C51.4093 51.5419 51.763 52.0791 51.763 52.6163V54.0511C51.763 54.5883 51.4093 55.1255 50.6996 55.5344C49.9108 55.9536 49.0283 56.1651 48.1353 56.149V50.5184C49.0285 50.5013 49.9112 50.7128 50.6996 51.133Z" fill="black"/>
<path opacity="0.2" d="M45.5575 51.133C44.8478 51.5419 44.4941 52.0791 44.4941 52.6163V54.0511C44.4941 54.5883 44.8478 55.1255 45.5575 55.5344C46.3502 55.9558 47.2376 56.1673 48.1351 56.149V50.5184C47.2374 50.499 46.3498 50.7106 45.5575 51.133Z" fill="black"/>
<path d="M45.5576 51.133C44.1384 51.9531 44.1384 53.2817 45.5576 54.0997C46.9769 54.9176 49.2804 54.9199 50.6996 54.0997C52.1189 53.2795 52.1189 51.9531 50.6996 51.133C49.2804 50.3128 46.9791 50.3128 45.5576 51.133Z" fill="#911100"/>
<path opacity="0.3" d="M45.5576 51.133C44.1384 51.9531 44.1384 53.2817 45.5576 54.0997C46.9769 54.9176 49.2804 54.9199 50.6996 54.0997C52.1189 53.2795 52.1189 51.9531 50.6996 51.133C49.2804 50.3128 46.9791 50.3128 45.5576 51.133Z" fill="white"/>
<path d="M44.6535 48.5067C44.6535 47.9695 44.2998 47.4323 43.5901 47.0233C42.1709 46.2032 39.8696 46.2032 38.4481 47.0233C37.7385 47.4323 37.3848 47.9695 37.3848 48.5067V49.9414C37.3848 50.4786 37.7385 51.0136 38.4481 51.4248C39.8674 52.2427 42.1709 52.2449 43.5901 51.4248C44.2998 51.0136 44.6535 50.4764 44.6535 49.9414V48.5067Z" fill="#911100"/>
<path opacity="0.1" d="M43.5901 47.0255C44.2997 47.4345 44.6534 47.9717 44.6534 48.5089V49.9436C44.6534 50.4808 44.2997 51.0158 43.5901 51.427C42.7995 51.848 41.9146 52.0603 41.019 52.0438V46.4088C41.9147 46.3913 42.7998 46.6036 43.5901 47.0255Z" fill="black"/>
<path opacity="0.2" d="M38.4481 47.0255C37.7385 47.4345 37.3848 47.9717 37.3848 48.5089V49.9436C37.3848 50.4808 37.7385 51.0158 38.4481 51.427C39.2387 51.848 40.1236 52.0603 41.0191 52.0438V46.4088C40.1235 46.3915 39.2384 46.6038 38.4481 47.0255Z" fill="black"/>
<path d="M38.4477 47.0255C37.0285 47.8435 37.0285 49.1721 38.4477 49.9923C39.867 50.8124 42.1705 50.8124 43.5898 49.9923C45.009 49.1721 45.009 47.8435 43.5898 47.0255C42.1705 46.2076 39.8692 46.2054 38.4477 47.0255Z" fill="#911100"/>
<path opacity="0.3" d="M38.4477 47.0255C37.0285 47.8435 37.0285 49.1721 38.4477 49.9923C39.867 50.8124 42.1705 50.8124 43.5898 49.9923C45.009 49.1721 45.009 47.8435 43.5898 47.0255C42.1705 46.2076 39.8692 46.2054 38.4477 47.0255Z" fill="white"/>
<path d="M58.8722 48.5067C58.8722 47.9695 58.5185 47.4323 57.8067 47.0233C56.3874 46.2032 54.0861 46.2032 52.6669 47.0233C51.9572 47.4323 51.6035 47.9695 51.6035 48.5067V49.9414C51.6035 50.4786 51.9572 51.0158 52.6669 51.4248C54.0861 52.2449 56.3874 52.2449 57.8067 51.4248C58.5185 51.0158 58.8722 50.4786 58.8722 49.9414V48.5067Z" fill="#911100"/>
<path opacity="0.1" d="M57.8071 47.0277C58.5167 47.4367 58.8726 47.9739 58.8726 48.5111V49.9458C58.8726 50.483 58.5189 51.0202 57.8093 51.4292C57.0184 51.8491 56.1336 52.0607 55.2383 52.0438V46.4132C56.133 46.3949 57.0175 46.6065 57.8071 47.0277Z" fill="black"/>
<path opacity="0.2" d="M52.6669 47.0277C51.9572 47.4367 51.6035 47.9739 51.6035 48.5111V49.9458C51.6035 50.483 51.9572 51.0202 52.6669 51.4292C53.4576 51.8494 54.3425 52.061 55.2379 52.0438V46.4132C54.3424 46.3949 53.4572 46.6065 52.6669 47.0277Z" fill="black"/>
<path d="M52.667 47.0277C51.2477 47.8457 51.2477 49.1743 52.667 49.9945C54.0862 50.8146 56.3876 50.8146 57.8068 49.9945C59.2261 49.1743 59.2283 47.8457 57.8068 47.0277C56.3853 46.2098 54.0862 46.2076 52.667 47.0277Z" fill="#911100"/>
<path opacity="0.3" d="M52.667 47.0277C51.2477 47.8457 51.2477 49.1743 52.667 49.9945C54.0862 50.8146 56.3876 50.8146 57.8068 49.9945C59.2261 49.1743 59.2283 47.8457 57.8068 47.0277C56.3853 46.2098 54.0862 46.2076 52.667 47.0277Z" fill="white"/>
<path d="M47.3614 76.7127L32.7798 85.131V76.2706L47.3614 67.8501V76.7127Z" fill="#37474F"/>
<path d="M18.1982 76.7127L32.7799 85.131V76.2706L18.1982 67.8501V76.7127Z" fill="#263238"/>
<path d="M47.3615 67.8501L32.7799 59.4319L18.1982 67.8501L32.7799 76.2706L47.3615 67.8501Z" fill="#455A64"/>
<path d="M35.3508 69.5081C36.0604 69.9171 36.4141 70.4543 36.4141 70.9915V72.4262C36.4141 72.9634 36.0604 73.5006 35.3508 73.9096C34.56 74.3298 33.6751 74.5413 32.7798 74.5241V68.8847C33.676 68.8692 34.5612 69.0838 35.3508 69.5081Z" fill="#37474F"/>
<path d="M30.2088 69.5081C29.4992 69.9171 29.1455 70.4543 29.1455 70.9915V72.4262C29.1455 72.9634 29.4992 73.5006 30.2088 73.9096C30.9996 74.3298 31.8845 74.5413 32.7799 74.5241V68.8847C31.8836 68.8692 30.9984 69.0838 30.2088 69.5081Z" fill="#263238"/>
<path d="M30.209 69.5081C28.7897 70.3261 28.7897 71.6569 30.209 72.4749C31.6282 73.2928 33.9318 73.295 35.351 72.4749C36.7703 71.6547 36.7703 70.3283 35.351 69.5081C33.9318 68.688 31.6304 68.6791 30.209 69.5081Z" fill="#455A64"/>
<path opacity="0.07" d="M30.209 69.5081C28.7897 70.3261 28.7897 71.6569 30.209 72.4749C31.6282 73.2928 33.9318 73.295 35.351 72.4749C36.7703 71.6547 36.7703 70.3283 35.351 69.5081C33.9318 68.688 31.6304 68.6791 30.209 69.5081Z" fill="white"/>
<path d="M35.3508 61.2866C36.0604 61.6956 36.4141 62.2328 36.4141 62.77V64.2025C36.4141 64.7397 36.0604 65.2769 35.3508 65.6859C34.5604 66.1071 33.6752 66.3187 32.7798 66.3004V60.6654C33.6757 60.6503 34.5606 60.8641 35.3508 61.2866Z" fill="#37474F"/>
<path d="M30.2088 61.2866C29.4992 61.6956 29.1455 62.2328 29.1455 62.77V64.2025C29.1455 64.7397 29.4992 65.2769 30.2088 65.6859C30.9992 66.1071 31.8844 66.3187 32.7799 66.3004V60.6654C31.8839 60.6503 30.999 60.8641 30.2088 61.2866Z" fill="#263238"/>
<path d="M30.209 61.2866C28.7897 62.1068 28.7897 63.4354 30.209 64.2556C31.6282 65.0757 33.9318 65.0735 35.351 64.2556C36.7703 63.4376 36.7703 62.1068 35.351 61.2866C33.9318 60.4665 31.6304 60.4665 30.209 61.2866Z" fill="#455A64"/>
<path opacity="0.07" d="M30.209 61.2866C28.7897 62.1068 28.7897 63.4354 30.209 64.2556C31.6282 65.0757 33.9318 65.0735 35.351 64.2556C36.7703 63.4376 36.7703 62.1068 35.351 61.2866C33.9318 60.4665 31.6304 60.4665 30.209 61.2866Z" fill="white"/>
<path d="M42.4585 65.3941C43.1681 65.803 43.524 66.3402 43.524 66.8774V68.3121C43.524 68.8493 43.1703 69.3865 42.4607 69.7955C41.6698 70.2155 40.7849 70.427 39.8896 70.4101V64.7795C40.7844 64.7612 41.6689 64.9728 42.4585 65.3941Z" fill="#37474F"/>
<path d="M37.3182 65.3941C36.6086 65.803 36.2549 66.3402 36.2549 66.8774V68.3122C36.2549 68.8493 36.6086 69.3865 37.3182 69.7955C38.109 70.2157 38.9939 70.4273 39.8892 70.4101V64.7795C38.9938 64.7612 38.1086 64.9728 37.3182 65.3941Z" fill="#263238"/>
<path d="M37.3183 65.3941C35.8991 66.212 35.8991 67.5406 37.3183 68.3608C38.7376 69.1809 41.0389 69.1809 42.4582 68.3608C43.8774 67.5406 43.8796 66.212 42.4582 65.3941C41.0367 64.5761 38.7376 64.5739 37.3183 65.3941Z" fill="#455A64"/>
<path opacity="0.07" d="M37.3183 65.3941C35.8991 66.212 35.8991 67.5406 37.3183 68.3608C38.7376 69.1809 41.0389 69.1809 42.4582 68.3608C43.8774 67.5406 43.8796 66.212 42.4582 65.3941C41.0367 64.5761 38.7376 64.5739 37.3183 65.3941Z" fill="white"/>
<path d="M28.239 65.3896C28.9486 65.8008 29.3023 66.338 29.3023 66.8752V68.3099C29.3023 68.8449 28.9486 69.3821 28.239 69.7933C27.4482 70.2135 26.5633 70.425 25.668 70.4079V64.7751C26.5633 64.7579 27.4482 64.9694 28.239 65.3896Z" fill="#37474F"/>
<path d="M23.0995 65.3896C22.3898 65.8008 22.0361 66.338 22.0361 66.8752V68.3099C22.0361 68.8449 22.3898 69.3821 23.0995 69.7933C23.8902 70.2135 24.7752 70.425 25.6705 70.4079V64.7751C24.7752 64.7582 23.8903 64.9697 23.0995 65.3896Z" fill="#263238"/>
<path d="M23.0991 65.3896C21.6799 66.2098 21.6799 67.5384 23.0991 68.3586C24.5184 69.1787 26.8219 69.1787 28.2411 68.3586C29.6604 67.5384 29.6604 66.2098 28.2411 65.3918C26.8219 64.5739 24.5206 64.5717 23.0991 65.3896Z" fill="#455A64"/>
<path opacity="0.07" d="M23.0991 65.3896C21.6799 66.2098 21.6799 67.5384 23.0991 68.3586C24.5184 69.1787 26.8219 69.1787 28.2411 68.3586C29.6604 67.5384 29.6604 66.2098 28.2411 65.3918C26.8219 64.5739 24.5206 64.5717 23.0991 65.3896Z" fill="white"/>
<path d="M78.0592 39.9823L63.4775 48.4028V39.5402L78.0592 31.1219V39.9823Z" fill="#37474F"/>
<path d="M48.896 39.9823L63.4776 48.4028V39.5402L48.896 31.1219V39.9823Z" fill="#263238"/>
<path d="M78.0593 31.1219L63.4776 22.7037L48.896 31.1219L63.4776 39.5402L78.0593 31.1219Z" fill="#455A64"/>
<path d="M66.0422 32.7689C66.7518 33.1801 67.1055 33.7173 67.1055 34.2522V35.6848C67.1055 36.222 66.7518 36.7592 66.0422 37.1703C65.2514 37.5906 64.3665 37.8021 63.4712 37.7849V32.1477C64.3671 32.1325 65.252 32.3464 66.0422 32.7689Z" fill="#37474F"/>
<path d="M60.9066 32.7689C60.197 33.1801 59.8433 33.7173 59.8433 34.2522V35.6848C59.8433 36.222 60.197 36.7592 60.9066 37.1703C61.6974 37.5906 62.5823 37.8021 63.4776 37.7849V32.1477C62.5817 32.1325 61.6968 32.3464 60.9066 32.7689Z" fill="#263238"/>
<path d="M60.9067 32.7689C59.4875 33.589 59.4875 34.9177 60.9067 35.7378C62.326 36.558 64.6273 36.5558 66.0488 35.7378C67.4702 34.9199 67.468 33.589 66.0488 32.7689C64.6295 31.9487 62.326 31.9509 60.9067 32.7689Z" fill="#455A64"/>
<path opacity="0.07" d="M60.9067 32.7689C59.4875 33.589 59.4875 34.9177 60.9067 35.7378C62.326 36.558 64.6273 36.5558 66.0488 35.7378C67.4702 34.9199 67.468 33.589 66.0488 32.7689C64.6295 31.9487 62.326 31.9509 60.9067 32.7689Z" fill="white"/>
<path d="M66.0422 24.5584C66.7518 24.9674 67.1055 25.5046 67.1055 26.0418V27.4765C67.1055 28.0137 66.7518 28.5509 66.0422 28.9599C65.2514 29.3801 64.3665 29.5916 63.4712 29.5744V23.9439C64.3666 23.9256 65.2518 24.1372 66.0422 24.5584Z" fill="#37474F"/>
<path d="M60.9066 24.5584C60.197 24.9674 59.8433 25.5046 59.8433 26.0418V27.4765C59.8433 28.0137 60.197 28.5509 60.9066 28.9599C61.6974 29.3801 62.5823 29.5916 63.4776 29.5744V23.9439C62.5822 23.9256 61.697 24.1372 60.9066 24.5584Z" fill="#263238"/>
<path d="M60.9067 24.5584C59.4875 25.3764 59.4875 26.705 60.9067 27.5251C62.326 28.3453 64.6273 28.3453 66.0488 27.5251C67.4702 26.705 67.468 25.3764 66.0488 24.5584C64.6295 23.7405 62.326 23.7471 60.9067 24.5584Z" fill="#455A64"/>
<path opacity="0.07" d="M60.9067 24.5584C59.4875 25.3764 59.4875 26.705 60.9067 27.5251C62.326 28.3453 64.6273 28.3453 66.0488 27.5251C67.4702 26.705 67.468 25.3764 66.0488 24.5584C64.6295 23.7405 62.326 23.7471 60.9067 24.5584Z" fill="white"/>
<path d="M73.1562 28.6636C73.8658 29.0748 74.2218 29.6098 74.2218 30.147V31.5817C74.2218 32.1189 73.8658 32.6561 73.1562 33.0651C72.3666 33.4864 71.4821 33.698 70.5874 33.6797V28.0491C71.482 28.0319 72.3662 28.2434 73.1562 28.6636Z" fill="#37474F"/>
<path d="M68.016 28.6636C67.3063 29.0748 66.9526 29.6098 66.9526 30.147V31.5817C66.9526 32.1189 67.3063 32.6561 68.016 33.0651C68.8064 33.4863 69.6915 33.6979 70.587 33.6797V28.0491C69.6917 28.0319 68.8067 28.2434 68.016 28.6636Z" fill="#263238"/>
<path d="M68.0161 28.6636C66.5968 29.4838 66.5968 30.8124 68.0161 31.6326C69.4354 32.4527 71.7367 32.4505 73.1559 31.6326C74.5752 30.8146 74.5774 29.4838 73.1559 28.6636C71.7345 27.8435 69.4354 27.8435 68.0161 28.6636Z" fill="#455A64"/>
<path opacity="0.07" d="M68.0161 28.6636C66.5968 29.4838 66.5968 30.8124 68.0161 31.6326C69.4354 32.4527 71.7367 32.4505 73.1559 31.6326C74.5752 30.8146 74.5774 29.4838 73.1559 28.6636C71.7345 27.8435 69.4354 27.8435 68.0161 28.6636Z" fill="white"/>
<path d="M58.9392 28.6614C59.6488 29.0704 60.0025 29.6076 60.0025 30.1448V31.5795C60.0025 32.1167 59.6488 32.6539 58.9392 33.0629C58.1488 33.4841 57.2636 33.6957 56.3682 33.6775V28.0469C57.2635 28.0297 58.1484 28.2412 58.9392 28.6614Z" fill="#37474F"/>
<path d="M53.7972 28.6614C53.0876 29.0704 52.7339 29.6076 52.7339 30.1448V31.5795C52.7339 32.1167 53.0876 32.6539 53.7972 33.0629C54.5876 33.4841 55.4728 33.6957 56.3682 33.6775V28.0469C55.4729 28.0297 54.588 28.2412 53.7972 28.6614Z" fill="#263238"/>
<path d="M53.7969 28.6614C52.3776 29.4816 52.3776 30.8102 53.7969 31.6282C55.2161 32.4461 57.5196 32.4483 58.9389 31.6282C60.3582 30.808 60.3582 29.4794 58.9389 28.6592C57.5196 27.8391 55.2095 27.8413 53.7969 28.6614Z" fill="#455A64"/>
<path opacity="0.07" d="M53.7969 28.6614C52.3776 29.4816 52.3776 30.8102 53.7969 31.6282C55.2161 32.4461 57.5196 32.4483 58.9389 31.6282C60.3582 30.808 60.3582 29.4794 58.9389 28.6592C57.5196 27.8391 55.2095 27.8413 53.7969 28.6614Z" fill="white"/>
<path d="M73.1025 12.0814L74.4289 12.8463C74.4219 12.7883 74.4182 12.73 74.4178 12.6716V12.287C74.4178 11.6039 74.8976 11.3253 75.49 11.668C75.7454 11.8244 75.964 12.034 76.1311 12.2825C76.2284 11.4226 76.9026 11.102 77.7228 11.5751C78.1893 11.88 78.5775 12.2904 78.8559 12.7732C79.1344 13.256 79.2952 13.7975 79.3255 14.3539V14.9287C79.3305 15.1571 79.2845 15.3837 79.1907 15.5919L80.296 16.2286C80.4692 16.3414 80.6134 16.4935 80.7167 16.6725C80.82 16.8515 80.8797 17.0524 80.8907 17.2588C80.8907 17.6368 80.6232 17.7915 80.296 17.6014L73.1025 13.4542C72.929 13.3417 72.7847 13.1896 72.6813 13.0106C72.578 12.8315 72.5185 12.6305 72.5078 12.424C72.5078 12.046 72.7731 11.8913 73.1025 12.0814Z" fill="#EBEBEB"/>
<path d="M81.8744 8.55754L82.6062 8.8383V7.22671C82.6062 5.94673 83.6253 5.64166 84.7328 6.28054C85.8382 6.91943 86.7357 8.47354 86.7357 9.75131V9.98564C86.8916 9.93735 87.0564 9.92518 87.2176 9.95008C87.3789 9.97498 87.5324 10.0363 87.6664 10.1293C88.0861 10.4031 88.4353 10.772 88.6857 11.206C88.9362 11.6401 89.0807 12.127 89.1078 12.6274V12.7335L90.1379 13.3238C90.4145 13.5039 90.6447 13.7467 90.8098 14.0325C90.975 14.3183 91.0705 14.6389 91.0885 14.9685C91.0885 15.5742 90.6619 15.8196 90.1379 15.5168L81.8744 10.7505C81.5976 10.5706 81.3672 10.3279 81.2021 10.0421C81.0369 9.75624 80.9415 9.43544 80.9238 9.10579C80.9238 8.49343 81.3483 8.25468 81.8744 8.55754Z" fill="#EBEBEB"/>
<path d="M19.8385 8.94882H18.9409C18.365 8.94969 17.7945 8.83701 17.2621 8.6172C16.7298 8.3974 16.246 8.07479 15.8384 7.66784C15.4308 7.26089 15.1075 6.77757 14.8869 6.24554C14.6663 5.71352 14.5527 5.14321 14.5527 4.56726C14.5524 3.96758 14.6703 3.37372 14.8996 2.81961C15.1289 2.2655 15.4651 1.76199 15.889 1.33785C16.313 0.913715 16.8163 0.577258 17.3703 0.347705C17.9243 0.118152 18.5181 -7.03148e-08 19.1178 0H19.6506C20.8615 0.000586123 22.0226 0.482037 22.8787 1.3385C23.7347 2.19496 24.2156 3.35633 24.2156 4.56726C24.2156 5.72856 23.7546 6.84236 22.9338 7.66393C22.1131 8.48551 20.9998 8.94765 19.8385 8.94882Z" fill="#263238"/>
<path d="M13.9495 7.05869C14.71 6.32917 15.5964 6.74699 16.3812 7.56052C17.166 8.37404 17.544 9.27821 16.7836 10.0077C16.0231 10.7373 14.7741 10.6709 13.9915 9.8552C13.2089 9.03946 13.189 7.78822 13.9495 7.05869Z" fill="#263238"/>
<path d="M24.5498 13.5072C25.6088 15.3001 26.8865 17.471 27.6028 18.2182C28.9624 18.8504 32.0706 20.0332 33.3196 20.2078C33.5398 20.2347 33.7624 20.1821 33.9474 20.0597C34.4382 19.7369 34.8184 19.6861 35.338 19.507C35.7425 19.3655 35.9149 19.1732 36.0012 19.2462C36.0791 19.338 36.1181 19.4566 36.1098 19.5768C36.1016 19.697 36.0467 19.8092 35.9569 19.8895C35.7629 20.0741 35.5477 20.2351 35.3158 20.3692C35.8702 20.506 36.4483 20.5158 37.007 20.3979C38.0902 20.115 38.6009 20.6345 37.8692 21.8083C37.6061 22.2306 36.5759 22.9026 34.4846 22.7213C33.7394 22.6788 32.9975 22.5909 32.2629 22.4583C30.2578 22.0316 28.1157 21.406 26.7362 20.9948C26.2287 20.7944 25.7746 20.4788 25.4098 20.0729C23.1041 17.4445 21.9722 15.1166 20.9619 13.4144L21.0481 10.6334C22.6774 10.5715 23.6634 12.0062 24.5498 13.5072Z" fill="#FFA8A7"/>
<path d="M13.6862 55.1829C13.5785 55.7851 13.5208 56.3951 13.5137 57.0067C13.4916 58.1121 13.2927 58.5056 13.2617 59.4142C13.2308 60.451 13.4098 60.8401 13.8321 61.4237C14.2543 62.0073 15.3574 62.529 15.8217 61.5497C16.2859 60.5704 16.2284 59.9182 16.0803 58.8969C15.9322 57.8755 15.9057 57.2632 15.8173 56.4651C15.7377 55.7577 15.6426 55.2205 15.6426 55.2205L13.6862 55.1829Z" fill="#263238"/>
<path d="M16.8275 46.4817L13.1821 46.4154C13.2374 48.8471 13.6243 52.8993 13.6862 55.1829C13.6862 55.614 13.6862 58.5233 13.8387 59.4075C14.0819 60.7339 15.6581 60.5571 15.7421 59.7612C15.8261 58.9654 15.6382 55.5808 15.6382 55.2183C15.6249 53.7548 16.3014 49.9326 16.6706 47.3041C16.6949 47.1803 16.8099 46.6077 16.8275 46.4817Z" fill="#FFA8A7"/>
<path d="M22.1843 53.2906C22.1843 53.2906 21.9964 53.3016 21.9632 53.4542C21.9301 53.6067 21.919 53.925 21.8439 54.2257C21.7195 54.6961 21.6754 55.1842 21.7134 55.6693C21.7753 56.0075 22.5513 56.5138 23.0818 56.6044C23.6124 56.695 24.3618 57.2168 24.7774 57.608C25.4444 58.1597 26.27 58.4841 27.134 58.5343C28.0183 58.5343 28.6373 58.2403 28.9291 57.765C29.2209 57.2897 28.6616 57.2344 27.6513 56.5779L26.8643 56.0672C25.2616 55.0193 24.6735 54.4578 24.2115 53.4144L22.1843 53.2906Z" fill="#263238"/>
<path d="M24.2378 52.6407C24.2112 51.889 24.7285 44.1472 24.7285 44.1472L21.2666 45.7257C22.0072 50.147 22.2636 52.623 22.1774 53.2663C22.1628 53.3271 22.1561 53.3895 22.1575 53.452C22.1575 54.3119 23.1324 54.7784 23.8885 55.3487C24.1869 55.5698 24.9562 56.2728 25.856 56.5779C26.4396 56.7768 27.5162 56.852 27.6533 56.4983C26.7336 55.7953 25.4802 54.8756 24.7462 54.0665C24.3969 53.6907 24.2599 53.3945 24.2378 52.6407Z" fill="#FFA8A7"/>
<path d="M14.677 22.7412C13.3506 25.6593 13.3506 27.9164 13.5717 31.6392C13.7728 35.0547 14.0934 38.0634 14.0934 38.0634C14.0425 38.6692 13.2091 39.8519 13.0919 42.5312C13.0499 44.4282 13.1074 46.3261 13.2644 48.2171C13.2644 48.2171 15.1545 49.265 16.5539 48.2171C16.5539 48.2171 17.9024 41.7752 18.2981 38.6404C18.6429 35.9036 19.609 30.22 19.609 30.22L21.1874 38.6205C20.9131 39.5018 20.7141 40.4048 20.5928 41.3198C20.4137 43.1635 21.4439 46.7846 21.4439 46.7846C21.4439 46.7846 23.3981 47.3682 24.5919 46.3093C24.5919 46.3093 25.034 40.4222 25.2042 38.2027C25.4253 35.2271 24.9213 27.0919 24.2404 22.9181L14.677 22.7412Z" fill="#37474F"/>
<path d="M19.6045 30.2111L20.009 27.4279C20.009 27.4279 22.3612 27.114 23.4268 26.1015C23.1216 26.5792 22.7151 26.9839 22.236 27.2869C21.7569 27.5899 21.217 27.7837 20.6546 27.8545L20.239 30.3791L20.9596 37.6744L19.6045 30.2111Z" fill="#263238"/>
<path d="M17.5217 10.7218C16.8187 10.7704 15.9079 10.9141 15.9079 10.9141C15.1696 11.3275 14.8026 12.0791 14.8026 12.9568C14.8026 13.9162 14.2676 14.4534 14.5594 16.034L15.7112 18.9079C15.6559 19.6264 14.7938 21.3154 14.3008 23.6565C17.1172 25.2283 20.7117 24.8613 22.7014 24.0102C23.2993 23.7803 23.831 23.4058 24.2488 22.9203C23.9217 21.196 23.8067 21.2181 23.6254 19.6419C23.5364 19.0056 23.5009 18.363 23.5193 17.7208C24.4213 16.5602 24.9032 15.4239 24.4478 14.3805C23.5193 12.2626 21.7839 10.5582 20.8908 10.6223L17.5217 10.7218Z" fill="#911100"/>
<path opacity="0.7" d="M17.5217 10.7218C16.8187 10.7704 15.9079 10.9141 15.9079 10.9141C15.1696 11.3275 14.8026 12.0791 14.8026 12.9568C14.8026 13.9162 14.2676 14.4534 14.5594 16.034L15.7112 18.9079C15.6559 19.6264 14.7938 21.3154 14.3008 23.6565C17.1172 25.2283 20.7117 24.8613 22.7014 24.0102C23.2993 23.7803 23.831 23.4058 24.2488 22.9203C23.9217 21.196 23.8067 21.2181 23.6254 19.6419C23.5364 19.0056 23.5009 18.363 23.5193 17.7208C24.4213 16.5602 24.9032 15.4239 24.4478 14.3805C23.5193 12.2626 21.7839 10.5582 20.8908 10.6223L17.5217 10.7218Z" fill="white"/>
<path opacity="0.1" d="M21.5389 17.6058C21.5389 17.6058 20.2523 18.6051 18.7844 18.0833C18.3723 17.9527 18.0008 17.7181 17.7057 17.4022C17.4106 17.0862 17.202 16.6995 17.0999 16.2794C17.0999 16.2794 16.9451 17.9573 18.7977 18.5299C19.2933 18.6897 19.8271 18.6861 20.3206 18.5198C20.8141 18.3534 21.2411 18.0331 21.5389 17.6058Z" fill="black"/>
<path d="M22.4228 2.05371C22.9334 2.35657 23.5657 3.63877 23.5038 6.32916C23.4507 8.61058 22.7101 9.1743 22.3388 9.33568C21.9674 9.49706 21.2533 9.39979 20.557 9.28484V10.6532C20.557 10.6532 21.3594 11.4933 21.2975 12.1211C21.2356 12.749 20.0397 12.8197 19.1377 12.2051C18.5914 11.8317 18.1041 11.3787 17.6919 10.8611V7.46766C17.6919 7.46766 17.3117 7.87221 16.6374 7.40797C16.4919 7.31565 16.3672 7.19401 16.2713 7.0508C16.1754 6.90759 16.1103 6.74596 16.0804 6.57622C16.0504 6.40649 16.0562 6.23238 16.0973 6.06499C16.1384 5.8976 16.2139 5.74062 16.3191 5.60406C16.6109 5.25919 17.3559 5.23488 17.714 5.76986C17.714 5.76986 18.6491 5.68807 20.1281 4.88559C20.6779 4.58757 21.1636 4.18405 21.5574 3.69812C21.9511 3.2122 22.2452 2.6534 22.4228 2.05371Z" fill="#FFA8A7"/>
<path d="M22.7127 2.05151C22.7127 2.05151 23.3007 3.44645 21.7002 4.596C21.7002 4.596 22.538 3.59456 22.2352 2.33669C21.9854 1.28883 22.6596 1.56295 22.7127 2.05151Z" fill="#263238"/>
<path d="M20.7007 5.7566C20.7049 5.83307 20.6787 5.90811 20.6277 5.96528C20.5768 6.02246 20.5052 6.05712 20.4288 6.06168C20.3515 6.06347 20.2767 6.03479 20.2204 5.98184C20.1642 5.92889 20.131 5.85592 20.1281 5.77871C20.1233 5.73952 20.1266 5.69976 20.1379 5.66191C20.1491 5.62406 20.168 5.58893 20.1934 5.55871C20.2188 5.5285 20.2502 5.50384 20.2856 5.48628C20.3209 5.46872 20.3595 5.45864 20.399 5.45666C20.4384 5.45468 20.4778 5.46085 20.5148 5.47478C20.5517 5.48871 20.5854 5.5101 20.6137 5.53762C20.642 5.56514 20.6643 5.5982 20.6793 5.63473C20.6943 5.67127 20.7015 5.7105 20.7007 5.74997V5.7566Z" fill="#263238"/>
<path d="M21.0324 7.69095L21.6956 7.91202C21.6839 7.95769 21.6628 8.00044 21.6337 8.03758C21.6046 8.07472 21.5682 8.10546 21.5267 8.12788C21.4852 8.15029 21.4395 8.16389 21.3925 8.16783C21.3455 8.17177 21.2982 8.16596 21.2535 8.15077C21.1639 8.11823 21.0905 8.05189 21.0492 7.96594C21.0079 7.87999 21.0019 7.78128 21.0324 7.69095Z" fill="#F28F8F"/>
<path d="M23.2433 4.87676L22.6641 4.47441C22.6883 4.4352 22.7202 4.40133 22.7579 4.3749C22.7957 4.34847 22.8384 4.33004 22.8836 4.32072C22.9287 4.3114 22.9753 4.31141 23.0204 4.32073C23.0655 4.33005 23.1082 4.3485 23.146 4.37493C23.2229 4.43056 23.2758 4.5134 23.2939 4.60661C23.3119 4.69982 23.2938 4.79641 23.2433 4.87676Z" fill="#263238"/>
<path d="M23.1104 5.551C23.1108 5.60726 23.0946 5.66238 23.0639 5.70953C23.0332 5.75669 22.9894 5.7938 22.9378 5.81627C22.8862 5.83874 22.8292 5.84557 22.7738 5.83593C22.7184 5.82629 22.667 5.80059 22.626 5.76203C22.5851 5.72346 22.5563 5.67372 22.5434 5.61898C22.5304 5.56423 22.5338 5.50689 22.5531 5.45406C22.5725 5.40122 22.6069 5.35523 22.6521 5.32177C22.6973 5.28831 22.7514 5.26886 22.8076 5.26583C22.8854 5.26403 22.9608 5.29294 23.0175 5.34631C23.0741 5.39968 23.1075 5.47321 23.1104 5.551Z" fill="#263238"/>
<path d="M21.5186 5.38521L21.5628 7.11175L22.4714 6.83099L21.5186 5.38521Z" fill="#F28F8F"/>
<path d="M20.5573 9.28484C19.8233 9.18757 18.3134 8.75428 18.0791 8.15739C18.1731 8.45968 18.3575 8.72587 18.6075 8.92008C19.0496 9.30474 20.5573 9.74024 20.5573 9.74024V9.28484Z" fill="#F28F8F"/>
<path d="M45.4361 33.1513L30.8545 41.5718V32.7092L45.4361 24.2909V33.1513Z" fill="#911100"/>
<path opacity="0.3" d="M45.4361 33.1513L30.8545 41.5718V32.7092L45.4361 24.2909V33.1513Z" fill="black"/>
<path d="M16.2729 33.1513L30.8546 41.5718V32.7092L16.2729 24.2909V33.1513Z" fill="#911100"/>
<path opacity="0.4" d="M16.2729 33.1513L30.8546 41.5718V32.7092L16.2729 24.2909V33.1513Z" fill="black"/>
<path opacity="0.1" d="M18.9169 29.6651L18.1343 28.8825C18.0238 28.7742 17.9022 28.6769 17.7961 28.5597C17.7563 28.5177 17.5529 28.2812 17.617 28.2171C17.6245 28.2115 17.6332 28.2076 17.6423 28.2057C17.6515 28.2038 17.661 28.2039 17.6701 28.206C18.0172 28.2414 18.4571 28.2259 18.7003 27.9341C18.7425 27.8855 18.7714 27.8269 18.7843 27.7639C18.7916 27.7176 18.7813 27.6703 18.7555 27.6312C18.7047 27.5561 18.5721 27.5561 18.4903 27.5318C18.3864 27.5001 18.2863 27.4571 18.1918 27.4035C18.0291 27.3167 17.8599 27.2428 17.6856 27.1825L16.9914 27.0344C16.8911 26.9548 16.7758 26.8962 16.6523 26.8621C16.5289 26.8279 16.3999 26.8188 16.2729 26.8354V30.7947C16.5599 30.9551 16.8781 31.0516 17.2059 31.0777C17.639 31.1278 18.0775 31.0566 18.4726 30.8721C18.7931 30.7129 19.3016 30.3017 19.0982 29.8839C19.05 29.8017 18.9887 29.7278 18.9169 29.6651Z" fill="black"/>
<path d="M45.4362 24.2909L30.8546 15.8727L16.2729 24.2909L30.8546 32.7092L45.4362 24.2909Z" fill="#911100"/>
<path opacity="0.15" d="M45.4362 24.2909L30.8546 15.8727L16.2729 24.2909L30.8546 32.7092L45.4362 24.2909Z" fill="black"/>
<path d="M34.4889 19.2108C34.4889 18.6736 34.1352 18.1364 33.4234 17.7274C32.0041 16.9073 29.7028 16.9073 28.2836 17.7274C27.5739 18.1364 27.2202 18.6736 27.2202 19.2108V20.6522C27.2202 21.1893 27.5739 21.7243 28.2836 22.1355C29.7028 22.9535 32.0041 22.9557 33.4234 22.1355C34.1352 21.7243 34.4889 21.1871 34.4889 20.6522V19.2108Z" fill="#911100"/>
<path opacity="0.3" d="M33.4233 17.7274C34.1329 18.1364 34.4888 18.6736 34.4888 19.2108V20.6521C34.4888 21.1893 34.1351 21.7243 33.4233 22.1355C32.6333 22.5557 31.7491 22.7673 30.8545 22.7501V17.1151C31.749 17.0962 32.6335 17.307 33.4233 17.7274Z" fill="black"/>
<path opacity="0.4" d="M28.2836 17.7274C27.5739 18.1364 27.2202 18.6736 27.2202 19.2108V20.6522C27.2202 21.1893 27.5739 21.7243 28.2836 22.1355C29.0743 22.5557 29.9592 22.7673 30.8546 22.7501V17.1151C29.9593 17.0962 29.0742 17.307 28.2836 17.7274Z" fill="black"/>
<path d="M28.2837 17.7274C26.8644 18.5454 26.8644 19.874 28.2837 20.6942C29.7029 21.5143 32.0043 21.5143 33.4235 20.6942C34.8428 19.874 34.845 18.5454 33.4235 17.7274C32.002 16.9095 29.7029 16.9073 28.2837 17.7274Z" fill="#911100"/>
<path d="M34.4889 27.4212C34.4889 26.884 34.1352 26.3491 33.4234 25.9379C32.0041 25.1177 29.7028 25.1177 28.2836 25.9379C27.5739 26.3469 27.2202 26.884 27.2202 27.4212V28.856C27.2202 29.3932 27.5739 29.9304 28.2836 30.3393C29.7028 31.1595 32.0041 31.1595 33.4234 30.3393C34.1352 29.9304 34.4889 29.3932 34.4889 28.856V27.4212Z" fill="#911100"/>
<path opacity="0.3" d="M33.4233 25.9379C34.1329 26.3469 34.4888 26.884 34.4888 27.4212V28.856C34.4888 29.3932 34.1351 29.9304 33.4233 30.3393C32.6337 30.7606 31.7492 30.9722 30.8545 30.9539V25.3233C31.7491 25.3061 32.6333 25.5177 33.4233 25.9379Z" fill="black"/>
<path opacity="0.4" d="M28.2836 25.9379C27.5739 26.3469 27.2202 26.884 27.2202 27.4212V28.856C27.2202 29.3932 27.5739 29.9304 28.2836 30.3393C29.0739 30.7606 29.9591 30.9722 30.8546 30.9539V25.3233C29.9592 25.3061 29.0743 25.5177 28.2836 25.9379Z" fill="black"/>
<path d="M28.2837 25.9379C26.8644 26.758 26.8644 28.0867 28.2837 28.9068C29.7029 29.727 32.0043 29.7248 33.4235 28.9068C34.8428 28.0889 34.845 26.758 33.4235 25.9379C32.002 25.1177 29.7029 25.1177 28.2837 25.9379Z" fill="#911100"/>
<path d="M27.3795 23.305C27.3795 22.7678 27.0258 22.2306 26.3162 21.8216C24.8947 21.0014 22.5934 21.0014 21.1742 21.8216C20.4645 22.2306 20.1108 22.7678 20.1108 23.305V24.7397C20.1108 25.2769 20.4645 25.8141 21.1742 26.2231C22.5934 27.0432 24.8947 27.0432 26.3162 26.2231C27.0258 25.8141 27.3795 25.2769 27.3795 24.7397V23.305Z" fill="#911100"/>
<path opacity="0.3" d="M26.3161 21.8304C27.0258 22.2394 27.3795 22.7766 27.3795 23.3138V24.7485C27.3795 25.2857 27.0258 25.8229 26.3161 26.2319C25.525 26.6506 24.6401 26.8606 23.7451 26.842V21.2159C24.6404 21.199 25.5253 21.4105 26.3161 21.8304Z" fill="black"/>
<path opacity="0.4" d="M21.1649 21.8304C20.4553 22.2394 20.1016 22.7766 20.1016 23.3138V24.7485C20.1016 25.2857 20.4553 25.8229 21.1649 26.2319C21.9587 26.6521 22.8468 26.8621 23.7448 26.8421V21.2159C22.8464 21.1972 21.9583 21.4088 21.1649 21.8304Z" fill="black"/>
<path d="M21.165 21.8304C19.7458 22.6506 19.7458 23.9792 21.165 24.7972C22.5843 25.6151 24.8856 25.6173 26.3071 24.7972C27.7285 23.977 27.7263 22.6506 26.3071 21.8304C24.8878 21.0103 22.5931 21.0103 21.165 21.8304Z" fill="#911100"/>
<path d="M41.5983 23.316C41.5983 22.7788 41.2424 22.2416 40.5328 21.8327C39.1135 21.0125 36.8122 21.0125 35.3929 21.8327C34.6833 22.2416 34.3274 22.7788 34.3296 23.316V24.7507C34.3296 25.2879 34.6833 25.8251 35.3929 26.2341C36.8122 27.0543 39.1135 27.0543 40.5328 26.2341C41.2424 25.8251 41.5983 25.2879 41.5983 24.7507V23.316Z" fill="#911100"/>
<path opacity="0.3" d="M40.5329 21.8326C41.2425 22.2416 41.5985 22.7788 41.5985 23.316V24.7507C41.5985 25.2879 41.2425 25.8251 40.5329 26.2341C39.7433 26.6524 38.8597 26.8617 37.9663 26.842V21.2181C38.8602 21.2016 39.7435 21.4131 40.5329 21.8326Z" fill="black"/>
<path opacity="0.4" d="M35.3929 21.8327C34.6833 22.2416 34.3274 22.7788 34.3296 23.316V24.7507C34.3296 25.2879 34.6833 25.8251 35.3929 26.2341C36.1846 26.6534 37.0706 26.8627 37.9662 26.842V21.2181C37.0701 21.2005 36.1844 21.4121 35.3929 21.8327Z" fill="black"/>
<path d="M35.3931 21.8327C33.9738 22.6528 33.9738 23.9814 35.3931 24.8016C36.8123 25.6218 39.1136 25.6195 40.5329 24.8016C41.9521 23.9836 41.9521 22.6528 40.5329 21.8327C39.1136 21.0125 36.8123 21.0125 35.3931 21.8327Z" fill="#911100"/>
<path d="M10.0122 19.4606C10.8456 17.6434 12.3224 14.8336 13.021 13.4055C14.0401 11.3496 14.8757 10.9031 16.2729 10.8611C16.8233 11.3386 17.0886 12.9966 16.1977 15.1232C15.4527 16.401 13.158 20.325 13.158 20.325C13.2685 20.6433 15.0592 25.0624 15.7931 26.0727C15.9254 26.2501 16.1181 26.3728 16.3348 26.4176C16.914 26.5414 17.6612 26.999 18.1431 27.2422C18.5278 27.4323 18.7908 27.419 18.7864 27.5251C18.7699 27.6466 18.7081 27.7574 18.6134 27.8353C18.5187 27.9132 18.3981 27.9524 18.2757 27.9452C17.8914 27.899 17.5109 27.8251 17.1372 27.7241C17.5563 28.1636 18.0047 28.5742 18.4791 28.9532C19.3634 29.6319 19.4783 30.3438 18.09 30.6466C17.04 30.8677 16.3657 30.3946 15.068 28.7764C14.6944 28.3099 14.2435 27.5893 13.7858 26.9835C12.6341 25.4604 12.0173 24.3882 11.3165 23.4332C9.31143 20.7406 9.70494 20.1304 10.0122 19.4606Z" fill="#FFA8A7"/>
</svg>
