<?xml version="1.0" encoding="utf-8"?>
<!-- Generator: Adobe Illustrator 24.3.0, SVG Export Plug-In . SVG Version: 6.00 Build 0)  -->
<svg version="1.1" id="work" xmlns="http://www.w3.org/2000/svg" xmlns:xlink="http://www.w3.org/1999/xlink" x="0px" y="0px"
	 viewBox="0 0 2500 2500" style="enable-background:new 0 0 2500 2500;" xml:space="preserve">
<style type="text/css">
	.st0{fill-rule:evenodd;clip-rule:evenodd;fill:#FF77A5;}
	.st1{fill-rule:evenodd;clip-rule:evenodd;fill:#DC678F;}
	.st2{fill-rule:evenodd;clip-rule:evenodd;fill:#BCE6D3;}
	.st3{fill-rule:evenodd;clip-rule:evenodd;fill:#98C3AF;}
	.st4{fill:none;stroke:#0F0B47;stroke-width:2;stroke-linecap:round;}
	.st5{fill-rule:evenodd;clip-rule:evenodd;fill:#19D9EB;}
	.st6{fill-rule:evenodd;clip-rule:evenodd;fill:#13C3D3;}
	.st7{fill-rule:evenodd;clip-rule:evenodd;fill:#10A6B4;}
	.st8{fill-rule:evenodd;clip-rule:evenodd;fill:#FEDD00;}
	.st9{fill-rule:evenodd;clip-rule:evenodd;fill:#FEA7A8;}
	.st10{fill:none;stroke:#0F0B47;stroke-width:2;}
	.st11{fill-rule:evenodd;clip-rule:evenodd;fill:#358BD7;}
	.st12{fill-rule:evenodd;clip-rule:evenodd;fill:#0F0B47;}
	.st13{fill:none;stroke:#FFFFFF;stroke-width:2;}
	.st14{fill-rule:evenodd;clip-rule:evenodd;fill:#3F38A2;}
	.st15{fill:none;stroke:#000000;stroke-width:2;}
	.st16{fill:none;stroke:#261A5E;stroke-width:2;}
	.st17{fill-rule:evenodd;clip-rule:evenodd;fill:#261A5E;}
	.st18{fill-rule:evenodd;clip-rule:evenodd;fill:#3D9BEF;}
	.st19{fill-rule:evenodd;clip-rule:evenodd;fill:#E19394;}
	.st20{fill-rule:evenodd;clip-rule:evenodd;fill:#FFFFFF;}
	.st21{fill:none;stroke:#FFFFFF;stroke-width:2;stroke-linecap:round;}
	.st22{fill:none;stroke:#F9F9F9;stroke-width:2;}
	.st23{fill:none;stroke:#09072B;stroke-width:2;}
	.st24{fill-rule:evenodd;clip-rule:evenodd;fill:#017F5D;}
	.st25{opacity:0.2;fill:none;stroke:#FFFFFF;stroke-width:2;enable-background:new    ;}
	.st26{fill-rule:evenodd;clip-rule:evenodd;fill:#00976F;}
	.st27{fill-rule:evenodd;clip-rule:evenodd;fill:#FF2200;}
	.st28{fill-rule:evenodd;clip-rule:evenodd;fill:#EE2304;}
	.st29{fill-rule:evenodd;clip-rule:evenodd;}
</style>
<g id="_x31_1---guy-and-girl-are-sitting-and-laughing">
	<g transform="translate(87.000000, 177.000000)">
		<rect id="Rectangle_14_" x="-50.3" y="1134" class="st0" width="985.3" height="846.2"/>
		<rect id="Rectangle-Copy-5" x="440.4" y="1134" class="st1" width="494.6" height="846.2"/>
		<rect id="Rectangle-Copy_3_" x="1391" y="1134" class="st2" width="985.3" height="846.2"/>
		<rect id="Rectangle-Copy-4_1_" x="1939.7" y="1134" class="st3" width="436.6" height="846.2"/>
		<g id="Woman" transform="translate(20.000000, 31.902655)">
			<g id="Group-8_3_" transform="translate(135.327331, 28.397752)">
				<g id="Group-2_6_" transform="translate(2.627173, 0.000000)">
					<path id="Path-4_6_" class="st4" d="M403.8,317.6l37.5,10.7c4.9,1.4,9.4,4.2,12.7,8.1c3.4,3.9,5.9,8.5,7.5,13.5l23.8,77.1l0,0"
						/>
					<path id="Rectangle_13_" class="st5" d="M425.8,412.4h104.9v13.8l-12.9,151.9c-0.3,4-3.7,7.1-7.7,7.1h-63.6
						c-4,0-7.4-3.1-7.7-7.1l-12.9-151.9l0,0L425.8,412.4L425.8,412.4z"/>
					<path id="Path_57_" class="st6" d="M530.7,414.1v12.1l-13,152.7c-0.3,3.5-3.2,6.2-6.7,6.2h-65.4c-3.5,0-6.4-2.7-6.7-6.2
						l-5.2-61.6c5.7-7,12.5-12.9,20.6-17.7l1.6-0.9c34.9-19.4,51.8-47.1,50.7-83.1l-0.1-1.6L530.7,414.1L530.7,414.1z"/>
					<path id="Rectangle-Copy-2_4_" class="st5" d="M456.2,388.7h44c9.4,0,16.9,7.6,16.9,16.9l0,0l0,0h-77.8
						C439.3,396.2,446.9,388.7,456.2,388.7z"/>
					<path id="Rectangle_12_" class="st7" d="M426.2,402.2h103.9c2.1,0,3.9,1.7,3.9,3.9v9.2c0,2.1-1.7,3.9-3.9,3.9H426.2
						c-2.1,0-3.9-1.7-3.9-3.9v-9.2C422.4,403.9,424.1,402.2,426.2,402.2z"/>
					<polygon id="Path-52_1_" class="st8" points="425.8,456.6 530.7,456.6 525.4,518.1 431,518.1 					"/>
				</g>
				<path id="Path-246" class="st9" d="M551.2,616.5l12.9-65.9c3.3-16.9-0.7-34.3-11.1-48c-10.7-14.2-24.5-25.7-40.3-33.7l-39.5-20
					c-2.2-1.1-4.9-0.2-6.1,2c-0.5,1-0.6,2.1-0.4,3.1c1.5,6.1,5.2,11.4,10.5,14.9l34.7,22.8l0,0l-49.5-19.6c-2-0.8-4.3,0.2-5.2,2.2
					c-0.3,0.6-0.3,1.3-0.2,2c0.6,4.3,3.1,8.1,6.8,10.5l43.7,27.8l0,0L467.7,501c-2.4-0.8-5.1,0.5-5.9,2.9c-0.2,0.5-0.2,1-0.2,1.5
					c0,3.9,2.2,7.6,5.7,9.4l44.8,22.9l0,0l-34.4-6.7c-2.6-0.5-5,1.2-5.5,3.7c-0.1,0.3-0.1,0.6-0.1,0.9c0,3.5,2,6.7,5.2,8.2
					l34.8,16.7l0,0l-2.9,8.8c-3.1,9.6-12.2,16.1-22.3,16l-13.8-0.2l0,0l5.6,21.7L551.2,616.5z"/>
				<line id="Path-11_2_" class="st10" x1="491" y1="478.4" x2="515.1" y2="494"/>
				<line id="Path-19_1_" class="st10" x1="491" y1="502.6" x2="515.1" y2="518.1"/>
				<line id="Path-20_1_" class="st10" x1="494.4" y1="527.8" x2="515.1" y2="539.7"/>
				<path id="Path-21_1_" class="st10" d="M511.3,559.8c0,16.9-6.8,25.3-20.3,25.3"/>
			</g>
			<path id="Path-243" class="st11" d="M393.9,520l137,290.5l70.4-179.2l98.8,12.3l-62.9,239c-8.6,32.6-33.2,58.6-65.3,68.9
				c-31.8,10.2-66.6,2.3-90.8-20.7L307.9,765.9l0,0L393.9,520z"/>
			<g id="Group-7_4_" transform="translate(14.477375, 138.552446)">
				
					<g id="Group-4-Copy_3_" transform="translate(255.951413, 212.999941) rotate(25.000000) translate(-255.951413, -212.999941) translate(193.951413, 181.999941)">
					<polygon id="Path-60_5_" class="st9" points="1056.3,777 1148.2,849.6 1265,789.6 1170.5,710.5 					"/>
					<path id="Path-58_5_" class="st12" d="M1138.6,848.3l95.8-95.7c2.6-2.6,6.7-3,9.7-1l27.6,18.2c21,13.8,46.7,18.4,71.1,12.7
						l149.1-35c13.2-3.1,26.7,3.3,32.7,15.5c5.5,11.3,0.8,25-10.5,30.5c-0.1,0-0.2,0.1-0.3,0.1L1234,925.2
						c-22.5,10.6-49.3,3.1-63.1-17.5l-33.3-49.6C1135.6,855,1136,850.9,1138.6,848.3z"/>
					<path id="Path_56_" class="st13" d="M1175.1,811.1l32.9,24.2c13.4,9.8,31.8,9.3,44.6-1.3c10.1-8.3,11.5-23.3,3.1-33.4
						c-0.9-1.1-1.9-2.1-2.9-3l-34.2-29l0,0"/>
				</g>
				
					<g id="Group-4_9_" transform="translate(146.336656, 288.913555) rotate(25.000000) translate(-146.336656, -288.913555) translate(93.836656, 252.913555)">
					<polygon id="Path-60_4_" class="st9" points="898.5,1091.4 914.1,1199.7 1030.9,1139.7 1012.7,1025 					"/>
					<path id="Path-58_4_" class="st12" d="M900.3,1158.8l123.8-54.7c3.6-1.6,7.7-0.3,9.7,3.1l10.4,17.2
						c8.4,13.9,24.4,21.4,40.5,18.8l168.3-26.3c13.6-2.1,27,4.9,33,17.2c5.3,10.8,0.8,23.9-10.1,29.2c-0.4,0.2-0.8,0.4-1.2,0.5
						l-279.2,116.1c-25.6,10.6-55-1.5-65.7-27.1c-0.1-0.2-0.2-0.4-0.2-0.6l-33.4-83.4C894.7,1164.9,896.4,1160.5,900.3,1158.8z"/>
					<path id="Path-59_4_" class="st13" d="M945.3,1138.1l14,30c7.2,15.3,25.2,22.2,40.7,15.5c15.5-6.6,22.7-24.4,16.3-40l-12.8-31
						l0,0"/>
				</g>
				<path id="Path-247" class="st14" d="M48.4,783.2l10.7,110.3c4.2,43.6,30.2,82.2,69.1,102.4c41,21.3,86.4,32.5,132.6,32.5h207.3
					l0,0L388,1627.5l297.5,18.6l28.5-465.9l89.5,235.9l256.5-118.6L828.6,790.8c-25.9-56.8-73.2-101-131.5-123.2
					c-58.8-22.3-123.6-23.1-182.8-2L221,769.7l0,0L48.4,783.2z"/>
				<path id="Path_55_" class="st12" d="M337.4,758.7l112,24.3c78.5,17.1,142.9,72.8,171.3,148l183,485.1l-89.5-235.9l-17.4,292.4
					l-1.7,0.9c-59.3-342.2-106.2-538.8-140.7-589.9S447.5,790.9,337.4,758.7z"/>
				<path id="Path-248-Copy" class="st15" d="M337.4,758.7l94.1,20.5c89.6,19.5,163.2,83.1,195.6,168.9l176.6,468.1l0,0"/>
			</g>
			<path id="Path-225" class="st16" d="M285,255.7c30.3,26.3,37.8,60.3,22.7,102.1"/>
			<path id="Path-226" class="st16" d="M319.1,407.3c42.3,20.7,66,51.8,71.3,93.2s-19.8,70.8-75,88.3"/>
			<path id="Path-220" class="st17" d="M308.1,343.5c6.4-26.2,3.4-50.5-8.9-72.9c-18.5-33.6-87.3-38.9-130.9-3S140,375.9,109.2,415
				s-89.5,88.2-68.8,168.2s187.3,70.9,223.1,46.2c35.7-24.6,92.6-21.9,115.8-72.7s1.4-109.3-53.9-141.9
				C288.5,393.1,282.7,369.3,308.1,343.5z"/>
			<path id="Path-242" class="st18" d="M78.3,543.6c-25,26.5-40.6,60.7-44.1,97L12.7,860.2c-3.7,37.7,7.7,75.3,31.6,104.6
				c21.9,26.9,59.4,35.4,90.8,20.6l329-155.2l0,0l-38.4-93l-48.5,20.2c29.7-30.9,44.6-57.5,44.6-79.9c0-33.5-23.4-56.4-23.4-99.6
				l4.2-24.6c3-17.5-4-35.3-18.2-46.1c-14.9-11.3-33.3-17-52-16L173,499.7C137.1,501.6,103.1,517.3,78.3,543.6z"/>
			<path id="Path-219" class="st9" d="M307.5,337.3l18.7,77.7c2,8.2-0.3,16.8-6.1,23c-6,6.4-14,10.4-22.7,11.3l-16.8,1.8l0,0
				l8.8,46.3c4.6,24.5-11.5,48.2-36,52.8c-1,0.2-1.9,0.3-2.9,0.5c-26.6,3.3-50.8-15.4-54.5-42l-11-80l0,0
				c-15.6-5.8-23.5-15.6-23.5-29.2c0-20.5,25.8-16.8,31.5-6.7c37.2-19.3,57.2-55.7,60-109.4C279.9,289.6,301,310.4,307.5,337.3z"/>
			<path id="Path-221" class="st19" d="M216.3,437.5c20.9,9.1,42.3,13.6,64.3,13.6l8.8,46.9L216.3,437.5z"/>
			<g id="Group-20" transform="translate(61.427949, 22.351468)">
				<path id="Path-222" class="st20" d="M210.2,386.1l35.6-14.2c1.1,12.3-1.7,20.4-8.5,24.5C230.4,400.4,221.4,397,210.2,386.1z"/>
				<path id="Path-223" class="st10" d="M222,331.9c1.2,9.3,4.7,14.8,10.7,16.6c9,2.7,9.3,15.9-2.8,15.9"/>
				<path id="Rectangle-Copy-3_4_" class="st17" d="M197.6,315.7l-12.7,6.5c-1,0.5-1.5,1.8-0.9,2.9l0,0c0.6,1.1,1.9,1.5,3,0.9
					l12.7-6.5c1-0.5,1.5-1.8,0.9-2.9l0,0C199.9,315.6,198.6,315.2,197.6,315.7z"/>
				<path id="Rectangle-Copy-6" class="st17" d="M229.4,304.4l14-2.7c1.2-0.2,2.3,0.5,2.5,1.7l0,0c0.2,1.2-0.6,2.3-1.8,2.6l-14,2.7
					c-1.2,0.2-2.3-0.5-2.5-1.7l0,0C227.4,305.7,228.2,304.6,229.4,304.4z"/>
				<ellipse id="Oval-Copy-3" class="st12" cx="206.7" cy="337.8" rx="3.9" ry="3.9"/>
				<ellipse id="Oval-Copy-5" class="st12" cx="241.4" cy="324.7" rx="3.9" ry="3.9"/>
			</g>
			<ellipse id="Oval_18_" class="st21" cx="265.3" cy="361.9" rx="15.7" ry="15.7"/>
			<ellipse id="Oval-Copy-6" class="st21" cx="302" cy="348.8" rx="15.7" ry="15.7"/>
			<ellipse id="Oval_17_" class="st17" cx="125.1" cy="267.3" rx="30.1" ry="30.1"/>
			<path id="Path-224" class="st16" d="M253.6,283.4c4.8,52.8-15.4,89.3-60.6,109.4"/>
			<path id="Path-231" class="st22" d="M245.4,277.3c1.4,50.6-16.1,87.1-52.4,109.4"/>
			<path id="Path-227" class="st10" d="M168.2,407.3c-1.1-6.6,0.8-11.5,5.9-14.5c5-3,10.3-0.6,15.8,7.2"/>
			<line id="Path-228" class="st10" x1="180.1" y1="402.2" x2="189.1" y2="407.3"/>
			<line id="Path-229" class="st21" x1="280" y1="355.3" x2="286.2" y2="353"/>
			<line id="Path-230" class="st21" x1="249.6" y1="364.5" x2="181.6" y2="383.2"/>
			<path id="Path-244" class="st12" d="M183.5,801.5c-9.8-5.1-15.9-15.2-16-26.2L167,662.2l0,0l-22.9,178.6l233.1-83.5l-160.7,47.4
				C205.5,808,193.7,806.8,183.5,801.5z"/>
			<path id="Path-245" class="st9" d="M450.8,726.8c8.7-8.7,18-16.9,27.6-24.5l24.6-19.4c2.7-2.1,6.5-1.7,8.6,1
				c0.9,1.1,1.3,2.4,1.3,3.8c0,8.3-2.3,16.5-6.6,23.6l-14.1,23.3l0,0l17.9-7.4c27.1-11.2,52.5-26,75.6-44.2l27.2-21.4
				c2-1.6,5-1.2,6.6,0.8c0.6,0.8,1,1.8,1,2.9c0,6.3-2,12.4-5.6,17.4l-16.3,22.5l0,0c-9.8,22.6-25.7,42-46,55.9l-82.2,56.4l0,0
				l-24.9,14.9l-28.4-82.2l4.1-2.1C432.1,742.7,442.1,735.4,450.8,726.8z"/>
			<line id="Path-22_1_" class="st10" x1="484.9" y1="737" x2="530.9" y2="717.7"/>
			<line id="Path-23_1_" class="st10" x1="598.6" y1="705.3" x2="582.9" y2="717.7"/>
			<path id="Path-24_1_" class="st10" d="M400.1,568.1c-2.4,24.7,0.7,45,9.2,61c12.8,24,26.2,72.9-32.1,128.2"/>
			<path id="Path-26_1_" class="st13" d="M194.4,498c6.2,36.8,23.2,54.4,51,53.1c41.7-2,46.4-40.2,44.1-57.1"/>
			<line id="Path-27_1_" class="st10" x1="155.3" y1="832.5" x2="125.1" y2="861"/>
		</g>
		<g id="Man" transform="translate(312.579495, 0.000000)">
			<g id="Group-2_5_" transform="translate(0.000000, 189.812562)">
				
					<g id="Group-5-Copy_2_" transform="translate(52.718756, 256.587471) scale(-1, 1) rotate(-8.000000) translate(-52.718756, -256.587471) translate(4.218756, 227.587471)">
					<g id="Group-4_8_" transform="translate(0.494569, 0.067530)">
						<polygon id="Rectangle_11_" class="st9" points="-1318.9,1209 -1176,1189.8 -1159.3,1303.8 -1302.2,1323 						"/>
						<path id="Path-17_6_" class="st23" d="M-1105.4,1277.6c8.4-53.2,22.2-78.7,41.2-76.2c19.1,2.4,4,34.3-45.4,95.6
							c38.1-75.6,65.2-101.1,81.3-76.4c7.7,11.8-12.1,43.9-73,76.6"/>
						<path id="Path-16_6_" class="st17" d="M-1311.5,1296l167.5-59.6c15.1,21.3,35.4,36.6,60.7,45.8c38,13.8,96.8,23.6,130,93.1
							l-229.4,22.3l-34.5-22.3v22.3l-94.4,10.2V1296H-1311.5z"/>
						<g id="Group-9_6_" transform="translate(43.311284, 19.631626)">
							<line id="Path-25_6_" class="st13" x1="-1197.8" y1="1274.3" x2="-1144.6" y2="1244.2"/>
							<line id="Path-25-Copy_6_" class="st13" x1="-1174.5" y1="1282.8" x2="-1121.4" y2="1252.7"/>
							<line id="Path-25-Copy-2_6_" class="st13" x1="-1151.3" y1="1291.2" x2="-1098.2" y2="1261.1"/>
						</g>
					</g>
				</g>
				
					<g id="Group-5-Copy-2" transform="translate(170.919931, 256.683996) scale(-1, 1) rotate(-8.000000) translate(-170.919931, -256.683996) translate(121.919931, 227.683996)">
					<g id="Group-4_7_" transform="translate(0.494569, 0.067530)">
						<polygon id="Rectangle_10_" class="st9" points="-1634.7,1164.6 -1484.8,1146.4 -1492.4,1257 -1642.3,1275.2 						"/>
						<path id="Path-17_5_" class="st23" d="M-1438.6,1230.7c8.4-53.2,22.2-78.7,41.2-76.2c19.1,2.4,4,34.3-45.4,95.6
							c38.1-75.6,65.2-101.1,81.3-76.4c7.7,11.8-12.1,43.9-73,76.6"/>
						<path id="Path-16_5_" class="st17" d="M-1644.7,1249.2l167.5-59.6c15.1,21.3,35.4,36.6,60.7,45.8c38,13.8,96.8,23.6,130,93.1
							l-229.4,22.3l-34.5-22.3v22.3l-94.4,10.2v-111.8H-1644.7z"/>
						<g id="Group-9_5_" transform="translate(44.222131, 19.631626)">
							<line id="Path-25_5_" class="st13" x1="-1531.9" y1="1227.5" x2="-1478.7" y2="1197.4"/>
							<line id="Path-25-Copy_5_" class="st13" x1="-1508.6" y1="1235.9" x2="-1455.5" y2="1205.8"/>
							<line id="Path-25-Copy-2_5_" class="st13" x1="-1485.4" y1="1244.4" x2="-1432.3" y2="1214.3"/>
						</g>
					</g>
				</g>
				<path id="Path-241" class="st24" d="M1699.1,688.4h-273.2c-50.9,0-101.2,11.2-147.3,32.8c-44.1,20.7-75.9,60.8-86,108.4
					L1029.8,1598l0,0l270.5,50.2l109.2-682.5h202.7L1699.1,688.4z"/>
				<path id="Path-10_3_" class="st25" d="M1213.7,1632.6l132.8-676.8c4.3-21.7,22.2-38,44.1-40.3l113.2-11.7l0,0"/>
				<path id="Path-240" class="st26" d="M1884.3,688.4l9.7,131.4c2.6,34.6-5.6,69.2-23.4,99.1c-16.9,28.4-47.6,45.9-80.7,45.9h-67.1
					c-17.1,0-30.9,13.8-30.9,30.9c0,0.8,0,1.7,0.1,2.5l53.3,651.1l0,0l-294.4-49.8l-3.2-637.3c-0.2-48.4,9.4-96.3,28.4-140.7
					c18.3-42.9,54-76,98.2-90.9l124.7-42.1l0,0L1884.3,688.4L1884.3,688.4z"/>
				<path id="Path-9_3_" class="st25" d="M1672.7,1632.6l-37.1-671.1c-0.7-12.8,2.2-25.6,8.5-36.8c6-10.8,16.8-18,29.1-19.3l73.6-8
					c47.6-5.2,82-48,76.8-95.6c-0.2-2.2-0.6-4.4-1-6.6l-20.1-106.7l0,0"/>
			</g>
			<g id="Group-5_5_" transform="translate(18.635456, 0.000000)">
				<g id="Group-3_3_" transform="translate(0.581484, 0.000000)">
					
						<g id="Group-17" transform="translate(80.165680, 122.660691) scale(-1, 1) rotate(-44.000000) translate(-80.165680, -122.660691) translate(5.165680, 86.160691)">
						<g id="Group-12" transform="translate(0.270612, 0.029120)">
							<path id="Path-198" class="st9" d="M-1208.1-403.1l215.9,44.5c9.5-11.4,20.9-21.1,34.2-29l36.1-29c4.4-3.5,10.8-3,14.6,1.2
								s3.7,10.6-0.3,14.6l-24.2,24.8l10.9,2c26.2,4.9,52.9,6.6,79.6,5l30.4-1.8c5.5-0.3,10.2,3.7,10.8,9.1s-3.3,10.2-8.6,10.9
								l-49.6,6.2c-9.2,1.1-18.5,1.9-27.8,2.2l-4.7,0.1c10.5,5,22,7.6,33.7,7.4l48.8-0.7c5.9-0.1,10.9,4.6,11.1,10.5
								c0.3,5.9-4.2,10.9-10.1,11.2l-65.2,3.6l-17.6,1.1c12.8,3.1,25.9,4.6,39.1,4.5l38.2-0.3c5.7-0.1,10.5,4.4,10.8,10.1
								c0.3,5.3-3.5,9.8-8.6,10.4l-0.9,0.1l-49.4,1.6c-2.4,0.1-4.8,0.1-7.2,0.2l-27.8,0.4l10.6,3.8c9.5,3.4,19.2,6.2,29.1,8.3
								l8.4,1.8c3.4,0.7,5.5,4.1,4.8,7.5l-0.1,0.3c-1,3.7-4.5,6.1-8.3,5.7l-8.6-0.9c-10.1-1-20-2.8-29.8-5.2l-27-6.8l-69.1-10
								l-274.2-9.4c-17.7,0.2-63.8-11.3-84.4-24c-20.6-12.7-27.8-48.2-25.3-69c1.7-13.9,17.6-63.8,47.6-149.7l152.5,17.5
								L-1208.1-403.1z"/>
							<path id="Path-12_1_" class="st10" d="M-931.9-376c1,39-17.3,58.5-55.1,58.5"/>
							<path id="Path-13_1_" class="st10" d="M-895.8-354.2c3.3,24.9,1.8,49-4.5,72.4"/>
							<path id="Path-14_1_" class="st10" d="M-894.1-342.5c17.5,0.2,30.2-0.4,38.1-1.9"/>
							<line id="Path-15_1_" class="st10" x1="-894.1" y1="-310.4" x2="-861.5" y2="-310.4"/>
							<line id="Path-18_1_" class="st10" x1="-900.3" y1="-281.8" x2="-861.5" y2="-281.8"/>
							<line id="Path-28_2_" class="st10" x1="-1208.1" y1="-403.1" x2="-1258.7" y2="-387.6"/>
						</g>
					</g>
					<path id="Path-238" class="st27" d="M1807.2,445.4c35.9,14.3,63.1,44.5,73.7,81.7l43,152l0,0h-142.6l22.5,200h-322.6l-24.1-200
						l-129.4-43.7l45.6-126.7c9.5-26.4,26.6-49.5,49.2-66.2c22.4-16.6,49.8-25.4,77.7-24.8l188.8,3.8
						C1729.5,422.3,1769.5,430.4,1807.2,445.4z"/>
					<g id="Group-21" transform="translate(155.885375, 0.000000)">
						<path id="Path-234" class="st17" d="M1381.5,263.8c-35.2-32.8-43.8-64.9-26-96.2c23.5-41.4,94.8-20.2,149.9,14.7
							c14.2,2.3,23.1,4.5,26.6,6.5c35.3,19.9,14.1,55.1,1.5,91.9l-52.4,20.9L1381.5,263.8z"/>
						<path id="Path-232" class="st9" d="M1379.1,243.2l-7.9,91.6c-1,11.9,1.6,23.8,7.6,34.1c5.7,9.9,16,16.3,27.4,17.2l14.5,1.1
							l0,0l-4.1,49.5c-2,24.2,16,45.5,40.2,47.6c1.2,0.1,2.4,0.2,3.7,0.2c26.9,0,49.1-21,50.7-47.8l6.8-117.3l0,0
							c22.2-6.8,32.3-16.7,30.2-29.8c-2.1-13-10.4-15.9-24.8-8.6c-18.3,20.3-31.7,11-39.9-27.8c-11.2-6.1-16.7-13.7-16.7-22.7
							c-10.4,3.5-19,1.4-25.8-6.4c-10.3,3.9-19.1,7.6-26.6,11.2C1407.4,238.6,1395.7,241.2,1379.1,243.2z"/>
						<path id="Path_54_" class="st17" d="M1500.3,263.6c2.8,11.3,9.1,17.1,19,17.5l-1.3,9.9c-2.4,17.4-7.6,34.3-15.6,49.9
							c-7.9,15.6-19.1,29.2-32.9,40l-5.7,4.5l0,0l-43.1,6.2v-4.5l-14.5-1.1c-11.4-0.9-21.7-7.3-27.4-17.2c-5.8-10-8.4-21.4-7.7-32.8
							l0.1-1.2l1.1-13c5.1-3,10.9-4.3,16.8-4l39.2,2.5c7.7,0.5,15.1,3.3,21.1,8.1c5.6,4.4,13.3,4.9,19.4,1.1l1.8-1.1
							c7.8-4.8,13.9-11.9,17.7-20.2l13.5-29.9l0,0L1500.3,263.6z"/>
						
							<g id="Group-20_1_" transform="translate(18.503828, 40.802594) scale(-1, 1) rotate(8.000000) translate(-18.503828, -40.802594) translate(9.503828, 27.802594)">
							<path id="Path-222_1_" class="st20" d="M-1342.4,499.1l36.1-7.5c-1,11.8-5.1,19-12.2,21.7
								C-1325.6,516-1333.6,511.2-1342.4,499.1z"/>
							<path id="Path-223_1_" class="st10" d="M-1336.8,447.1c1.1,8.9,4.5,14.2,10.3,16c8.6,2.6,9,15.3-2.7,15.3"/>
							<path id="Rectangle-Copy-3_3_" class="st17" d="M-1361.1,426.5l-12.2,6.2c-1,0.5-1.4,1.7-0.9,2.8l0,0c0.5,1,1.8,1.4,2.8,0.9
								l12.2-6.2c1-0.5,1.4-1.7,0.9-2.8l0,0C-1358.8,426.4-1360,426-1361.1,426.5z"/>
							<path id="Rectangle-Copy-6_1_" class="st17" d="M-1329.8,420.6l13.5-2.6c1.1-0.2,2.2,0.5,2.4,1.6l0,0
								c0.2,1.1-0.5,2.2-1.7,2.5l-13.5,2.6c-1.1,0.2-2.2-0.5-2.4-1.6l0,0C-1331.7,421.9-1330.9,420.8-1329.8,420.6z"/>
							<path id="Oval-Copy-3_1_" class="st12" d="M-1357.7,446c2.1,0.3,3.9,0.5,3.9,0.5S-1355.5,446.3-1357.7,446
								c-2.1-0.3-3.9-0.5-3.9-0.5S-1359.8,445.7-1357.7,446z"/>
							<path id="Oval-Copy-5_1_" class="st12" d="M-1321.1,438c2.1,0.3,3.9,0.5,3.9,0.5S-1318.9,438.3-1321.1,438
								c-2.1-0.3-3.9-0.5-3.9-0.5S-1323.2,437.7-1321.1,438z"/>
						</g>
						<path id="Path-233" class="st19" d="M1420.7,387.2c17.6,1.5,39.4-5.8,65.5-22l-69.4,67.8L1420.7,387.2z"/>
						<path id="Path-235" class="st10" d="M1523.2,289.3c9.1-5.2,14.7-5.2,16.8,0s-0.7,10.2-8.4,14.9"/>
						<line id="Path-236" class="st22" x1="1505.3" y1="182.2" x2="1494" y2="194.2"/>
						<line id="Path-237" class="st22" x1="1505.3" y1="237" x2="1529.3" y2="262.4"/>
						<line id="Path-237-Copy" class="st22" x1="1497.8" y1="249.6" x2="1521.8" y2="275"/>
					</g>
					<path id="Path_53_" class="st28" d="M1775.2,577l6.1,102.1l22.5,200h-322.6l-12.1-91.6l39-1.7
						c120.9-5.3,215.5-95.5,265.6-205.4L1775.2,577z"/>
					<polygon id="Path-239" class="st29" points="1457,679.1 1463.6,577 1409.6,663 					"/>
					
						<g id="Group-17-Copy" transform="translate(212.323791, 141.921271) scale(-1, 1) rotate(-44.000000) translate(-212.323791, -141.921271) translate(137.323791, 103.921271)">
						<g id="Group-12_1_" transform="translate(0.270612, 0.029120)">
							<path id="Path-198_1_" class="st9" d="M-1487.1-620l184.3,43.6c9.5-11.4,20.9-21.1,34.2-29l36.1-29c4.4-3.5,10.8-3,14.6,1.2
								c3.8,4.2,3.7,10.6-0.3,14.6l-24.2,24.8l10.9,2c26.2,4.9,52.9,6.6,79.6,5l30.4-1.8c5.5-0.3,10.2,3.7,10.8,9.1
								c0.6,5.4-3.3,10.2-8.6,10.9l-49.6,6.2c-9.2,1.1-18.5,1.9-27.8,2.2l-4.7,0.1c10.5,5,22,7.6,33.7,7.4l48.8-0.7
								c5.9-0.1,10.9,4.6,11.1,10.5c0.3,5.9-4.2,10.9-10.1,11.2l-65.2,3.6l-17.6,1.1c12.8,3.1,25.9,4.6,39.1,4.5l38.2-0.3
								c5.7-0.1,10.5,4.4,10.8,10.1c0.3,5.3-3.5,9.8-8.6,10.4l-0.9,0.1l-49.4,1.6c-2.4,0.1-4.8,0.1-7.2,0.2l-27.8,0.4l10.6,3.8
								c9.5,3.4,19.2,6.2,29.1,8.3l8.4,1.8c3.4,0.7,5.5,4.1,4.8,7.5l-0.1,0.3c-1,3.7-4.5,6.1-8.3,5.7l-8.6-0.9
								c-10.1-1-20-2.8-29.8-5.2l-27-6.8l-69.1-10c-173.9-11-267.7-17.1-281.3-18.4c-20.4-1.8-53.7-7.4-72.5-25.6
								c-18.8-18.2-37-41-25-79.9c8-25.9,58.4-72.6,151-140.2l97.5,94L-1487.1-620z"/>
							<line id="Path-28_1_" class="st10" x1="-1482.5" y1="-620.1" x2="-1520.5" y2="-618.5"/>
							<line id="Path-2_5_" class="st10" x1="-1181.1" y1="-560.7" x2="-1208" y2="-560.7"/>
							<line id="Path-3_5_" class="st10" x1="-1179.2" y1="-528.2" x2="-1204.7" y2="-527.6"/>
							<line id="Path-4_5_" class="st10" x1="-1189.7" y1="-500.5" x2="-1209.7" y2="-500.1"/>
						</g>
					</g>
					<path id="Path-5_4_" class="st13" d="M1572.8,416.8c-3.8,39.6,7.8,62.1,34.6,67.6c40.3,8.3,58.2-29.9,63-61.3"/>
					<line id="Path-6_3_" class="st13" x1="1780.2" y1="658.2" x2="1923.9" y2="658.2"/>
					<line id="Path-7_4_" class="st13" x1="1327.6" y1="618.4" x2="1458.6" y2="662.7"/>
					<line id="Path-8_3_" class="st15" x1="1781.2" y1="679.1" x2="1775.2" y2="577"/>
				</g>
			</g>
		</g>
	</g>
</g>
<g>
	<circle class="st12" cx="2006.8" cy="456.4" r="6.5"/>
	<circle class="st12" cx="1967.7" cy="456.4" r="6.5"/>
</g>
</svg>
